<!DOCTYPE svg PUBLIC "-//W3C//DTD SVG 20010904//EN" "http://www.w3.org/TR/2001/REC-SVG-20010904/DTD/svg10.dtd">
<svg version="1.0" xmlns="http://www.w3.org/2000/svg" width="200px" height="200px" viewBox="0 0 2000 2000" preserveAspectRatio="xMidYMid meet">
<g id="layer101" fill="#33363a" stroke="none">
 <path d="M840 1923 c-215 -42 -369 -119 -485 -244 -97 -105 -154 -237 -155 -360 0 -66 34 -193 76 -278 l36 -74 -61 -54 c-98 -88 -166 -199 -216 -353 -23 -70 -28 -109 -33 -220 -5 -165 -4 -167 83 -145 158 42 303 178 389 367 18 40 39 96 46 125 l13 51 37 -23 c92 -58 183 -95 292 -119 19 -4 34 -19 48 -46 l20 -40 -80 0 c-61 0 -82 -4 -86 -14 -3 -8 47 -107 111 -221 l116 -205 226 2 c159 2 227 6 230 14 2 7 -48 74 -111 150 l-115 139 74 3 c72 3 105 18 90 41 -3 6 -51 51 -105 101 -55 49 -93 90 -85 90 27 0 119 39 196 83 l76 43 13 -50 c7 -28 28 -84 46 -124 86 -189 231 -325 389 -367 88 -22 89 -20 82 150 -4 120 -9 152 -35 225 -53 155 -117 257 -213 343 l-61 54 36 74 c42 85 76 212 76 278 -1 123 -58 255 -155 360 -100 107 -225 178 -400 226 -59 17 -348 30 -405 18z"/>
 </g>
<g id="layer102" fill="#e71b1b" stroke="none">
 <path d="M811 1865 c-247 -56 -426 -179 -506 -347 -73 -154 -67 -286 23 -464 25 -49 35 -61 54 -60 44 2 30 -29 -33 -69 -79 -52 -158 -147 -215 -260 l-46 -90 64 -5 c101 -8 130 -40 132 -146 l0 -55 32 38 c78 92 174 299 174 376 0 13 6 30 14 36 12 10 22 5 55 -28 48 -48 183 -114 278 -137 88 -22 238 -22 326 0 95 23 230 89 278 137 33 33 43 38 55 28 8 -6 14 -23 14 -36 0 -78 96 -285 176 -378 l34 -40 0 62 c0 106 25 134 128 143 l64 5 -46 90 c-57 113 -136 208 -215 260 -63 40 -77 71 -33 69 19 -1 29 11 54 60 92 182 97 313 18 473 -71 145 -223 258 -425 319 -76 23 -113 27 -240 30 -106 3 -169 -1 -214 -11z m175 -516 c7 -6 23 -3 43 7 60 30 141 -9 141 -68 0 -21 -5 -28 -20 -28 -13 0 -20 7 -20 18 0 27 -20 42 -57 42 -22 0 -36 -6 -43 -19 -17 -32 -12 -48 20 -61 18 -8 30 -20 30 -31 0 -17 -8 -19 -80 -19 -72 0 -80 2 -80 19 0 11 12 23 30 31 32 13 37 29 20 61 -7 13 -21 19 -43 19 -37 0 -57 -15 -57 -42 0 -11 -7 -18 -20 -18 -45 0 -13 83 40 103 19 8 81 -2 96 -14z m-287 -127 c40 -29 71 -81 71 -119 0 -130 -153 -201 -247 -114 -104 94 -27 271 111 257 22 -3 51 -13 65 -24z m734 14 c45 -18 84 -67 92 -116 14 -83 -59 -170 -143 -170 -128 0 -196 144 -115 241 46 55 105 71 166 45z"/>
 <path d="M534 1065 c-8 -19 3 -35 26 -35 19 0 34 25 24 41 -8 14 -44 10 -50 -6z"/>
 <path d="M1301 1080 c-20 -12 -8 -45 17 -48 18 -3 22 1 22 21 0 27 -19 40 -39 27z"/>
 <path d="M950 585 c0 -3 11 -28 25 -54 31 -62 23 -69 -72 -73 l-71 -3 95 -168 95 -167 169 0 c93 0 169 2 169 4 0 2 -52 66 -115 142 -63 76 -114 143 -112 149 2 5 40 11 85 13 l81 3 -88 79 -89 80 -86 0 c-47 0 -86 -2 -86 -5z"/>
 </g>
<g id="layer103" fill="#ffb000" stroke="none">
 <path d="M811 1865 c-247 -56 -426 -179 -506 -347 -73 -154 -67 -286 23 -464 25 -49 35 -61 54 -60 44 2 30 -29 -33 -69 -79 -52 -158 -147 -215 -260 l-46 -90 64 -5 c101 -8 130 -40 132 -146 l0 -55 32 38 c78 92 174 299 174 376 0 13 6 30 14 36 12 10 22 5 55 -28 48 -48 183 -114 278 -137 88 -22 238 -22 326 0 95 23 230 89 278 137 33 33 43 38 55 28 8 -6 14 -23 14 -36 0 -78 96 -285 176 -378 l34 -40 0 62 c0 106 25 134 128 143 l64 5 -46 90 c-57 113 -136 208 -215 260 -63 40 -77 71 -33 69 19 -1 29 11 54 60 92 182 97 313 18 473 -71 145 -223 258 -425 319 -76 23 -113 27 -240 30 -106 3 -169 -1 -214 -11z m-226 -407 c38 -34 47 -77 25 -126 -21 -47 -44 -62 -95 -62 -104 0 -148 135 -64 194 35 24 102 21 134 -6z m964 6 c30 -21 51 -71 44 -107 -3 -15 -18 -41 -33 -57 -23 -25 -36 -30 -72 -30 -51 0 -82 21 -101 70 -29 72 18 140 97 140 23 0 52 -7 65 -16z m-563 -115 c7 -6 23 -3 43 7 60 30 141 -9 141 -68 0 -21 -5 -28 -20 -28 -13 0 -20 7 -20 18 0 27 -20 42 -57 42 -22 0 -36 -6 -43 -19 -17 -32 -12 -48 20 -61 18 -8 30 -20 30 -31 0 -17 -8 -19 -80 -19 -72 0 -80 2 -80 19 0 11 12 23 30 31 32 13 37 29 20 61 -7 13 -21 19 -43 19 -37 0 -57 -15 -57 -42 0 -11 -7 -18 -20 -18 -45 0 -13 83 40 103 19 8 81 -2 96 -14z m-287 -127 c40 -29 71 -81 71 -119 0 -130 -153 -201 -247 -114 -104 94 -27 271 111 257 22 -3 51 -13 65 -24z m734 14 c45 -18 84 -67 92 -116 14 -83 -59 -170 -143 -170 -128 0 -196 144 -115 241 46 55 105 71 166 45z"/>
 <path d="M534 1065 c-8 -19 3 -35 26 -35 19 0 34 25 24 41 -8 14 -44 10 -50 -6z"/>
 <path d="M1301 1080 c-20 -12 -8 -45 17 -48 18 -3 22 1 22 21 0 27 -19 40 -39 27z"/>
 <path d="M950 585 c0 -3 11 -28 25 -54 31 -62 23 -69 -72 -73 l-71 -3 95 -168 95 -167 169 0 c93 0 169 2 169 4 0 2 -52 66 -115 142 -63 76 -114 143 -112 149 2 5 40 11 85 13 l81 3 -88 79 -89 80 -86 0 c-47 0 -86 -2 -86 -5z"/>
 </g>
<g id="layer104" fill="#ffd800" stroke="none">
 <path d="M880 1600 c-97 -12 -186 -38 -270 -77 -62 -29 -72 -36 -55 -43 89 -35 94 -165 8 -205 -65 -31 -143 7 -158 77 l-7 30 -64 -69 c-58 -62 -64 -71 -60 -104 2 -20 22 -74 44 -121 36 -78 42 -86 72 -90 49 -7 103 11 93 31 -4 9 -8 42 -8 73 0 95 63 153 158 145 85 -7 135 -64 136 -155 1 -48 -3 -57 -36 -93 -25 -26 -51 -43 -76 -49 -43 -9 -102 3 -130 28 -10 9 -21 12 -26 6 -4 -5 -65 -103 -135 -217 l-126 -208 20 -27 c13 -17 23 -51 27 -85 3 -32 10 -54 15 -51 21 13 108 157 138 229 17 42 36 104 42 137 12 69 30 82 61 46 53 -61 174 -122 298 -152 112 -27 337 -14 406 23 10 5 41 20 68 33 61 27 113 63 142 96 31 36 49 23 61 -46 6 -33 25 -95 43 -138 35 -84 128 -230 144 -227 6 2 10 26 11 54 1 34 8 59 23 79 l21 29 -126 208 c-70 114 -130 212 -134 216 -5 5 -19 2 -33 -7 -41 -28 -83 -35 -124 -23 -48 14 -60 23 -89 69 -67 106 13 236 139 225 57 -5 95 -30 119 -78 19 -37 24 -114 8 -124 -36 -22 29 -56 90 -47 30 4 36 12 72 90 22 47 42 101 44 121 4 33 -2 42 -60 104 l-64 69 -7 -30 c-15 -70 -93 -108 -158 -77 -41 19 -62 54 -62 106 0 40 31 84 70 99 17 7 7 14 -57 44 -140 65 -348 97 -508 76z m100 -242 c16 -10 24 -10 40 0 27 17 86 15 114 -3 27 -18 51 -68 41 -84 -12 -20 -45 -12 -55 13 -11 29 -42 41 -70 26 -26 -14 -27 -56 -1 -65 29 -9 46 -34 33 -47 -14 -14 -149 -15 -164 0 -13 13 -2 31 28 42 17 7 24 17 24 35 0 51 -79 56 -95 6 -8 -25 -31 -33 -45 -16 -15 19 -4 52 28 82 28 26 89 31 122 11z"/>
 <path d="M1301 1080 c-20 -12 -8 -45 17 -48 18 -3 22 1 22 21 0 27 -19 40 -39 27z"/>
 <path d="M534 1065 c-8 -19 3 -35 26 -35 19 0 34 25 24 41 -8 14 -44 10 -50 -6z"/>
 <path d="M1057 537 c4 -8 24 -33 44 -56 l37 -42 71 3 71 3 -61 53 c-57 49 -64 52 -115 52 -43 0 -53 -3 -47 -13z"/>
 <path d="M970 225 c0 -3 12 -27 28 -55 l27 -50 169 0 169 0 -45 53 -46 52 -151 3 c-83 1 -151 0 -151 -3z"/>
 </g>
<g id="layer105" fill="#fdfdfe" stroke="none">
 <path d="M1301 1080 c-20 -12 -8 -45 17 -48 18 -3 22 1 22 21 0 27 -19 40 -39 27z"/>
 <path d="M534 1065 c-8 -19 3 -35 26 -35 19 0 34 25 24 41 -8 14 -44 10 -50 -6z"/>
 </g>

</svg>