<?xml version="1.0" standalone="no"?>
<!DOCTYPE svg PUBLIC "-//W3C//DTD SVG 1.1//EN" "http://www.w3.org/Graphics/SVG/1.1/DTD/svg11.dtd" >
<svg xmlns="http://www.w3.org/2000/svg" xmlns:xlink="http://www.w3.org/1999/xlink" version="1.1">
<metadata>
Created by FontForge 20170731 at Thu Jul 13 06:59:33 2017
 By Aleksey,,,
Copyright (c)2016 by Chandan Acharja. All rights reserved.

Typography &#38; Develop by Chandan Acharja,
Department of Graphic Design, Faculty of Fine Arts,
University of Dhaka.
Web : www.charuchandan.com
Email : chandan0112@gmail.com
Mobile +8801704580102
+8801956834106
</metadata>
<defs>
<font id="CharukolaRoundHeadUnicode" horiz-adv-x="0" >
  <font-face 
    font-family="Charukola Round Head Unicode"
    font-weight="400"
    font-stretch="normal"
    units-per-em="2048"
    panose-1="2 0 5 0 0 0 0 0 0 0"
    ascent="1638"
    descent="-410"
    x-height="988"
    cap-height="1399"
    bbox="-1412 -740 3152 2307"
    underline-thickness="70"
    underline-position="-455"
    unicode-range="U+001D-274C"
  />
<missing-glyph horiz-adv-x="1300" 
d="M468 12h-371v1492h371v-125h-250v-1236h250v-131zM1178 12h-371v131h250v1236h-250v125h371v-1492zM832 464l-191 206q-22 -24 -46.5 -51t-50 -54t-49.5 -53t-44 -48l-99 91l199 213q-83 87 -159 170q-20 21 -27 28t-10 11l10 10t12 11.5t23 22.5t24 23.5t16 14.5t13 12
l188 -205q25 27 49.5 54t50.5 54q9 10 21 23t24.5 26.5t24 26.5t20.5 22q4 -5 27 -26q7 -7 21.5 -23t49.5 -43l-198 -212l199 -211z" />
    <glyph glyph-name=".notdef" horiz-adv-x="1300" 
d="M468 12h-371v1492h371v-125h-250v-1236h250v-131zM1178 12h-371v131h250v1236h-250v125h371v-1492zM832 464l-191 206q-22 -24 -46.5 -51t-50 -54t-49.5 -53t-44 -48l-99 91l199 213q-83 87 -159 170q-20 21 -27 28t-10 11l10 10t12 11.5t23 22.5t24 23.5t16 14.5t13 12
l188 -205q25 27 49.5 54t50.5 54q9 10 21 23t24.5 26.5t24 26.5t20.5 22q4 -5 27 -26q7 -7 21.5 -23t49.5 -43l-198 -212l199 -211z" />
    <glyph glyph-name=".null" 
 />
    <glyph glyph-name=".null" 
 />
    <glyph glyph-name="nonmarkingreturn" horiz-adv-x="744" 
 />
    <glyph glyph-name="space" unicode=" " horiz-adv-x="744" 
 />
    <glyph glyph-name="exclam" unicode="!" horiz-adv-x="908" 
d="M610 351h-121v1088h121v-1088zM552 -27q-54 0 -89.5 35t-35.5 92q0 59 35.5 94t89.5 35q59 0 94 -35.5t35 -93.5q0 -57 -35 -92t-94 -35z" />
    <glyph glyph-name="quotedbl" unicode="&#x22;" horiz-adv-x="737" 
d="M298 1340h-120v285h120v-285zM521 1340h-120v285h120v-285z" />
    <glyph glyph-name="numbersign" unicode="#" horiz-adv-x="1483" 
d="M1050 257h-120v230h-351v-230h-120v230h-235v121h235v348h-235v123h235v227h120v-227h351v227h120v-227h225v-123h-225v-348h225v-121h-225v-230zM930 608v348h-351v-348h351z" />
    <glyph glyph-name="dollar" unicode="$" horiz-adv-x="1087" 
d="M567 -211h-107v197q-180 8 -309 83v137q156 -102 309 -106v538q-187 108 -244 182q-65 80 -65 195q0 138 87 235q42 48 94.5 77.5t127.5 43.5v174h107v-170q142 -5 246 -46v-138q-116 65 -246 69v-546q174 -98 236 -174q72 -86 72 -200q0 -137 -86 -234
q-77 -85 -222 -114v-203zM460 775v478q-92 -23 -138.5 -82.5t-46.5 -144.5q0 -77 39.5 -132t145.5 -119zM567 106q94 25 138.5 82t44.5 135q0 80 -42 136q-37 49 -141 114v-467z" />
    <glyph glyph-name="percent" unicode="%" horiz-adv-x="1532" 
d="M1084 137q57 0 97 40t40 94q0 53 -42.5 95t-94.5 42q-51 0 -111 -58q-23 -25 -23 -79q0 -56 39 -95t95 -39zM372 997q58 0 98 39.5t40 95.5q0 55 -41 93q-39 44 -97 44q-54 0 -94 -45q-39 -37 -39 -92q0 -56 41 -95q37 -40 92 -40zM1084 22q-103 0 -176.5 74t-73.5 175
t75.5 176.5t174.5 75.5q100 0 176 -76t76 -176q0 -50 -18 -93t-69 -94l1 -1q-66 -61 -166 -61zM372 882q-102 0 -164 62q-84 84 -84 188q0 101 73 175l1 2q75 75 174 75q102 0 168 -66q85 -85 85 -186q0 -105 -84 -189q-26 -25 -70.5 -43t-98.5 -18zM223 54q-28 28 -37 36
q-15 12 -20 17q-1 1 -5.5 5t-9.5 9t-9.5 9t-5.5 6l315 337q185 202 372 403q215 233 431 465l84 -82z" />
    <glyph glyph-name="ampersand" unicode="&#x26;" horiz-adv-x="1435" 
d="M585 -25q-205 0 -330 108q-119 111 -119 280q0 260 319 419q-152 187 -152 331q0 141 100 238q97 98 256 98q144 0 227.5 -84t83.5 -210q0 -128 -84 -236q-77 -89 -244 -169q197 -206 409 -404q110 186 124 417h116q-16 -277 -163 -497q111 -111 284 -270l-175 4
l-182 179q-207 -204 -470 -204zM564 830q149 67 225 145q65 73 65 169q0 92 -58.5 146.5t-145.5 54.5q-100 0 -169 -69q-62 -66 -62 -165q0 -115 143 -281h2zM593 79q217 0 385 177q-319 309 -445 445q-280 -127 -280 -331q0 -124 89 -209q97 -82 251 -82z" />
    <glyph glyph-name="quotesingle" unicode="'" horiz-adv-x="678" 
d="M419 1340h-120v285h120v-285z" />
    <glyph glyph-name="parenleft" unicode="(" horiz-adv-x="849" 
d="M551 -62q-185 191 -275 389.5t-90 414.5q0 314 179 610q81 136 185 247q51 -44 90 -90q-184 -193 -275 -467q-50 -146 -50 -304q0 -367 327 -710z" />
    <glyph glyph-name="parenright" unicode=")" horiz-adv-x="859" 
d="M328 -63l-89 91q327 345 327 709q0 155 -51 306q-91 272 -276 467l90 90q110 -119 186 -248q181 -310 181 -610q0 -215 -91 -413.5t-277 -391.5z" />
    <glyph glyph-name="asterisk" unicode="*" horiz-adv-x="1434" 
d="M482 256q-2 1 -7.5 4t-12 7t-12 7t-8.5 5t-7.5 4.5t-9.5 6t-17 9.5t-32 17l231 392h-456v123h454q-71 127 -148 254q-15 24 -29 48.5t-27.5 46.5t-22.5 39q15 12 84 55l19 13l228 -395l20 33q41 77 206 360l106 -62l-226 -392h452v-123h-452l224 -387q-27 -24 -38 -27
q-2 -1 -3.5 -2.5t-2.5 -1.5q-6 -5 -14.5 -9t-13.5 -7l-32 -16l-225 393q-27 -49 -56 -97q-49 -83 -172 -298z" />
    <glyph glyph-name="plus" unicode="+" horiz-adv-x="1366" 
d="M755 214h-120v478h-473v119h473v492h120v-492h495v-119h-495v-478z" />
    <glyph glyph-name="comma" unicode="," horiz-adv-x="820" 
d="M364 -192q-23 0 -69 12l29 97h38q66 0 118 43q26 28 31 54q-39 -39 -89 -39q-51 0 -87 36t-36 87q0 50 36 86t96 36q64 0 103 -26q61 -43 83 -125q2 -23 2 -45q0 -77 -54 -133q-97 -83 -201 -83z" />
    <glyph glyph-name="hyphen" unicode="-" horiz-adv-x="1227" 
d="M1019 692h-809v119h809v-119z" />
    <glyph glyph-name="period" unicode="." horiz-adv-x="390" 
d="M187 -11q-37 0 -63 25.5t-26 64.5t27 63q27 27 62 27t63 -25t28 -65q0 -37 -27 -64l-2 -3q-26 -23 -62 -23z" />
    <glyph glyph-name="slash" unicode="/" horiz-adv-x="1303" 
d="M213 -227l-105 63q857 1711 938 1875l107 -52q-399 -794 -940 -1886z" />
    <glyph glyph-name="zero" unicode="0" horiz-adv-x="1086" 
d="M502 -37q-197 0 -309 180q-107 172 -107 508q0 370 116 561q114 186 329 186q408 0 408 -712q0 -354 -114.5 -538.5t-322.5 -184.5zM513 76q139 0 218 148q83 158 83 449q0 611 -290 611q-149 0 -231 -156.5t-82 -464.5q0 -288 81 -441q78 -146 221 -146z" />
    <glyph glyph-name="one" unicode="1" horiz-adv-x="1012" 
d="M894 -14h-736v114h310v1168q-39 -14 -82 -29t-86 -30.5t-84.5 -30.5t-78.5 -28v122l452 158v-1330h305v-114z" />
    <glyph glyph-name="two" unicode="2" horiz-adv-x="1074" 
d="M882 -14h-808v117l374 398q191 204 257 309q60 96 60 213q0 124 -69.5 192.5t-196.5 68.5q-171 0 -355 -161v148q169 127 367 127q180 0 279 -99t99 -262q0 -146 -70 -263q-67 -114 -288 -349l-307 -325h658v-114z" />
    <glyph glyph-name="three" unicode="3" horiz-adv-x="1065" 
d="M413 -37q-155 0 -307 77v141q175 -105 308 -105q157 0 244.5 78.5t87.5 206.5q0 142 -102.5 215t-289.5 73h-121v114h110q172 0 263 72t91 206q0 114 -64.5 178.5t-188.5 64.5q-122 0 -285 -102v134q168 82 298 82q165 0 265.5 -92t100.5 -243q0 -256 -221 -346
q111 -28 179 -102q90 -98 90 -240q0 -186 -130 -301q-126 -111 -328 -111z" />
    <glyph glyph-name="four" unicode="4" horiz-adv-x="1069" 
d="M773 -14h-120v384h-625v95l632 910h113v-893h181v-112h-181v-384zM653 482v683q-11 -18 -474 -683h474z" />
    <glyph glyph-name="five" unicode="5" horiz-adv-x="1048" 
d="M402 -37q-147 0 -269 57v139q151 -83 276 -83q162 0 249.5 86.5t87.5 231.5q0 314 -360 314q-73 0 -216 -13v680h643v-113h-522v-446q73 5 128 5q221 0 336.5 -108t115.5 -307q0 -197 -123 -320q-120 -123 -346 -123z" />
    <glyph glyph-name="six" unicode="6" horiz-adv-x="1079" 
d="M516 -37q-195 0 -307 166q-106 164 -106 469q0 361 140 578q146 222 403 222q115 0 214 -39v-130q-118 55 -216 55q-191 0 -303 -180q-100 -161 -114 -420q109 184 324 184q174 0 280.5 -124.5t106.5 -310.5q0 -205 -119 -337.5t-303 -132.5zM524 76q117 0 204 95
q84 101 84 244q0 153 -75 248q-75 91 -205 91q-127 0 -211 -94t-84 -214q0 -152 81 -263q78 -107 206 -107z" />
    <glyph glyph-name="seven" unicode="7" horiz-adv-x="1071" 
d="M372 -14h-131l526 1276h-696v113h850v-44z" />
    <glyph glyph-name="eight" unicode="8" horiz-adv-x="1069" 
d="M475 -37q-171 0 -278.5 99.5t-107.5 260.5q0 243 285 387q-239 129 -239 342q0 149 110 247q108 99 277 99q154 0 252.5 -91.5t98.5 -232.5q0 -227 -253 -358q297 -125 297 -380q0 -166 -116 -269.5t-326 -103.5zM500 775q248 102 248 288q0 105 -65 163t-175 58
q-105 0 -176.5 -63.5t-71.5 -155.5q0 -187 240 -290zM504 76q137 0 213 72t76 177q0 118 -72.5 193t-227.5 129q-152 -65 -215.5 -135.5t-63.5 -185.5q0 -105 76 -179q80 -71 214 -71z" />
    <glyph glyph-name="nine" unicode="9" horiz-adv-x="1069" 
d="M368 -37q-102 0 -214 39v135q131 -61 216 -61q193 0 301 149t120 445q-104 -169 -318 -169q-174 0 -282.5 121.5t-108.5 311.5q0 203 120.5 333.5t305.5 130.5q188 0 302 -163q107 -157 107 -467q0 -376 -139 -593q-148 -212 -410 -212zM494 615q119 0 201 85
q86 86 86 206q0 169 -82 275q-78 103 -203 103t-206.5 -94t-81.5 -238q0 -160 79.5 -248.5t206.5 -88.5z" />
    <glyph glyph-name="colon" unicode=":" horiz-adv-x="713" 
d="M361 1023q-57 0 -92 35t-35 93t35 93t92 35t92 -35.5t35 -92.5q0 -58 -35 -93t-92 -35zM360 214q-55 0 -90.5 35t-35.5 93t35.5 93t90.5 35q58 0 93 -35.5t35 -92.5q0 -58 -35 -93t-93 -35z" />
    <glyph glyph-name="semicolon" unicode=";" horiz-adv-x="768" 
d="M326 -192q-23 0 -69 12l29 97h38q66 0 118 43q26 28 31 54q-39 -39 -89 -39q-51 0 -87 36t-36 87q0 50 36 86t96 36q64 0 103 -26q61 -43 83 -125q2 -23 2 -45q0 -77 -54 -133q-97 -83 -201 -83zM403 277q-40 0 -78 32q-29 35 -29 83q16 94 107 108q54 0 85 -32.5
t31 -75.5q0 -51 -31 -83t-85 -32z" />
    <glyph glyph-name="less" unicode="&#x3c;" horiz-adv-x="810" 
d="M580 312q-68 64 -271 267l-67 64v-1l-82 82l209 206q96 92 209 205l86 -90l-327 -320q265 -257 332 -323q-6 -6 -13.5 -14.5t-15 -16t-14 -14.5t-9.5 -9.5t-7.5 -7.5t-10.5 -10.5t-11.5 -10.5t-7.5 -7z" />
    <glyph glyph-name="equal" unicode="=" horiz-adv-x="1532" 
d="M1218 526h-889v119h889v-119zM1218 845h-889v119h889v-119z" />
    <glyph glyph-name="greater" unicode="&#x3e;" horiz-adv-x="825" 
d="M246 312l-86 92l332 321q-20 18 -41 40q-53 54 -94 92.5t-113 109.5v-1l-78 79l88 89q46 -46 90.5 -89t69.5 -68q45 -46 257 -254l-215 -207v1z" />
    <glyph glyph-name="question" unicode="?" horiz-adv-x="1483" 
d="M593 272q1 81 29 151q69 175 278 248q252 126 252 333q0 75 -43 154q-99 165 -257 165q-68 0 -113 -19q-62 -31 -100 -72q-65 -70 -65 -154q0 -55 30 -103q19 -32 43 -49q-15 30 -15 66q0 61 43 104t104 43q35 0 64 -14q38 -25 53 -44q0 -2 1 -3q27 -39 27 -97
q0 -50 -42 -92.5t-103 -42.5t-104 43q-17 17 -28 37q25 -17 56 -17q39 0 75 21q33 27 33 53q0 36 -33 83l65 59q34 -22 53 -44q0 -2 1 -3q28 -37 28 -86q0 -89 -93 -159q-59 -34 -119 -34q-136 0 -205 114q-47 80 -47 165q0 54 16 99q45 144 212 224q73 35 156 35
q229 0 360 -220q61 -104 61 -210q0 -68 -22 -134q-61 -195 -303 -306q-84 -36 -129 -69q-102 -88 -106 -205zM677 -29q-51 0 -85 38l3 -1q-39 34 -39 81t39 88q34 35 82 35q45 0 81.5 -37t36.5 -86q0 -48 -37 -81l2 1q-32 -38 -83 -38z" />
    <glyph glyph-name="at" unicode="@" horiz-adv-x="1473" 
d="M739 452q81 0 137.5 56.5t56.5 140.5v214q0 85 -57 140q-57 58 -137 58t-138 -59t-58 -139v-214q0 -79 63 -145l-1 -1q55 -51 134 -51zM734 51q-264 14 -405 132q-153 141 -153 358v430q0 222 154 357q160 133 409 133q245 0 405 -134q157 -139 157 -356v-436
q-34 -165 -209 -165q-64 0 -138 57q-105 -89 -215 -89q-133 0 -222 91q-91 87 -91 220v214q0 130 92.5 220.5t220.5 90.5q125 0 216.5 -91.5t91.5 -219.5v-214q0 -52 -28 -125q39 -37 70 -39q59 0 75 13q16 10 23 43v430q0 184 -150 294q-123 82 -298 82q-177 0 -300 -82
q-150 -110 -150 -294v-430q0 -188 150 -293q111 -74 295 -84v-113z" />
    <glyph glyph-name="A" unicode="A" horiz-adv-x="1339" 
d="M1217 -13h-143l-157 428h-574l-157 -428h-142l533 1412h114zM872 537q-231 633 -242 669q-9 -33 -18 -53l-223 -616h483z" />
    <glyph glyph-name="B" unicode="B" horiz-adv-x="1125" 
d="M546 -13h-387v1412h380q165 0 268.5 -94t103.5 -243q0 -111 -52 -195.5t-151 -132.5q114 -26 181 -99q88 -96 88 -237q0 -180 -117 -295.5t-314 -115.5zM464 778q142 0 229 73q84 70 84 195q0 231 -276 231h-212v-499h175zM527 108q155 0 236 73t81 208q0 268 -370 268
h-185v-549h238z" />
    <glyph glyph-name="C" unicode="C" horiz-adv-x="1309" 
d="M744 -37q-293 0 -474.5 194.5t-181.5 507.5q0 343 198 550t503 207q156 0 321 -57v-138q-163 74 -323 74q-251 0 -409 -170.5t-158 -456.5q0 -275 151 -432t381 -157q188 0 358 84v-132q-178 -74 -366 -74z" />
    <glyph glyph-name="D" unicode="D" horiz-adv-x="1399" 
d="M504 -13h-342v1412h362q353 0 535.5 -175t182.5 -512q0 -319 -197 -524q-197 -201 -541 -201zM491 108q301 0 459 153.5t158 446.5q0 569 -598 569h-218v-1169h199z" />
    <glyph glyph-name="E" unicode="E" horiz-adv-x="1048" 
d="M868 -13h-710v1412h678v-122h-548v-518h509v-121h-509v-530h580v-121z" />
    <glyph glyph-name="F" unicode="F" horiz-adv-x="972" 
d="M288 -13h-130v1412h678v-122h-548v-528h509v-121h-509v-641z" />
    <glyph glyph-name="G" unicode="G" horiz-adv-x="1395" 
d="M735 -37q-288 0 -469 196q-177 196 -177 513t191 534q193 216 514 216q188 0 370 -79v-143q-211 101 -384 101q-251 0 -405 -172t-154 -442q0 -284 143.5 -443t388.5 -159q167 0 309 73v427h-325v121h455v-617q-225 -126 -457 -126z" />
    <glyph glyph-name="H" unicode="H" horiz-adv-x="1395" 
d="M1174 -13h-129v660h-754v-660h-130v1412h130v-631h754v631h129v-1412z" />
    <glyph glyph-name="I" unicode="I" horiz-adv-x="472" 
d="M414 -13h-398v121h134v1170h-134v121h398v-121h-134v-1170h134v-121z" />
    <glyph glyph-name="J" unicode="J" horiz-adv-x="679" 
d="M115 -37q-63 0 -122 18v128q75 -24 124 -24q124 0 178.5 97t54.5 298v919h128v-921q0 -515 -363 -515z" />
    <glyph glyph-name="K" unicode="K" horiz-adv-x="1089" 
d="M1058 -13h-179l-589 660v-660h-130v1412h130v-621l561 621h170l-619 -685q312 -344 656 -727z" />
    <glyph glyph-name="L" unicode="L" horiz-adv-x="949" 
d="M840 -13h-682v1412h130v-1291h552v-121z" />
    <glyph glyph-name="M" unicode="M" horiz-adv-x="1701" 
d="M1484 -13h-125v995q0 52 4 108l-8 -18q-289 -628 -502 -1085h-52l-508 1090q1 -37 1 -1090h-129v1412h116l518 -1119q0 -2 2 -5q7 -12 9 -20q1 -4 2 -5q2 -8 14 -38l4 -11q8 24 30 84l512 1114h112v-1412z" />
    <glyph glyph-name="N" unicode="N" horiz-adv-x="1444" 
d="M1238 -13h-93q-850 1154 -853 1159v-1159h-130v1412h99l848 -1151q-1 30 -1 1151h130v-1412z" />
    <glyph glyph-name="O" unicode="O" horiz-adv-x="1561" 
d="M747 -37q-300 0 -478 200.5t-178 514.5q0 336 183.5 540t498.5 204q285 0 463 -197t178 -511q0 -341 -182 -550q-189 -201 -485 -201zM745 85q249 0 392.5 160.5t143.5 452.5q0 286 -140.5 444.5t-383.5 158.5q-231 0 -382 -168.5t-151 -443.5q0 -276 143 -442
q141 -162 378 -162z" />
    <glyph glyph-name="P" unicode="P" horiz-adv-x="1134" 
d="M289 -13h-130v1412h350q223 0 338.5 -102t115.5 -302t-131 -328t-363 -128h-180v-552zM468 661q178 0 270.5 84t92.5 239q0 293 -339 293h-203v-616h179z" />
    <glyph glyph-name="Q" unicode="Q" horiz-adv-x="1579" 
d="M1281 -386q-93 1 -166 27q-134 47 -264 183q-61 63 -129 139q-282 4 -459.5 200t-177.5 513q0 340 182 543t500 203q284 0 462 -197.5t178 -514.5q0 -137 -33 -261q-69 -259 -280 -393q-94 -58 -222 -81q71 -71 91 -89q148 -148 328 -148q65 0 119 18q6 3 9.5 4t27.5 13
v-131q-82 -28 -166 -28zM740 85q248 0 391.5 156.5t143.5 446.5q0 293 -140.5 453t-383.5 160q-238 0 -386 -169.5t-148 -440.5t145 -441q144 -165 378 -165z" />
    <glyph glyph-name="R" unicode="R" horiz-adv-x="1147" 
d="M1017 -13h-145l-189 414q-53 118 -107 158.5t-133 40.5h-154v-613h-129v1412h399q190 0 299.5 -102.5t109.5 -273.5q0 -146 -76.5 -245.5t-225.5 -139.5q70 -51 134 -188zM509 721q149 0 240 79q86 77 86 213q0 124 -78.5 194t-226.5 70h-241v-556h220z" />
    <glyph glyph-name="S" unicode="S" horiz-adv-x="1039" 
d="M437 -37q-80 0 -169 21.5t-153 58.5v149q168 -107 317 -107q152 0 231.5 61.5t79.5 174.5q0 101 -51 155q-55 60 -240 169q-216 127 -271 210q-59 90 -59 200q0 149 119 260q126 107 315 107q122 0 263 -47v-138q-143 64 -276 64q-132 0 -211 -69q-76 -65 -76 -166
t51 -157t239 -166q194 -110 261.5 -199.5t67.5 -205.5q0 -167 -114.5 -271t-323.5 -104z" />
    <glyph glyph-name="T" unicode="T" horiz-adv-x="1071" 
d="M566 -13h-128v1290h-398v122h924v-122h-398v-1290z" />
    <glyph glyph-name="U" unicode="U" horiz-adv-x="1359" 
d="M627 -37q-484 0 -484 570v866h129v-852q0 -462 373 -462q360 0 360 448v866h129v-845q0 -591 -507 -591z" />
    <glyph glyph-name="V" unicode="V" horiz-adv-x="1264" 
d="M622 -13h-96l-516 1412h143q414 -1152 426 -1192q10 35 451 1192h139z" />
    <glyph glyph-name="W" unicode="W" horiz-adv-x="1849" 
d="M1324 -13h-106q-311 1052 -322 1097l-344 -1097h-105l-420 1412h144l326 -1147q3 -15 7 -29q5 14 8.5 27.5t353.5 1148.5h75l323 -1147q3 -15 7 -29l327 1176h139z" />
    <glyph glyph-name="X" unicode="X" horiz-adv-x="1165" 
d="M1060 -13h-157l-321 532l-35 80q-46 -79 -374 -612h-155l445 711l-420 701h156l313 -527l38 -68q27 52 348 595h152l-423 -699q387 -639 433 -713z" />
    <glyph glyph-name="Y" unicode="Y" horiz-adv-x="1147" 
d="M584 -13h-129v535q-119 244 -432 877h145q333 -688 355 -743q7 16 16 33q118 230 358 710h143l-456 -876v-536z" />
    <glyph glyph-name="Z" unicode="Z" horiz-adv-x="1183" 
d="M1048 -13h-1002v51l818 1239h-752v122h949v-48l-822 -1243h809v-121z" />
    <glyph glyph-name="bracketleft" unicode="[" horiz-adv-x="917" 
d="M586 -279h-357v2082h357v-110h-240v-1861h240v-111z" />
    <glyph glyph-name="backslash" unicode="\" horiz-adv-x="1278" 
d="M1046 -227l-279 560q-298 596 -660 1326l106 52q84 -172 939 -1882q-39 -23 -51 -26l-13 -8q-20 -9 -42 -22z" />
    <glyph glyph-name="bracketright" unicode="]" horiz-adv-x="922" 
d="M627 -279h-357v111h240v1861h-240v110h357v-2082z" />
    <glyph glyph-name="asciicircum" unicode="^" horiz-adv-x="1309" 
d="M1039 649h-128l-282 562q-70 -139 -142.5 -281.5t-140.5 -280.5h-129l381 749h60z" />
    <glyph glyph-name="underscore" unicode="_" horiz-adv-x="859" 
d="M820 -267h-837v119h837v-119z" />
    <glyph glyph-name="grave" unicode="`" horiz-adv-x="592" 
d="M408 1109h-127l-260 343h141z" />
    <glyph glyph-name="a" unicode="a" horiz-adv-x="1026" 
d="M400 -37q-145 0 -230 81q-85 84 -85 209q0 268 349 323l284 42q-9 280 -217 280q-152 0 -328 -147v148q57 46 156.5 79t179.5 33q159 0 244.5 -95.5t85.5 -283.5v-646h-121v152q-55 -85 -137 -130t-181 -45zM410 76q131 0 219.5 98t88.5 255v75l-248 -36
q-150 -23 -204.5 -67t-54.5 -144q0 -80 52 -130.5t147 -50.5z" />
    <glyph glyph-name="b" unicode="b" horiz-adv-x="1170" 
d="M572 -37q-198 0 -308 157v-134h-121v1466h121v-625q60 93 150.5 138.5t198.5 45.5q190 0 299 -133t109 -356q0 -249 -125 -404t-324 -155zM580 76q138 0 226 119q90 129 90 325q0 176 -80 277t-215 101q-163 0 -248 -107q-89 -110 -89 -256v-122q0 -139 87.5 -238
t228.5 -99z" />
    <glyph glyph-name="c" unicode="c" horiz-adv-x="936" 
d="M525 -37q-205 0 -330.5 141.5t-125.5 365.5q0 236 140.5 388.5t362.5 152.5q113 0 231 -51v-140q-126 78 -245 78q-160 0 -262 -118.5t-102 -303.5q0 -182 93 -291t242 -109q140 0 270 95v-135q-118 -73 -274 -73z" />
    <glyph glyph-name="d" unicode="d" horiz-adv-x="1165" 
d="M492 -37q-187 0 -304 135t-117 372q0 244 127 390q128 151 333 151q194 0 297 -142v583h121v-1466h-121v139q-57 -78 -144 -120t-192 -42zM498 76q156 0 242 96q88 100 88 239v181q0 129 -81 217.5t-218 88.5q-144 0 -238.5 -111.5t-94.5 -308.5q0 -188 85 -300
q86 -102 217 -102z" />
    <glyph glyph-name="e" unicode="e" horiz-adv-x="1071" 
d="M505 -37q-196 0 -315 138.5t-119 391.5q0 108 31 200.5t92 165.5q63 72 146.5 112t180.5 40q190 0 290 -132.5t100 -356.5v-56h-716q6 -182 88 -284q87 -106 240 -106q158 0 335 138v-137q-162 -114 -353 -114zM785 580q-11 155 -80 236.5t-188 81.5q-123 0 -205.5 -80
t-109.5 -238h583z" />
    <glyph glyph-name="f" unicode="f" horiz-adv-x="580" 
d="M308 -14h-121v888h-174v114h174v151q0 159 82 244t204 85q62 0 119 -24v-136q-57 46 -122 46q-162 0 -162 -223v-143h256v-114h-256v-888z" />
    <glyph glyph-name="g" unicode="g" horiz-adv-x="1161" 
d="M442 -468q-149 0 -305 79v132q172 -98 307 -98q384 0 384 407v74q-121 -163 -336 -163q-188 0 -304.5 134.5t-116.5 372.5q0 236 126.5 388.5t333.5 152.5q192 0 297 -141v118h121v-913q0 -279 -123.5 -411t-383.5 -132zM504 76q148 0 236 95t88 237v191q0 123 -81.5 211
t-213.5 88q-151 0 -244 -114.5t-93 -305.5q0 -187 85 -299q85 -103 223 -103z" />
    <glyph glyph-name="h" unicode="h" horiz-adv-x="1116" 
d="M920 -14h-121v597q0 162 -58 238.5t-182 76.5q-117 0 -206.5 -92.5t-89.5 -266.5v-553h-121v1466h121v-604q118 163 319 163q165 0 251.5 -104t86.5 -304v-617z" />
    <glyph glyph-name="i" unicode="i" horiz-adv-x="441" 
d="M192 1197q-35 0 -62 25t-27 66q0 39 27.5 63t61.5 24q37 0 63.5 -24t26.5 -63q0 -37 -27 -64t-63 -27zM253 -14h-121v1002h121v-1002z" />
    <glyph glyph-name="j" unicode="j" horiz-adv-x="432" 
d="M186 1197q-35 0 -62 25.5t-27 65.5q0 39 27.5 63t61.5 24q37 0 64 -24t27 -63q0 -36 -27.5 -63.5t-63.5 -27.5zM-111 -468q-75 0 -155 40v130q96 -57 164 -57q229 0 229 370v973h121v-957q0 -499 -359 -499z" />
    <glyph glyph-name="k" unicode="k" horiz-adv-x="931" 
d="M878 -14h-174l-442 457v-457h-121v1466h121v-901l418 437h160l-475 -486z" />
    <glyph glyph-name="l" unicode="l" horiz-adv-x="414" 
d="M253 -14h-121v1466h121v-1466z" />
    <glyph glyph-name="m" unicode="m" horiz-adv-x="1710" 
d="M1484 -14h-121v599q0 177 -55 247q-50 66 -166 66q-108 0 -184 -92q-80 -95 -80 -236v-584h-121v606q0 306 -228 306q-111 0 -184.5 -94t-73.5 -243v-575h-121v1002h121v-126q106 149 282 149q204 0 285 -198q116 198 311 198q335 0 335 -410v-615z" />
    <glyph glyph-name="n" unicode="n" horiz-adv-x="1107" 
d="M920 -14h-121v580q0 332 -234 332q-128 0 -216 -96q-86 -105 -86 -243v-573h-121v1002h121v-140q111 163 317 163q165 0 252.5 -107.5t87.5 -311.5v-606z" />
    <glyph glyph-name="o" unicode="o" horiz-adv-x="1165" 
d="M547 -37q-218 0 -346.5 144.5t-128.5 373.5q0 246 133 389q141 141 353 141q215 0 339.5 -141.5t124.5 -384.5q0 -232 -126.5 -377t-348.5 -145zM550 76q168 0 257.5 108t89.5 303q0 200 -91 307q-85 104 -252 104q-164 0 -260 -110q-97 -107 -97 -309q0 -181 95 -292
t258 -111z" />
    <glyph glyph-name="p" unicode="p" horiz-adv-x="1179" 
d="M264 -459h-121v1447h121v-161q60 93 150.5 138.5t198.5 45.5q190 0 299 -133t109 -356q0 -249 -122.5 -404t-326.5 -155q-198 0 -308 157v-579zM580 76q138 0 226 119q90 129 90 325q0 176 -80 277t-215 101q-163 0 -248 -107q-89 -110 -89 -256v-122q0 -139 87.5 -238
t228.5 -99z" />
    <glyph glyph-name="q" unicode="q" horiz-adv-x="1179" 
d="M949 -459h-121v587q-116 -165 -337 -165q-189 0 -306 140q-114 136 -114 369q0 245 130 392t332 147q194 0 295 -143v120h121v-1447zM496 76q161 0 245 97q87 100 87 244v166q0 139 -79 227t-222 88q-142 0 -236.5 -111.5t-94.5 -310.5q0 -189 83.5 -294.5t216.5 -105.5z
" />
    <glyph glyph-name="r" unicode="r" horiz-adv-x="702" 
d="M256 -14h-119v1002h119l-11 -177q42 97 111.5 146.5t157.5 49.5q60 0 114 -22v-140q-64 49 -119 49q-104 0 -177 -109q-76 -115 -76 -327v-472z" />
    <glyph glyph-name="s" unicode="s" horiz-adv-x="787" 
d="M338 -37q-147 0 -251 73v152q133 -112 257 -112q211 0 211 169q0 56 -43 96q-47 43 -159 91q-144 63 -201 129q-61 68 -61 170q0 126 95.5 203t234.5 77q129 0 230 -58v-140q-128 85 -240 85q-88 0 -141.5 -45.5t-53.5 -116.5q0 -60 32 -100q39 -43 157 -95
q155 -70 211 -129q64 -63 64 -167q0 -123 -93 -204q-88 -78 -249 -78z" />
    <glyph glyph-name="t" unicode="t" horiz-adv-x="625" 
d="M407 -33q-232 0 -232 274v633h-174v114h174v242q38 20 73 29l48 12v-283h255v-114h-255v-621q0 -90 28 -131.5t94 -41.5q50 0 133 47v-121q-84 -39 -144 -39z" />
    <glyph glyph-name="u" unicode="u" horiz-adv-x="1111" 
d="M481 -37q-360 0 -360 448v577h122v-555q0 -185 61 -271t190 -86q128 0 205 93q81 97 81 254v565h121v-1002h-121v138q-114 -161 -299 -161z" />
    <glyph glyph-name="v" unicode="v" horiz-adv-x="936" 
d="M479 -14h-102l-387 1002h134q292 -781 307 -824q4 12 7 22t7 19q74 191 150.5 391t150.5 392h132z" />
    <glyph glyph-name="w" unicode="w" horiz-adv-x="1395" 
d="M992 -14h-108l-217 752l-243 -752h-107l-302 1002h133l231 -795l2 6q2 10 251 789h85l219 -776q-2 7 -3 7q-2 0 -2 -8l3 -38l242 815h127z" />
    <glyph glyph-name="x" unicode="x" horiz-adv-x="868" 
d="M792 -14h-152l-247 396q-6 -8 -11 -17q-15 -23 -16 -23q-4 -9 -12 -18q-53 -81 -109 -169t-109 -169h-147l335 492l-328 510h143q240 -388 257 -417q18 32 266 417h143l-340 -510q56 -86 164 -247q68 -101 163 -245z" />
    <glyph glyph-name="y" unicode="y" horiz-adv-x="954" 
d="M105 -468q-45 0 -93 19v121q50 -19 97 -19q101 0 167 150l86 209l-372 976h134q283 -763 304 -827l324 827h132l-481 -1188q-53 -131 -120 -198q-72 -70 -178 -70z" />
    <glyph glyph-name="z" unicode="z" horiz-adv-x="949" 
d="M838 -14h-800v56l626 832h-579v114h777v-47l-631 -841h607v-114z" />
    <glyph glyph-name="braceleft" unicode="{" horiz-adv-x="1078" 
d="M714 -269q-133 0 -222 73q-53 40 -83 103.5t-35 138.5q2 44 21 125q15 67 46 155q45 135 45 166v24q0 99 -47 141q-49 36 -105 36q-39 0 -72 -11q-26 -8 -69 -8v190q7 -2 15 -3q29 -4 36 -9q2 -2 15 -3q21 -7 72 -7q78 0 140 45q69 57 69 165q0 79 -56 219
q-23 65 -37 112q-19 59 -19 123q0 152 94 232q80 68 185 68q38 0 88 -8l-23 -118l-56 3q-165 0 -165 -181v-15q0 -54 48 -170q59 -159 64 -284q-6 -72 -36.5 -136.5t-76.5 -104.5q-2 -1 -9 -5t-9.5 -6t-6 -4t-9 -5.5t-15.5 -8.5q12 -10 20 -15q89 -89 89 -233
q0 -92 -56 -232q-58 -145 -58 -232q8 -101 70 -155l-1 2q58 -46 139 -46q20 0 59 3l27 -118q-53 -6 -76 -6z" />
    <glyph glyph-name="bar" unicode="|" horiz-adv-x="843" 
d="M615 240h-120v1088h120v-1088z" />
    <glyph glyph-name="braceright" unicode="}" horiz-adv-x="1074" 
d="M362 -269q-23 0 -76 6l27 118q39 -3 59 -3q81 0 139 46l-1 -2q30 26 48 66q22 48 22 97q0 79 -58 224q-56 140 -56 232q0 144 89 233q8 5 20 15q-10 5 -15.5 8.5t-9 5.5t-6 4t-9.5 6t-9 5q-46 40 -76.5 104.5t-36.5 136.5q5 125 64 284q44 106 47 155q1 6 1 30
q0 98 -48 143q-47 38 -109 38q-12 0 -18.5 -0.5t-17.5 -1t-28 -1.5l-23 118q50 8 88 8q105 0 185 -68q94 -80 94 -232q0 -20 -2 -36q0 -46 -54 -199q-56 -140 -56 -219q0 -108 70 -165q61 -45 139 -45q49 0 73 7q12 1 15 3q7 5 36 9l14 3v-190h-22q-19 0 -47 8
q-33 11 -72 11q-56 0 -105 -36q-47 -42 -47 -141q0 -30 2 -35q3 -35 43 -155q62 -177 67 -280q-5 -75 -35 -138.5t-83 -103.5q-89 -73 -222 -73z" />
    <glyph glyph-name="asciitilde" unicode="~" horiz-adv-x="1345" 
d="M813 429q-95 0 -201 83q-94 76 -156 76q-116 0 -128 -149h-107q7 131 69 196.5t168 65.5q97 0 196 -78q64 -51 95.5 -66.5t66.5 -15.5q111 0 129 151h107q-8 -131 -71.5 -197t-167.5 -66z" />
    <glyph glyph-name="exclamdown" unicode="&#xa1;" horiz-adv-x="576" 
d="M273 819q-40 0 -67 25t-27 67q0 40 27 67t67 27t66.5 -27t26.5 -67q0 -42 -26.5 -67t-66.5 -25zM342 -399h-134l9 1008h116z" />
    <glyph glyph-name="cent" unicode="&#xa2;" horiz-adv-x="1102" 
d="M664 -68h-120v189q-184 24 -289 153q-112 136 -112 350q0 204 111 355q107 138 290 178v191h120v-184q111 -4 213 -50v-140q-102 65 -213 76v-814q115 17 209 90v-135q-86 -54 -209 -70v-189zM544 237v804q-127 -32 -196 -132q-80 -111 -80 -278q0 -159 78 -274
q73 -94 198 -120z" />
    <glyph glyph-name="sterling" unicode="&#xa3;" horiz-adv-x="1104" 
d="M915 -14h-854v110q234 97 234 333v183h-215v119h215v257q0 185 98 297.5t261 112.5q93 0 189 -39v-129q-112 54 -192 54q-112 0 -173.5 -79t-61.5 -229v-245h290v-119h-290v-151q0 -234 -166 -361h665v-114z" />
    <glyph glyph-name="currency" unicode="&#xa4;" horiz-adv-x="1165" 
d="M893 257l-129 128q-103 -76 -227 -76q-125 0 -227 76l-128 -128l-82 82l132 125q-74 111 -74 224q0 127 74 226q-32 33 -67 66t-64 61l81 81l129 -130q109 75 226 75q125 0 225 -75q103 103 131 130l80 -81l-131 -127q74 -99 74 -226q0 -123 -73 -225l131 -124zM537 423
q109 0 187 78.5t78 188.5q0 111 -80 187.5t-183 76.5q-112 0 -190 -79t-78 -185t79.5 -186.5t186.5 -80.5z" />
    <glyph glyph-name="yen" unicode="&#xa5;" horiz-adv-x="1089" 
d="M553 -14h-120v314h-352v113h352v199h-352v112h312l-179 328q-81 146 -177 323h134q318 -592 325 -607q15 40 31 63q71 132 148.5 271t150.5 273h128l-362 -651h314v-112h-353v-199h353v-113h-353v-314z" />
    <glyph glyph-name="brokenbar" unicode="&#xa6;" horiz-adv-x="459" 
d="M275 662h-123v839h123v-839zM275 -468h-123v839h123v-839z" />
    <glyph glyph-name="section" unicode="&#xa7;" horiz-adv-x="940" 
d="M373 -76q-108 0 -222 54v131q136 -72 223 -72q94 0 143 43.5t49 112.5q0 45 -27 87q-23 38 -125 90q-170 83 -221.5 158t-51.5 172q0 153 140 243q-103 87 -103 205q0 127 82 203q86 78 227 78q106 0 201 -42v-130q-101 58 -203 58q-182 0 -182 -160q0 -67 46 -112
q50 -48 196 -113q203 -94 203 -279q0 -146 -137 -268q81 -76 81 -188q0 -120 -90 -194q-86 -77 -229 -77zM514 454q51 39 80 84.5t29 112.5q0 69 -41 111q-42 49 -197 116q-119 -58 -119 -173q0 -86 49 -134q52 -52 199 -117z" />
    <glyph glyph-name="dieresis" unicode="&#xa8;" horiz-adv-x="850" 
d="M543 1109q-33 0 -58.5 23.5t-25.5 61.5t25.5 60t56.5 22q34 0 61.5 -24t27.5 -58q0 -38 -25 -61.5t-62 -23.5zM228 1109q-33 0 -59 22.5t-26 62.5q0 38 26 60t57 22q36 0 62 -24t26 -58q0 -38 -24.5 -61.5t-61.5 -23.5z" />
    <glyph glyph-name="copyright" unicode="&#xa9;" horiz-adv-x="1827" 
d="M866 -37q-298 0 -512 209q-210 210 -210 507q0 299 212.5 509t507.5 210q297 0 510.5 -210.5t213.5 -506.5q0 -297 -211.5 -507.5t-510.5 -210.5zM864 69q256 0 435 179t179 431t-180.5 432.5t-433.5 180.5q-249 0 -430 -181t-181 -432q0 -246 179 -431
q185 -179 432 -179zM894 174q-204 0 -345 138.5t-141 342.5q0 239 144 381t357 142q124 0 234 -57v-121q-124 66 -249 66q-154 0 -259.5 -106.5t-105.5 -284.5q0 -175 109 -281t265 -106q120 0 244 77v-116q-129 -75 -253 -75z" />
    <glyph glyph-name="ordfeminine" unicode="&#xaa;" horiz-adv-x="769" 
d="M281 648q-108 0 -168 60.5t-60 147.5q0 101 67.5 161t189.5 79l197 30q-7 158 -139 158q-122 0 -257 -105v136q135 79 264 79q252 0 252 -276v-454h-120v97q-82 -113 -226 -113zM298 757q82 0 144 73q65 72 65 166v24l-158 -24q-107 -18 -141 -44.5t-34 -91.5
q0 -46 32.5 -74.5t91.5 -28.5z" />
    <glyph glyph-name="guillemotleft" unicode="&#xab;" horiz-adv-x="968" 
d="M818 176h-150l-276 335l276 342h151l-281 -342q31 -38 67.5 -81.5t74 -87.5t73 -87t65.5 -79zM518 176h-151l-274 335l274 342h150l-278 -342z" />
    <glyph glyph-name="logicalnot" unicode="&#xac;" horiz-adv-x="1359" 
d="M1082 125h-115v386h-776v113h891v-499z" />
    <glyph glyph-name="softhyphen" unicode="&#xad;" horiz-adv-x="832" 
d="M671 1246h-551v119h551v-119z" />
    <glyph glyph-name="registered" unicode="&#xae;" horiz-adv-x="1804" 
d="M866 -37q-298 0 -512 209q-210 210 -210 507q0 299 212.5 509t507.5 210q297 0 510.5 -210.5t213.5 -506.5q0 -297 -211.5 -507.5t-510.5 -210.5zM864 69q256 0 435 179t179 431t-180.5 432.5t-433.5 180.5q-249 0 -430 -181t-181 -432q0 -246 179 -431
q185 -179 432 -179zM1230 215h-136l-113 243q-23 48 -45 81q-54 80 -131 80h-94v-404h-121v946h267q158 0 242 -69q88 -73 88 -187q0 -200 -207 -260q61 -38 119 -154zM878 720q86 0 136 47.5t50 121.5q0 171 -209 171h-144v-340h167z" />
    <glyph glyph-name="macron" unicode="&#xaf;" horiz-adv-x="859" 
d="M671 1246h-551v119h551v-119z" />
    <glyph glyph-name="degree" unicode="&#xb0;" horiz-adv-x="810" 
d="M374 865q-105 0 -181 75q-76 78 -76 182q0 102 75.5 177.5t178.5 75.5q106 0 181 -75t75 -178q0 -108 -74.5 -182.5t-178.5 -74.5zM371 971q58 0 100.5 43.5t42.5 107.5q0 63 -41.5 105t-98.5 42q-59 0 -102 -43.5t-43 -103.5q0 -62 42 -106.5t100 -44.5z" />
    <glyph glyph-name="plusminus" unicode="&#xb1;" horiz-adv-x="1318" 
d="M694 195h-114v389h-389v114h389v388h114v-388h388v-114h-388v-389zM1082 -14h-891v114h891v-114z" />
    <glyph glyph-name="twosuperior" unicode="&#xb2;" horiz-adv-x="697" 
d="M578 538h-524v118l231 226q105 104 140 163q30 52 30 110q0 127 -132 127q-100 0 -226 -113v144q119 81 231 81q116 0 182 -62.5t66 -165.5q0 -36 -11 -75t-36.5 -82.5t-66 -93.5t-98.5 -108q-38 -37 -78 -74.5t-79 -75.5h371v-119z" />
    <glyph glyph-name="threesuperior" unicode="&#xb3;" horiz-adv-x="697" 
d="M263 514q-105 0 -200 52v131q120 -73 202 -73q78 0 121 39.5t43 105.5q0 142 -205 142h-83v110h75q186 0 186 145q0 113 -128 113q-63 0 -179 -62v124q100 49 196 49q106 0 167.5 -58t61.5 -154q0 -143 -115 -204q139 -52 139 -205q0 -113 -73 -182q-77 -73 -208 -73z
" />
    <glyph glyph-name="acute" unicode="&#xb4;" horiz-adv-x="522" 
d="M209 1109h-127l246 343h141z" />
    <glyph glyph-name="mu" unicode="&#xb5;" horiz-adv-x="1116" 
d="M263 -383h-121v1371h121v-555q0 -187 61.5 -272t190.5 -85q130 0 205 93q79 95 79 254v565h121v-1002h-121v137q-111 -160 -298 -160q-154 0 -238 93v-439z" />
    <glyph glyph-name="mu" unicode="&#x3bc;" horiz-adv-x="1116" 
d="M263 -383h-121v1371h121v-555q0 -187 61.5 -272t190.5 -85q130 0 205 93q79 95 79 254v565h121v-1002h-121v137q-111 -160 -298 -160q-154 0 -238 93v-439z" />
    <glyph glyph-name="paragraph" unicode="&#xb6;" horiz-adv-x="972" 
d="M711 -14h-115v1274h-153v-1274h-116v854q-97 7 -164 76q-71 79 -71 190q0 122 77 195.5t181 73.5h485v-115h-124v-1274z" />
    <glyph glyph-name="periodcentered" unicode="&#xb7;" horiz-adv-x="526" 
d="M224 594q-34 0 -59.5 22.5t-25.5 62.5q0 38 25.5 60t57.5 22q35 0 61.5 -23.5t26.5 -58.5q0 -38 -24.5 -61.5t-61.5 -23.5z" />
    <glyph glyph-name="cedilla" unicode="&#xb8;" horiz-adv-x="432" 
d="M124 -424q-28 0 -93 5v105q59 -8 99 -8q134 0 134 70q0 65 -120 65q-18 0 -78 -4v211h102v-110q213 -9 213 -156q0 -178 -257 -178z" />
    <glyph glyph-name="onesuperior" unicode="&#xb9;" horiz-adv-x="688" 
d="M582 538h-479v111h184v605l-197 -66v118l313 101v-758h179v-111z" />
    <glyph glyph-name="ordmasculine" unicode="&#xba;" horiz-adv-x="850" 
d="M397 644q-157 0 -251.5 105.5t-94.5 267.5q0 176 97.5 276.5t253.5 100.5t248 -102t92 -273q0 -162 -92.5 -268.5t-252.5 -106.5zM399 755q104 0 161.5 71t57.5 195q0 123 -58 195q-55 68 -160 68q-102 0 -164 -72.5t-62 -196.5q0 -120 62 -190t163 -70z" />
    <glyph glyph-name="guillemotright" unicode="&#xbb;" horiz-adv-x="996" 
d="M519 176h-152l282 342q-68 82 -282 335h152l275 -335zM221 176h-155l283 342l-283 335h153l274 -335z" />
    <glyph glyph-name="onequarter" unicode="&#xbc;" horiz-adv-x="1525" 
d="M594 538h-479v111h184v605l-197 -66v118l313 101v-758h179v-111zM426 -14h-132l835 1389h130zM1310 -14h-111v207h-372v83l372 547h111v-522h104v-108h-104v-207zM1199 301v341l-227 -341h227z" />
    <glyph glyph-name="onehalf" unicode="&#xbd;" horiz-adv-x="1620" 
d="M595 538h-479v111h184v605l-197 -66v118l313 101v-758h179v-111zM427 -14h-132l835 1389h130zM1485 -14h-523v118l231 226q95 95 134 160q35 59 35 113q0 128 -132 128q-99 0 -226 -113v144q118 80 232 80q116 0 181.5 -62t65.5 -165q0 -81 -42 -155q-49 -86 -170 -203
l-155 -152h369v-119z" />
    <glyph glyph-name="threequarters" unicode="&#xbe;" horiz-adv-x="1534" 
d="M275 514q-105 0 -199 52v131q119 -73 201 -73q78 0 121.5 39.5t43.5 105.5q0 142 -205 142h-84v110h75q186 0 186 145q0 113 -127 113q-62 0 -180 -62v124q100 49 197 49q105 0 166.5 -58t61.5 -154q0 -143 -114 -204q139 -52 139 -205q0 -112 -74 -182q-77 -73 -208 -73
zM426 -14h-133l835 1389h131zM1310 -14h-112v207h-371v83l371 547h112v-522h104v-108h-104v-207zM1198 301v341q-13 -21 -226 -341h226z" />
    <glyph glyph-name="questiondown" unicode="&#xbf;" horiz-adv-x="904" 
d="M465 -424q-152 0 -246 83q-98 86 -98 232q0 99 56 189q33 54 121 139q103 99 127 133q32 45 32 104q0 38 -11.5 89.5t-17.5 66.5h112q7 -20 17.5 -69.5t10.5 -85.5q0 -87 -45 -157q-34 -52 -122 -129q-72 -65 -106 -115q-50 -73 -50 -156q0 -94 61 -149.5t160 -55.5
q85 0 156 31q78 32 166 104v-145q-143 -109 -323 -109zM495 819q-41 0 -68 25t-27 67q0 40 27 67t68 27q40 0 65.5 -27t25.5 -67q0 -42 -25.5 -67t-65.5 -25z" />
    <glyph glyph-name="multiply" unicode="&#xd7;" horiz-adv-x="1354" 
d="M946 171l-315 318l-316 -318l-80 80l316 315l-316 318l80 79l316 -316q37 38 315 316l80 -79l-316 -318l316 -315z" />
    <glyph glyph-name="divide" unicode="&#xf7;" horiz-adv-x="1318" 
d="M638 804q-36 0 -63.5 27.5t-27.5 63.5q0 38 27 63.5t64 25.5q38 0 63 -25.5t25 -63.5q0 -37 -25 -64t-63 -27zM1082 511h-891v113h891v-113zM638 151q-37 0 -64 27t-27 63q0 38 27 63.5t64 25.5q38 0 63 -25.5t25 -63.5q0 -37 -25 -63.5t-63 -26.5z" />
    <glyph glyph-name="florin" unicode="&#x192;" horiz-adv-x="1053" 
d="M176 -277q-41 0 -84 18v112q61 -19 81 -19q151 0 189 291l89 653h-96v111h111l31 204q20 135 98 210q75 72 191 72q38 0 94 -14v-119q-54 22 -82 22q-148 0 -179 -175q-7 -54 -14 -99.5t-14 -100.5h160v-111h-175l-92 -651q-32 -218 -105 -307q-79 -97 -203 -97z" />
    <glyph glyph-name="circumflex" unicode="&#x2c6;" horiz-adv-x="760" 
d="M600 1109h-122l-139 211q-35 -52 -72 -106.5t-70 -104.5h-117l230 351h61z" />
    <glyph glyph-name="caron" unicode="&#x2c7;" horiz-adv-x="787" 
d="M387 1109h-60l-230 351h121l141 -213q35 53 71.5 107.5t69.5 105.5h119z" />
    <glyph glyph-name="ring" unicode="&#x2da;" horiz-adv-x="603" 
d="M277 1109q-87 0 -147 51.5t-60 138.5q0 83 60 137q56 54 147 54q89 0 148 -52.5t59 -138.5q0 -83 -61 -138q-61 -52 -146 -52zM277 1206q47 0 76 26t29 67q0 46 -30.5 70t-74.5 24q-46 0 -74.5 -26t-28.5 -68t29.5 -67.5t73.5 -25.5z" />
    <glyph glyph-name="tilde" unicode="&#x2dc;" horiz-adv-x="702" 
d="M122 1109h-102q0 117 49.5 179.5t133.5 62.5q75 0 162 -71q60 -52 100 -52q31 0 52 38.5t21 98.5h104q0 -121 -50 -182q-56 -63 -136 -63q-68 0 -154 76q-56 48 -101 48q-79 0 -79 -135z" />
    <glyph glyph-name="uni0950" unicode="&#x950;" horiz-adv-x="2460" 
d="M1005 23q-252 0 -445 170q-34 25 -72 67q-219 238 -335 626l111 34q88 -285 236 -491q78 -102 133 -147q167 -143 366 -143q27 0 59 3q131 12 206 114q59 77 59 153q0 30 -15 82t-52 98q-111 -60 -258 -60q-30 0 -74 4l12 117q40 -5 68 -5q29 0 60 4q218 28 268 199
q13 50 13 91q0 90 -53 178q-75 129 -249 168q-29 4 -61 4q-111 0 -196 -66q-37 -29 -56 -90q-11 -37 -11 -59q0 -82 48 -121v11q0 63 44 106.5t106 43.5t106 -43.5t44 -106.5t-44 -107q-27 -30 -53 -40q-49 -23 -99 -23q-58 0 -116 29q-113 60 -136 160q-15 39 -15 89
q0 96 52.5 177.5t165.5 126.5q75 29 150 29q63 0 96 -6q219 -52 324 -223q66 -114 66 -245q0 -152 -88 -254q78 15 143 97q42 53 59 100q66 196 213 261q64 29 138 29q86 0 141 -25q148 -63 193 -199q18 -46 18 -105q0 -52 -14 -92q-50 -145 -159 -191q-48 -22 -105 -22
q-121 0 -187 75q-44 50 -44 124q0 39 16 78q49 86 144 93q68 0 112 -43.5t44 -106.5q0 -55 -35 -96l9 4q57 25 95 122q8 35 8 54q0 20 -5 43q-21 105 -137 154q-44 20 -90 20q-172 0 -246 -218q-26 -65 -77 -130q-85 -103 -200 -136q35 -75 35 -157q0 -46 -10 -79
q-4 -50 -71 -142q-122 -166 -353 -166zM1615 1250q-131 0 -226 92q-79 82 -94 220h109q11 -90 64 -140q61 -64 147 -64q84 0 147 63q52 50 64 141h107q-16 -139 -94 -221q-96 -91 -224 -91zM1618 1482q-39 0 -66 27q-30 30 -30 67q0 36 29 66t67 30q36 0 65.5 -29.5
t29.5 -66.5q0 -38 -28 -66t-67 -28z" />
    <glyph glyph-name="uni0964" unicode="&#x964;" horiz-adv-x="1005" 
d="M748 192h-121v1089h121v-1089z" />
    <glyph glyph-name="uni0965" unicode="&#x965;" horiz-adv-x="1148" 
d="M522 192h-120v1089h120v-1089zM910 192h-120v1089h120v-1089z" />
    <glyph glyph-name="uni0981" unicode="&#x981;" 
d="M-511 1690q-132 0 -230 96q-77 80 -93 219h114q9 -89 59 -136q65 -68 150 -68q82 0 149 67q48 43 58 137h113q-18 -141 -98 -227q-91 -88 -222 -88zM-509 1921q-40 0 -68.5 29.5t-28.5 67.5q0 37 30 67t67 30q39 0 68.5 -30t29.5 -67q0 -38 -29.5 -67.5t-68.5 -29.5z" />
    <glyph glyph-name="uni0982" unicode="&#x982;" horiz-adv-x="1127" 
d="M1033 -43l-280 202q-543 388 -687 496l68 90l183 -132q350 -256 791 -570l-26 -27q-19 -31 -49 -59zM638 785q67 0 116 45q48 48 48 117q0 68 -47.5 115t-116.5 47t-115 -46.5t-46 -115.5t47 -117q48 -45 114 -45zM638 669q-116 0 -194 82q-82 81 -82 196q0 114 82 196
q78 80 194 80q115 0 195 -79q85 -82 85 -197q0 -116 -85 -197v2q-82 -83 -195 -83z" />
    <glyph glyph-name="uni0983" unicode="&#x983;" horiz-adv-x="781" 
d="M379 1023q42 0 72.5 30t30.5 71q0 39 -32 71q-34 30 -71 30q-40 0 -77 -32q-31 -30 -31 -69q0 -41 31 -71t77 -30zM379 921q-90 0 -151 60q-61 55 -61 143q0 87 67 148l2 -1q61 56 143 56q87 0 148 -61t61 -142q0 -86 -61 -143q-60 -60 -148 -60zM379 290q44 0 73.5 30
t29.5 70q0 45 -29.5 75t-73.5 30q-45 0 -75 -29q-33 -33 -33 -76q0 -36 30 -67l-3 4q46 -37 81 -37zM379 188q-90 0 -151 60q-61 56 -61 142q0 88 64.5 147.5t147.5 59.5q87 0 148 -59q61 -64 61 -148q0 -80 -61 -143q-61 -59 -148 -59z" />
    <glyph glyph-name="uni0985" unicode="&#x985;" horiz-adv-x="2164" 
d="M1939 -28h-116v509q-121 80 -293 124q-5 -34 -15 -83q-17 -87 -101 -193q-188 -215 -505 -215q-175 0 -356 105q-313 190 -431 656q96 24 111 29q110 -432 388 -593q143 -80 279 -80q272 0 416 162q79 93 94 174q18 95 18 166q0 187 -119 303q-133 128 -290 128
q-9 0 -27 -2q-7 -1 -21.5 -3t-37.5 -7q-41 -6 -91.5 -43.5t-81.5 -104.5q-21 -48 -21 -90q0 -64 45 -112q17 -18 36 -30q-5 20 -5 42q0 67 48 115t115 48q68 0 115.5 -48t47.5 -115q0 -68 -48 -116q-21 -21 -47 -33q-58 -38 -131 -38q-121 0 -215 95q-77 77 -77 201
q0 69 28 127q101 186 265 213q33 10 89 10q59 0 116 -12q130 -24 263 -142q150 -162 156 -396q131 -28 283 -104v780h-1939v111h2358v-111h-303v-1427z" />
    <glyph glyph-name="uni0986" unicode="&#x986;" horiz-adv-x="2588" 
d="M2393 -28h-115v1427h-339v-1427h-116v509q-121 80 -293 124q-5 -34 -15 -83q-17 -87 -101 -193q-188 -215 -505 -215q-175 0 -356 105q-313 190 -431 656q96 24 111 29q110 -432 388 -593q143 -80 279 -80q272 0 416 162q79 93 94 174q18 95 18 166q0 187 -119 303
q-133 128 -290 128q-9 0 -27 -2q-7 -1 -21.5 -3t-37.5 -7q-41 -6 -91.5 -43.5t-81.5 -104.5q-21 -48 -21 -90q0 -64 45 -112q17 -18 36 -30q-5 20 -5 42q0 67 48 115t115 48q68 0 115.5 -48t47.5 -115q0 -68 -48 -116q-21 -21 -47 -33q-58 -38 -131 -38q-121 0 -215 95
q-77 77 -77 201q0 69 28 127q101 186 265 213q33 10 89 10q59 0 116 -12q130 -24 263 -142q150 -162 156 -396q131 -28 283 -104v780h-1939v111h2751v-111h-242v-1427z" />
    <glyph glyph-name="uni0987" unicode="&#x987;" horiz-adv-x="1307" 
d="M1091 -77q-597 276 -990 411l30 106q122 -21 214 -21q173 0 330 67q281 122 281 363q0 111 -53 203q-133 172 -332 172q-84 0 -138 -21q-140 -58 -183 -190q-11 -31 -11 -81q0 -25 3 -46q63 -166 223 -166l24 1q-12 8 -22 19q-44 44 -44 106q0 63 44 106.5t106 43.5
t106 -44q35 -34 42 -81q7 -22 7 -45q0 -135 -155 -202l1 1q-43 -19 -110 -19q-28 0 -59 6q-104 20 -180 96q-54 53 -81 130l-4 4q-12 52 -12 90q0 36 8 72q43 208 258 301q86 30 171 30q266 0 429 -217q73 -113 73 -271q0 -160 -122 -309q-157 -176 -483 -224
q292 -112 679 -291zM1395 1399h-1486v111h1122q26 102 26 162q0 289 -347 359q-74 10 -123 10q-251 -18 -487 -196l-73 84q140 100 282.5 159t295.5 59q60 0 122 -9q269 -47 383 -235q56 -98 56 -228q0 -77 -21 -165h250v-111z" />
    <glyph glyph-name="uni0988" unicode="&#x988;" horiz-adv-x="1533" 
d="M1456 -77h-50q-92 0 -175.5 37t-147.5 101q-37 48 -65 112.5t-41 125.5q-9 79 -9 140q0 161 43 301q-57 -54 -103 -99q-78 -75 -120 -113q-50 -46 -98 -93q-87 -86 -152 -148q-46 -43 -92 -88q-23 -22 -49.5 -47t-53 -50.5t-52.5 -50t-48 -46.5q-58 58 -67 67.5t-11 11.5
l429 415l-1 -2q166 182 188 368q2 8 2 29q0 83 -19 134q-74 161 -211 191q-50 4 -67 4q-34 0 -71 -9q-71 -21 -120 -66q-90 -83 -90 -208q0 -58 49 -130q55 -84 162 -84q34 0 51 3q-28 11 -50 34q-44 44 -44 106t44 106t106 44q63 0 106 -44q54 -57 54 -138q0 -20 -4 -39
q-25 -117 -159 -166q-58 -18 -105 -18q-73 0 -147 38q-117 62 -168 214v13q-6 26 -6 64q0 85 38 169q72 149 254 210q50 13 99 13q68 0 139 -28q154 -52 242 -236q30 -66 30 -151q0 -75 -17 -151q338 324 474 458l83 -75l-179 -173q-83 -102 -131 -237t-48 -290
q0 -79 7 -144q17 -91 66 -156q91 -121 255 -121h36zM1606 1399h-1700v111h1242q25 95 25 162q0 291 -347 359q-74 10 -122 10q-252 -18 -488 -196l-73 84q138 99 281.5 158.5t297.5 59.5q67 0 121 -9q269 -47 383 -235q57 -97 57 -228q0 -73 -22 -165h345v-111z" />
    <glyph glyph-name="uni0989" unicode="&#x989;" horiz-adv-x="1657" 
d="M1001 24q-165 0 -362 119q-322 173 -556 782l98 53q118 -320 255 -495q141 -180 258 -242q175 -104 306 -104q126 0 215 98q47 51 71 119q31 103 48 215.5t17 273.5q-282 -109 -414 -126q-43 -10 -85 -10q-96 0 -141 63q-29 41 -29 100q0 91 82 231q100 156 260 298
h-1134v111h1325q25 98 25 162q0 197 -164 293q-79 45 -182 66q-74 10 -123 10q-252 -18 -488 -196l-72 84q300 218 578 218q60 0 122 -9q268 -47 382 -235q57 -97 57 -228q0 -73 -22 -165h437v-111h-544q-38 -29 -65 -46q-187 -137 -296 -310q-67 -120 -67 -169
q0 -54 58 -54q38 0 70 8q187 26 454 148q13 4 25 11l4 2l47 25l7 -84q8 -74 8 -146q0 -218 -71 -463q-56 -193 -249 -272q-75 -25 -145 -25z" />
    <glyph glyph-name="uni098A" unicode="&#x98a;" horiz-adv-x="1786" 
d="M1128 30q-142 0 -326 95q-158 79 -235 141q-133 104 -186 174q-12 14 -20 22q-5 5 -12.5 15t-20.5 25q-44 51 -108 147q-18 26 -91 164l99 56l62 -123q38 -73 92 -155q51 -74 78 -105q80 -94 179 -170q-117 124 -177 244q-4 7 -7 10q-14 28 -22 42q-47 88 -79 165
q-13 27 -61 180l119 39q43 -187 58 -229.5t31 -75.5q40 -89 57 -120q20 -35 77 -116q194 -279 496 -312q60 0 100 19q137 52 185 198q64 216 64 485q-257 -99 -415 -127q-24 -7 -80 -7q-51 0 -88 17q-91 40 -91 146q0 90 82 230q100 148 265 295h-1216v111h1351
q25 85 25 162q0 197 -164 293q-79 45 -182 66q-74 10 -123 10q-252 -18 -488 -196l-72 84q300 218 578 218q60 0 122 -9q268 -47 382 -235q57 -97 57 -228q0 -77 -22 -165h466v-111h-506q-232 -132 -373 -353q-69 -114 -69 -170q0 -23 10 -37.5t49 -14.5q99 0 271 57
q115 38 333 118q15 -121 15 -211q0 -202 -72 -461q-32 -93 -98 -163.5t-153 -106.5q-75 -27 -146 -27z" />
    <glyph glyph-name="uni098B" unicode="&#x98b;" horiz-adv-x="1767" 
d="M1034 113v1039q-390 -312 -584 -466l-198 -158q115 -95 239 -172q282 -171 543 -243zM1569 -28h-115v511q-136 90 -306 126v-637h-114v22q-291 67 -605 264q-225 138 -351 275l714 580q-33 131 -152 252q-21 -177 -110 -251q-87 -75 -212 -75q-67 0 -129 39
q-50 30 -80 80q-22 44 -22 83l1 15q0 74 44.5 119t108.5 45t109 -45t45 -109t-45 -109q60 7 104 46q71 60 71 185q0 52 -12 112l81 31q34 -13 46 -21q170 -104 251 -319l143 114v269h114v-845q155 -25 306 -106v951h115v-64h253v-111h-253v-1427z" />
    <glyph glyph-name="uni098C" unicode="&#x98c;" horiz-adv-x="1211" 
d="M622 78q-35 0 -80 4q22 74 25 109q17 72 17 125q0 70 -20 123q-32 112 -109 159q-52 25 -82 25q-45 0 -91 -38q47 -7 82 -42q44 -43 44 -106q0 -62 -44 -106t-106 -44t-106 44q-31 30 -40 69q-5 10 -5 42q0 44 12.5 93t62.5 108.5t151 84.5q26 4 45 4q68 0 131 -39
q108 -67 152 -191q33 -84 33 -172q0 -36 -18 -137q206 36 284 187q37 57 37 130q0 34 -12 79q-29 75 -103 148.5t-184 127.5q-149 73 -245 200q-90 129 -90 269q0 40 10 98q4 -2 103 -36q-5 -30 -5 -37q0 -3 0.5 -3.5t0.5 -15.5q0 -141 109 -259q67 -69 165 -117
q283 -136 345 -347q17 -55 17 -110q0 -93 -53 -186q-126 -243 -433 -243z" />
    <glyph glyph-name="uni098F" unicode="&#x98f;" horiz-adv-x="1616" 
d="M1410 -28h-128v25q-76 85 -160.5 137t-157.5 70q-29 6 -83 6q-80 0 -192 -16q-128 -14 -194 -14q-104 11 -191 62.5t-141 142.5q-83 129 -99 320l119 2q10 -119 47 -201q39 -94 111 -147t163 -62q72 0 167 10q129 18 215 18q53 0 99 -8q80 -19 162 -58q77 -41 145 -98
v968q-165 199 -356 233q-45 5 -71 5q-57 0 -102 -15q-179 -63 -231 -224q-19 -52 -19 -117q0 -20 3 -44q56 -189 216 -189q102 0 149 52q-24 -9 -52 -9q-62 0 -106 44t-44 106q0 63 44 106.5t106 43.5q34 0 56 -8q72 -22 101 -70.5t32.5 -78.5t3.5 -50q0 -22 -3 -43
q-24 -140 -157 -192q-54 -17 -121 -17q-103 0 -173 43q-124 66 -167 240q-5 38 -5 71q0 93 40 193q82 178 288 254q66 22 130 22q47 0 103 -10q260 -47 453 -308v-1195z" />
    <glyph glyph-name="uni0990" unicode="&#x990;" horiz-adv-x="1947" 
d="M1409 -28h-128v25q-76 85 -160.5 137t-157.5 70q-29 6 -83 6q-78 0 -192 -16q-128 -14 -194 -14q-104 11 -190.5 62.5t-141.5 142.5q-83 130 -98 320q33 0 117 3q9 -118 48 -202q39 -94 111 -147t163 -62q72 0 167 10q129 18 214 18q54 0 100 -8q76 -18 162 -59
q70 -36 145 -97v968q-165 199 -355 233q-47 5 -70 5q-59 0 -104 -15q-177 -63 -231 -224q-19 -60 -19 -117q0 -20 3 -44q56 -189 217 -189q42 0 89 14q35 15 56 36q-22 -7 -48 -7q-62 0 -106 44t-44 106q0 63 44 106.5t106 43.5q15 0 28 -2q50 -4 96 -44q30 -28 46 -62
q22 -49 22 -99q0 -22 -3 -43q-24 -141 -157 -192q-54 -17 -121 -17q-101 0 -173 43q-124 66 -167 240q-5 38 -5 71q0 91 41 193q77 176 288 254q64 22 129 22q39 0 103 -11q265 -51 453 -307v-389q87 20 148 60q147 96 147 274q0 126 -64 252q-127 247 -397 369q11 23 17 41
q1 4 5.5 14t13.5 32l5 10q254 -114 392 -315q137 -191 137 -407q0 -61 -19.5 -123.5t-49.5 -111.5q-91 -128 -246 -184q-17 -9 -89 -26v-691z" />
    <glyph glyph-name="uni0993" unicode="&#x993;" horiz-adv-x="1597" 
d="M942 59q-252 0 -446 170q-68 52 -153 166q-160 216 -258 538l111 34q89 -294 240 -503q73 -100 133 -147q167 -144 369 -144q28 0 57 3q131 12 208 115q59 81 59 155q0 43 -17 87q-18 57 -50 93q-114 -59 -269 -59q-16 0 -76 4l12 115q51 -6 76 -6q62 0 129 17
q159 44 204 187q10 40 10 80q0 62 -20 123q-64 189 -280 237q-32 6 -66 6q-104 0 -192 -68q-38 -30 -57 -91q-10 -34 -10 -62q0 -29 10 -57l2 -9v5q5 -36 39 -63q-1 10 -1 21q0 63 44 106.5t106 43.5t106 -43.5t44 -106.5q0 -46 -25 -83q-7 -15 -17 -26q-28 -32 -57 -43
q-47 -22 -97 -22q-54 0 -116 30q-116 59 -139 164q-14 42 -14 84q0 52 13 91q28 94 97 150q116 91 283 91q45 0 70 -6q221 -51 325 -223q67 -116 67 -245q0 -160 -108 -275q48 -63 69 -128.5t21 -118.5q0 -43 -12 -78q-12 -65 -71 -143q-120 -166 -353 -166z" />
    <glyph glyph-name="uni0994" unicode="&#x994;" horiz-adv-x="1945" 
d="M946 59q-252 0 -445 170q-72 56 -153 166q-164 221 -258 538l110 34q45 -148 107 -275q249 -519 636 -519q29 0 56 3q131 12 208 115q40 52 52 106q8 26 8 49q0 39 -17 87q-20 57 -50 93q-116 -59 -270 -59q-19 0 -75 4l11 115q51 -6 77 -6q61 0 128 17q159 44 204 187
q11 44 11 80q0 98 -51 191q-74 129 -250 169q-32 6 -66 6q-104 0 -192 -68q-39 -32 -56 -91q-11 -35 -11 -62q0 -70 49 -115v12q0 62 44 106t106 44q63 0 106.5 -44t43.5 -106q0 -61 -41 -109q-59 -65 -154 -65q-54 0 -116 30q-116 59 -139 164q-14 47 -14 84q0 47 13 91
q28 95 98 150q101 80 232 90q11 1 50 1q46 0 71 -6q221 -51 325 -223q66 -114 66 -245q0 -73 -20 -133q211 97 211 305q0 67 -29 167q-14 41 -36 86q-125 246 -396 368q7 15 10 24q11 32 18.5 46.5t11.5 26.5q255 -113 392 -314q137 -192 137 -408q0 -61 -19.5 -123.5
t-49.5 -111.5q-112 -157 -337 -210q46 -57 68 -127q21 -65 21 -118q0 -109 -82 -221q-106 -144 -289 -164q-30 -2 -65 -2z" />
    <glyph glyph-name="uni0995" unicode="&#x995;" horiz-adv-x="1929" 
d="M1149 -28h-115v15q-288 67 -608 263q-230 138 -351 279l586 870h-757v111h2085v-111h-625q323 -141 397 -354q30 -76 30 -176q0 -102 -40 -171q-62 -119 -195 -143q-31 -6 -60 -6q-100 0 -188 65q-79 80 -79 189q0 18 6 55t35.5 79t81.5 64q33 14 70 14q89 0 138 -49
q40 -40 44 -96l1 -15h-1q-2 -59 -45 -102t-105 -43q-54 0 -94 33q30 -80 126 -80q61 0 109 32q80 54 80 170q0 83 -23 139q-52 145 -263 258q-107 54 -240 89v-1379zM1034 105v1294h-232l-577 -857q111 -101 261 -193q274 -170 548 -244z" />
    <glyph glyph-name="uni0996" unicode="&#x996;" horiz-adv-x="1409" 
d="M1196 -28h-116v12q-271 61 -607 266q-229 145 -350 281l572 480q6 38 6 81q-2 109 -68 223q-21 -133 -103 -202q-97 -77 -217 -77q-12 0 -21 1q-126 12 -187 117q-21 40 -21 93q0 79 48 128q45 45 109 45t109 -45t45 -109q0 -63 -44 -107q60 8 101 42q69 61 69 176
q0 57 -9 124q73 22 77 24q19 -9 74.5 -62.5t104 -160.5t48.5 -227q0 -63 -11 -118l-20 -23l-492 -408q108 -90 238 -173q280 -171 549 -243v1464h116v-64h287v-111h-287v-1427z" />
    <glyph glyph-name="uni0997" unicode="&#x997;" horiz-adv-x="1405" 
d="M1186 -28h-118v924q-96 259 -250 382q-107 84 -179.5 101t-103.5 17q-29 0 -44 -3q-119 -22 -231 -193q-35 -64 -69 -180q190 32 300 32q30 0 41 -1q146 0 193 -87q14 -40 14 -70q0 -85 -88 -203q-78 -116 -273 -268l-64 88q164 125 243 240q71 91 71 143q0 13 -3 20
q-14 26 -94 26q-135 0 -404 -42q-2 -1 -71 -13l7 74q27 198 140 357q92 146 266 183q38 8 68 8q194 -14 338 -128q45 -32 116 -113q39 -42 77 -108v416h118v-64h283v-111h-283v-1427z" />
    <glyph glyph-name="uni0998" unicode="&#x998;" horiz-adv-x="1353" 
d="M1052 117v1282h-642q-99 -84 -148 -158q-58 -82 -58 -130q0 -12 13 -43l-1 3q17 -28 151 -28q128 0 312 29q10 -56 22 -112q-36 -9 -41 -9l-101 -105q-100 -106 -195 -204q-50 -51 -102 -106q93 -79 246 -177q286 -176 544 -242zM1167 -28h-115v25q-282 64 -607 260
q-220 138 -348 279l378 395q-105 -3 -161 -3q-226 4 -226 183q0 84 75 195q17 26 75 93h-305v111h1480v-111h-246v-1427z" />
    <glyph glyph-name="uni0999" unicode="&#x999;" horiz-adv-x="1514" 
d="M858 960q40 0 67 27q31 31 31 69q0 34 -24 60q-45 36 -74 36q-39 0 -61 -24q-32 -31 -32 -72q0 -39 30 -69q25 -27 63 -27zM925 0q-463 0 -868 704l99 56q231 -410 465 -545q174 -103 303 -103q60 0 96 16q136 52 184 197q61 211 61 475q-332 -131 -477 -131
q-101 0 -155 63q-45 57 -45 138q4 110 43 206q-20 64 -20 137q0 101 45 202q24 52 86 133q30 -36 78 -84q-93 -106 -101 -257q60 50 142 50q85 0 144.5 -60.5t59.5 -141.5q0 -75 -62 -146q-54 -52 -141 -56q-97 1 -157 66q-3 -24 -3 -48q0 -47 17 -70q26 -21 66 -21
q13 0 27 0.5t99.5 22t143 40t118 42t121 58.5t71.5 45q16 -169 16 -246q0 -215 -71 -454q-28 -84 -93.5 -153.5t-145.5 -106.5q-72 -28 -146 -28z" />
    <glyph glyph-name="uni099A" unicode="&#x99a;" horiz-adv-x="1307" 
d="M387 84q206 0 369 77q201 77 289 285q14 38 14 80q0 17 -2 37q-16 120 -107 198q-64 59 -195 59q-168 0 -452 -142v-589q30 -5 84 -5zM386 -28q-97 0 -194 22v1405h-267v111h1475v-111h-1097v-593q273 124 447 124q191 0 301 -113q119 -119 119 -292q0 -67 -20 -121
q-99 -246 -348 -344q-195 -88 -416 -88z" />
    <glyph glyph-name="uni099B" unicode="&#x99b;" horiz-adv-x="1386" 
d="M1375 -244q-364 100 -663 289l-17 -1q-1 3 -2.5 10t-27.5 93q193 33 337 86q112 54 125 117q0 40 -39 81q-49 39 -116 49q-118 -112 -253 -162q-187 -70 -421 -70q-51 0 -69 2h-41v1149h-266v111h1578v-111h-1200v-338q264 107 422 107q45 0 83 -6q111 -20 173 -74
q147 -122 147 -274q0 -69 -30 -150q-23 -52 -47 -89q82 -36 109 -58q82 -69 82 -167q-8 -134 -203 -222q-62 -21 -165 -49q280 -148 533 -215zM300 357q93 4 197 19q130 22 186 44l5 5q217 72 303 279q21 48 21 105q0 106 -103 195h1l-6 6l1 -2q-59 51 -179 51
q-164 0 -426 -122v-580z" />
    <glyph glyph-name="uni099C" unicode="&#x99c;" horiz-adv-x="2000" 
d="M1675 -36q-145 159 -145 495q0 303 166 577q-254 57 -397.5 172t-176.5 191h-36q-165 -134 -269 -297q-66 -118 -66 -169q0 -20 13 -41q7 -13 44 -13q38 0 70 8q185 26 455 148q59 29 75 38l8 -84q7 -65 7 -146q0 -221 -70 -463q-58 -194 -250 -272q-75 -25 -144 -25
q-166 0 -363 119q-139 74 -283.5 261t-272.5 521l99 53q116 -320 255 -495q141 -180 258 -242q175 -104 306 -104q126 0 215 98q47 51 70 119q32 103 48.5 215.5t16.5 273.5q-282 -109 -414 -126q-43 -10 -85 -10q-95 0 -140 63q-30 43 -30 100q0 89 83 231q68 105 193 239
h-1005v111h2180v-111h-812q114 -194 510 -274l49 -95h-2q-198 -281 -198 -556q0 -24 10.5 -185.5t116.5 -245.5z" />
    <glyph glyph-name="uni099D" unicode="&#x99d;" horiz-adv-x="1759" 
d="M1574 -28h-115v511q-142 91 -300 125v-636h-115v14q-287 64 -609 262q-211 125 -353 281l588 870h-747v111h1236v-783q142 -23 300 -104v951h115v-64h245v-111h-245v-1427zM1044 108v1291h-230l-576 -858q110 -97 260 -191q267 -169 546 -242z" />
    <glyph glyph-name="uni099E" unicode="&#x99e;" horiz-adv-x="1894" 
d="M1370 -28h-116v22q-208 211 -403 211q-86 0 -189 -15q-135 -15 -190 -15q-100 12 -185.5 61t-138.5 141q-81 126 -97 315l116 1q7 -57 18 -106.5t29 -88.5q39 -94 108.5 -146.5t160.5 -60.5q76 0 163 11q137 17 210 17q24 0 50 -2q88 -7 202 -59q70 -33 146 -101v950
q-161 193 -347 228q-45 5 -70 5q-51 0 -101 -15q-172 -62 -225 -219q-19 -61 -19 -116q0 -22 3 -43q32 -116 106 -156q53 -29 105 -29q20 0 42 4q55 9 86 31l-18 -1q-62 0 -106 44t-44 106q0 63 44.5 107t113.5 44q10 0 32 -6l7.5 -3t4.5 -1q64 -24 110 -106q13 -43 13 -85
q0 -164 -160 -231q-50 -17 -117 -17q-95 0 -170 43q-123 73 -162 236q-5 38 -5 69q0 97 39 190q78 175 281 250q73 20 129 20q48 0 101 -11q260 -48 443 -300v-29q70 38 140 38q106 0 180 -71q69 -69 69 -171q0 -107 -96 -193q96 -93 96 -191q0 -104 -71 -172
q-72 -72 -171 -72q-71 0 -147 41v-353zM1512 393q57 0 96.5 40t39.5 99q0 54 -41 94l2 -1q-36 32 -94 44v94q35 7 54.5 18t39.5 28l-1 -2q40 39 40 98t-39 97.5t-97 38.5q-54 0 -101 -32l-1 -2q-26 -20 -40 -42v-495q52 -77 142 -77z" />
    <glyph glyph-name="uni099F" unicode="&#x99f;" horiz-adv-x="1448" 
d="M447 73q-130 0 -215 25h2q-22 7 -43 16v1285h-269v111h1151q24 92 24 162q0 290 -346 359q-74 10 -123 10q-252 -18 -488 -196l-72 84q300 218 578 218q60 0 122 -9q271 -47 382 -235q57 -97 57 -228q0 -78 -20 -165h328v-111h-1209v-1201q89 -13 148 -13q179 0 393 87
q100 44 179 118.5t121 176.5q22 52 22 112q0 22 -4 42q-16 112 -98 180q-89 75 -193 75q-17 0 -26 -1q-3 -1 -7 -1q-121 -16 -207 -113q-43 -56 -43 -112q5 -92 67 -136q-9 25 -9 54q0 63 44 106.5t106 43.5q65 0 117 -55q34 -44 34 -101q0 -7 -2 -21q-23 -125 -129 -159
q-38 -12 -73 -12q-39 0 -76 12q-156 60 -185 208q-8 26 -8 63q0 97 69 180q102 133 283 157q11 1 39 1q146 0 271 -104q112 -97 136 -226q8 -61 8 -80q0 -79 -31 -156q-52 -122 -143 -214.5t-219 -142.5q-224 -94 -443 -94z" />
    <glyph glyph-name="uni09A0" unicode="&#x9a0;" horiz-adv-x="1281" 
d="M582 182q133 0 251 84q96 77 147 203q29 79 29 158q0 184 -148 389q-112 169 -301 307q66 -176 66 -318q0 -306 -277 -439l-115 -46q3 -80 29 -140q21 -46 56 -85q94 -113 263 -113zM584 70q-56 0 -112 10q-141 27 -237 140q-47 51 -73 115q-41 91 -41 185q0 21 1.5 40
t1.5 36l182 74q210 104 210 345q0 164 -112 384h-506v111h422q-103 128 -103 269q0 61 21 124q38 112 130 195q112 100 293 124l12 -112q-144 -18 -229 -94q-114 -104 -114 -239q0 -75 42 -150q37 -64 102 -117h883v-111h-711q198 -152 308 -319q166 -231 166 -449
q0 -106 -41 -211q-66 -162 -179 -243q-146 -107 -316 -107z" />
    <glyph glyph-name="uni09A1" unicode="&#x9a1;" horiz-adv-x="1651" 
d="M1001 24q-166 0 -363 119q-322 174 -555 782l98 53q114 -315 255 -495t258 -242q175 -104 306 -104q126 0 215 98q47 51 70 119q32 103 49 215.5t17 273.5q-282 -109 -414 -126q-43 -10 -85 -10q-96 0 -141 63q-29 41 -29 100q0 91 82 231q91 141 269 298h-1143v111h1855
v-111h-524q-17 -12 -32.5 -23.5t-32.5 -22.5q-189 -138 -297 -310q-66 -118 -66 -169q0 -20 13 -41q7 -13 45 -13q97 0 276 58q173 56 324 136l7 -84q8 -74 8 -146q0 -218 -71 -463q-58 -193 -249 -272q-77 -25 -145 -25z" />
    <glyph glyph-name="uni09A2" unicode="&#x9a2;" horiz-adv-x="1427" 
d="M447 73q-130 0 -215 25h2q-22 7 -43 16v1285h-269v111h1593v-111h-1209v-1201q89 -13 148 -13q179 0 393 87q100 44 179 118.5t121 176.5q22 52 22 112q0 22 -4 42q-16 112 -98 180q-89 75 -193 75q-17 0 -26 -1q-3 -1 -7 -1q-121 -16 -207 -113q-43 -56 -43 -112
q5 -92 67 -136q-9 25 -9 54q0 63 44 106.5t106 43.5q65 0 117 -55q34 -44 34 -101q0 -7 -2 -21q-23 -125 -129 -159q-38 -12 -73 -12q-39 0 -76 12q-156 60 -185 208q-8 26 -8 63q0 97 69 180q102 133 283 157q11 1 39 1q146 0 271 -104q112 -97 136 -226q8 -61 8 -80
q0 -79 -31 -156q-52 -122 -143 -214.5t-219 -142.5q-224 -94 -443 -94z" />
    <glyph glyph-name="uni09A3" unicode="&#x9a3;" horiz-adv-x="1423" 
d="M1213 -28h-117v1095q-104 137 -222 229q-144 94 -291 94q-68 0 -121 -14q-6 -2 -23.5 -7.5t-75.5 -36.5q-198 -108 -198 -301q0 -74 22 -135q37 -153 209 -207q28 -9 63 -9q124 0 196 62q56 50 56 111q0 9 -1 17q-4 -6 -10 -12q-45 -45 -108 -45q-64 0 -109 45t-45 109
t45 108q46 48 122 48q56 0 119.5 -43.5t98.5 -162.5q8 -35 8 -65q0 -114 -95 -197q-113 -92 -274 -92q-52 0 -102 12q-113 37 -187.5 109.5t-101.5 177.5q-26 90 -26 168q0 111 54 207q51 97 143 164q149 108 343 108q61 0 125 -17q212 -56 386 -244v326h117v-64h288v-111
h-288v-1427z" />
    <glyph glyph-name="uni09A4" unicode="&#x9a4;" horiz-adv-x="1716" 
d="M901 76q-178 0 -356 103q-314 190 -435 660l116 20q107 -418 388 -587q140 -78 283 -78q269 0 412 161q75 90 93 174q15 75 15 148q0 62 -11 124q-30 128 -104 196q-109 107 -228 121q-29 7 -60 7q-30 0 -57 -8h-6q-137 -23 -203 -155q-18 -34 -18 -84q0 -60 37 -108
q20 -19 41 -32q-2 14 -2 29q0 67 47.5 115t115.5 48q67 0 115 -48t48 -115q0 -68 -48 -116q-32 -31 -72 -42q-56 -22 -103 -22q-120 0 -218 92q-46 53 -65 115q-12 37 -12 73q0 62 29 147l1 4q95 182 288 216q44 8 78 8q74 0 157 -24q99 -29 215 -131q151 -168 151 -411
q0 -235 -126 -385q-182 -215 -506 -215zM1789 1399h-1857v111h1857v-111z" />
    <glyph glyph-name="uni09A5" unicode="&#x9a5;" horiz-adv-x="1316" 
d="M1131 -28h-117v14q-284 65 -606 262q-221 129 -353 278l470 501q19 63 19 105q0 69 -37 141q-49 104 -173 104q-62 0 -107 -36l16 1q62 0 106 -43.5t44 -106.5q0 -60 -42 -104q-47 -47 -121 -47q-62 0 -112 56q-29 30 -43 73t-14 81q15 120 87 181q78 63 185 63
q27 0 47 -2q162 -27 235 -167q48 -100 48 -192q0 -76 -33 -163q-5 -10 -7 -12t-17 -22l-386 -410q221 -187 521 -319q156 -70 273 -101v1467h115v-64h257v-111h-255v-1427z" />
    <glyph glyph-name="uni09A6" unicode="&#x9a6;" horiz-adv-x="1238" 
d="M1044 -28h-118v981q-353 -384 -742 -430v876h-260v111h1407v-111h-1027v-738q244 69 439 264q146 148 206 272l109 -45l-14 -28v-1152z" />
    <glyph glyph-name="uni09A7" unicode="&#x9a7;" horiz-adv-x="1333" 
d="M1128 -28h-115v14q-284 65 -609 262q-228 142 -350 278l389 586q-156 9 -279 117q-100 97 -100 218q0 48 8 72q11 58 44 106q80 117 216 117q28 0 80 -10q97 -34 124 -114q15 -42 15 -76q0 -66 -44 -110t-106 -44t-106 44t-44 106q0 41 18 73q-26 -10 -55 -54
q-33 -48 -33 -108q0 -72 64 -133q87 -89 205 -89q36 0 76 10q90 132 184 273h703v-111h-285v-1427zM1013 101v1298h-239q-240 -358 -427 -641q-71 -108 -144 -217q233 -198 538 -337q155 -71 272 -103z" />
    <glyph glyph-name="uni09A8" unicode="&#x9a8;" horiz-adv-x="1448" 
d="M1236 -28h-119v680q-88 127 -212 213q-141 96 -290 96q-113 0 -220 -60q-108 -64 -159 -151q-37 -69 -37 -156q0 -164 99 -254q55 -51 134 -82q23 -8 59 -8q34 0 64 5q86 16 133 58q57 48 57 112l-1 13q-46 -46 -108 -46t-106 44t-44 106q0 68 59 120q13 11 36 20
q23 8 59 11q55 0 107 -35q81 -46 108 -175q0 -4 1 -6v3q7 -40 7 -58q0 -116 -94 -198q-100 -91 -271 -91q-56 0 -106 12q-110 38 -185.5 111t-104.5 178q-23 80 -23 162q0 119 53 212q109 196 332 252q96 20 155 20q287 -19 498 -239v558h-1179v111h1593v-111h-295v-1427z
" />
    <glyph glyph-name="uni09AA" unicode="&#x9aa;" horiz-adv-x="1426" 
d="M641 798q160 208 367 292q-84 137 -167 197q-153 121 -291 121q-12 0 -23 -1q-162 -14 -251 -149q-72 -93 -103 -210q96 31 168 31q129 0 207 -83q70 -75 93 -198zM1234 -28h-114v885q-27 72 -57 132q-195 -74 -367 -311q-93 -130 -147 -268l-108 42q39 95 96 194l1 14
q-1 5 -1 13q0 168 -72 243q-45 46 -117 48q-119 -12 -227 -62q-6 -3 -19.5 -9.5t-28 -14t-27.5 -13.5t-19 -9l12 103q22 200 144 366q108 162 301 192q25 5 68 5q180 0 358 -144q121 -92 210 -249v445h114v-64h251v-111h-251v-1427z" />
    <glyph glyph-name="uni09AB" unicode="&#x9ab;" horiz-adv-x="1928" 
d="M1460 804q7 -1 13 -2q41 -9 73 -41q44 -44 44 -106t-44 -106t-106 -44q-47 0 -84 25q12 -22 35 -44q49 -43 92 -43q12 0 23 3q174 44 174 239q0 66 -21 126q-62 241 -499 329v-1168h-118v19q-660 183 -968 529l401 511q-139 261 -425 368h-176v111h2107v-111h-1672
q83 -64 152 -147q96 -117 152 -238l-381 -484q94 -85 256 -191q197 -118 554 -222v1159q80 -10 182 -32q109 -25 173 -48q150 -61 246 -152q156 -147 156 -362q0 -105 -50 -196q-70 -123 -214 -156q-15 -3 -40 -3q-93 0 -182 71q-50 50 -66 100q-19 48 -19 89q0 16 5 42
q21 116 123 161q48 17 85 17h1q4 -1 18 -3z" />
    <glyph glyph-name="uni09AC" unicode="&#x9ac;" horiz-adv-x="1377" 
d="M1048 107v1292h-229q-572 -848 -576 -856q100 -93 258 -194q276 -170 547 -242zM1164 -28h-116v15q-286 66 -607 262q-221 131 -352 279l585 871h-755v111h1542v-111h-297v-1427z" />
    <glyph glyph-name="uni09AD" unicode="&#x9ad;" horiz-adv-x="1681" 
d="M1028 86q-97 0 -188 30q-152 49 -283 169q-308 282 -471 724l109 39q146 -402 440 -675q183 -170 394 -170q168 0 269 125q38 52 46 83q54 153 54 304q0 45 -4 87q-161 -132 -345 -171q-46 -8 -89 -8q-130 0 -224 73q-113 88 -113 248q0 80 36 151q64 119 205 142
q22 5 46 5q35 0 71 -10q73 -22 114 -67q57 -63 57 -139q0 -75 -43.5 -128.5t-115.5 -53.5q-77 0 -123 48q-44 44 -44 106t44 106q11 11 24 19q-5 0 -9 -1q-99 -15 -133 -105q-13 -40 -13 -79q0 -98 68 -150q62 -47 155 -47q35 0 67 5q188 41 364 212l72 69l26 -96
q27 -100 27 -212q0 -161 -62 -344q-17 -56 -65 -120q-92 -114 -250 -156q-52 -13 -113 -13zM1739 1399h-1811v111h1811v-111z" />
    <glyph glyph-name="uni09AE" unicode="&#x9ae;" horiz-adv-x="1470" 
d="M1250 -28h-120v680q-45 66 -96 119q-187 190 -401 190q-57 0 -109 -13q-22 -6 -64 -25q-143 -64 -205 -173q-40 -74 -40 -154q0 -52 23 -136q21 -70 76 -121q91 -86 200 -86l32 1q55 3 110 27q96 41 104 148q0 24 -2 26q-44 -63 -122 -63q-62 0 -106 44t-44 106
q0 63 42.5 105t100.5 45q15 2 34 3q53 0 92 -24q89 -57 117 -185q2 -15 4.5 -32t2.5 -28q0 -55 -25 -106q-88 -182 -339 -185q-58 0 -104 13q-233 73 -288 287q-25 90 -25 166q0 114 53 207q84 156 301 242q-79 220 -305 349h-250v111h1661v-111h-308v-1427zM1130 843v556
h-765q63 -58 113 -136q65 -104 91 -189q23 3 64 3q122 0 250 -57t247 -177z" />
    <glyph glyph-name="uni09AF" unicode="&#x9af;" horiz-adv-x="1386" 
d="M1066 116v1283h-735q207 -176 302 -391l-382 -474q111 -100 259 -190q195 -118 556 -228zM1185 -28h-119v15q-668 192 -974 535l405 503q-80 135 -189 232q-116 101 -243 142h-144v111h1547v-111h-283v-1427z" />
    <glyph glyph-name="uni09B0" unicode="&#x9b0;" horiz-adv-x="1365" 
d="M1032 107v1292h-229q-572 -848 -576 -856q100 -93 258 -194q276 -170 547 -242zM1148 -28h-116v15q-286 66 -607 262q-221 131 -352 279l585 871h-755v111h1542v-111h-297v-1427zM379 -212q-57 0 -91 34t-34 91q0 56 34 90.5t91 34.5q55 0 89 -34t34 -91t-34 -91t-89 -34
z" />
    <glyph glyph-name="uni09B2" unicode="&#x9b2;" horiz-adv-x="1670" 
d="M1470 -28h-116v852q-108 191 -204 191q-57 0 -125 -128q26 -50 37 -93l-108 -29q-22 58 -49 99q-128 191 -322 191q-62 0 -139 -22q-82 -38 -151 -122q-81 -107 -81 -233q0 -72 26 -155q53 -140 196 -168q41 -8 70 -8q75 0 158 105q11 25 14 52q-44 -43 -105 -43
q-62 0 -106 44t-44 106q0 63 45 107.5t123 44.5q63 0 128 -52q77 -62 77 -190q0 -107 -71 -191q-75 -101 -233 -101q-45 0 -81 9q-197 43 -286 248q-29 95 -29 193q0 138 75 260q88 144 243 208q93 28 182 28q191 0 358 -178q49 70 95.5 102t97.5 34q107 -2 209 -102v368
h-1448v111h1823v-111h-259v-1427z" />
    <glyph glyph-name="uni09B6" unicode="&#x9b6;" horiz-adv-x="1413" 
d="M96 1174q36 26 86 26q62 0 106 -43.5t44 -106.5q0 -62 -44 -106t-106 -44q-16 0 -31 2q54 -45 101 -45q9 0 18 2q88 20 124 86q24 55 24 97q0 50 -23 111q-99 248 -406 248v109q198 -3 317 -70q103 -59 168 -180q114 162 273 162h11q189 -12 333 -202v354h117v-64h279
v-111h-279v-1427h-117v1000q-31 94 -92 183q-108 155 -245 155q-147 0 -210 -157q-22 -55 -22 -112q0 -45 23 -98v2q33 -58 127 -88q69 0 113 44l-24 -1q-63 0 -106.5 44t-43.5 106t43.5 106t106.5 44q21 0 43 -7v1q4 -1 7 -3q15 -5 30 -13q14 -9 24 -19q49 -40 63 -103
q9 -31 9 -59q0 -39 -19 -84q-24 -56 -65 -95q-74 -72 -174 -72q-23 0 -39 4q-92 21 -170 112q-90 -90 -179 -114q-5 -2 -31 -2q-98 0 -177 71q-37 37 -62 95q-19 55 -19 85q0 117 94 177z" />
    <glyph glyph-name="uni09B7" unicode="&#x9b7;" horiz-adv-x="1363" 
d="M1046 758v641h-735q162 -137 250 -290q145 -77 246 -151q118 -87 239 -200zM1046 116v454q-67 102 -182 199q-112 94 -286 196l-347 -431q112 -101 260 -190q193 -118 555 -228zM1165 -28h-119v15q-387 112 -617 255q-233 141 -357 280l405 503q-80 135 -189 232
q-116 101 -243 142h-144v111h1547v-111h-283v-1427z" />
    <glyph glyph-name="uni09B8" unicode="&#x9b8;" horiz-adv-x="1579" 
d="M1382 -28h-119v349q-91 149 -220.5 222t-303.5 75q-27 -102 -71 -166q-89 -113 -250 -134h-14q-134 0 -237 120q-43 55 -59 127q-10 40 -10 73q0 22 4 43q27 142 177 205l34 -111q-68 -36 -85 -89q-12 -23 -12 -50q0 -22 6.5 -45.5t16 -44.5t19.5 -32q61 -76 146 -78
q115 15 170 87q71 99 71 237q0 53 -11 119q-64 347 -444 520h-249v111h1702v-111h-261v-1427zM1263 521v878h-835q115 -87 194 -202q108 -152 129 -299q8 -47 8 -101l-2 -63q305 -13 506 -213z" />
    <glyph glyph-name="uni09B9" unicode="&#x9b9;" horiz-adv-x="1257" 
d="M1091 -77q-597 276 -990 411l30 106q122 -21 214 -21q173 0 330 67q281 122 281 363q0 111 -53 203q-133 172 -332 172q-84 0 -138 -21q-140 -58 -183 -190q-11 -31 -11 -81q0 -25 3 -46q63 -166 223 -166l24 1q-12 8 -22 19q-44 44 -44 106q0 63 44 106.5t106 43.5
t106 -44q35 -34 42 -81q7 -22 7 -45q0 -135 -155 -202l1 1q-43 -19 -110 -19q-28 0 -59 6q-104 20 -180 96q-54 53 -81 130l-4 4q-12 52 -12 90q0 36 8 72q43 208 258 301q86 30 171 30q266 0 429 -217q73 -113 73 -271q0 -160 -122 -309q-157 -176 -483 -224
q292 -112 679 -291zM1358 1399h-1455v111h1455v-111z" />
    <glyph glyph-name="uni09BC" unicode="&#x9bc;" 
d="M-891 -446q-57 0 -91 34t-34 91q0 56 34 90.5t91 34.5q55 0 89 -34t34 -91t-34 -91t-89 -34z" />
    <glyph glyph-name="uni09BD" unicode="&#x9bd;" horiz-adv-x="921" 
d="M861 -77q-597 276 -990 411l30 106q122 -21 214 -21q173 0 330 67q281 122 281 363q0 111 -53 203q-133 172 -332 172q-84 0 -138 -21q-140 -58 -183 -190q-11 -31 -11 -81q0 -25 3 -46q63 -166 223 -166l24 1q-12 8 -22 19q-44 44 -44 106t44 106t106 44t106 -44
q34 -35 41 -80q8 -23 8 -46q0 -135 -155 -202l1 1q-43 -19 -110 -19q-28 0 -59 6q-104 20 -180 96q-54 53 -81 130l-4 4q-12 52 -12 90q0 36 8 72q43 208 258 301q86 30 171 30q266 0 429 -217q73 -113 73 -270q0 -161 -122 -310q-157 -176 -483 -224q292 -112 679 -291z
M497 1399h-830v111h830v-111z" />
    <glyph glyph-name="uni09BE" unicode="&#x9be;" horiz-adv-x="463" 
d="M289 -28h-115v1427h-238v111h595v-111h-242v-1427z" />
    <glyph glyph-name="uni09BF" unicode="&#x9bf;" horiz-adv-x="488" 
d="M301 -28h-115v1427h-238v111h220q-27 164 -27 246q0 102 18 159q21 55 48 107q59 97 150 153q106 62 193 76q80 17 166 17q35 0 90 -5q124 -6 316 -85q125 -59 232 -144q-11 -11 -48.5 -45t-39.5 -36q-144 110 -260 154q-121 44 -274 52q-69 0 -145 -13q-74 -9 -162 -61
q-79 -47 -133 -140q-37 -94 -37 -181q0 -62 13 -148q11 -81 17 -106h258v-111h-242v-1427z" />
    <glyph glyph-name="uni09C0" unicode="&#x9c0;" horiz-adv-x="482" 
d="M290 -28h-115v1427h-242v111h258q30 173 30 253q0 86 -38 182q-50 91 -133.5 141t-162.5 60q-76 13 -143 13q-154 -8 -274 -52q-113 -43 -261 -155l-88 82q114 88 233 144q114 47 151 56q130 34 255 34q85 0 165 -17q92 -16 193 -76q93 -61 150 -153q28 -52 47 -108.5
t19 -157.5q-1 -76 -26 -246h220v-111h-238v-1427z" />
    <glyph glyph-name="uni09C1" unicode="&#x9c1;" 
d="M-339 -555q-56 0 -109 20q-45 16 -77 40q-66 36 -92 98q-31 44 -31 112l1 21q-1 8 -1 17q0 111 104 224q43 33 99 55q76 29 148 29q38 0 76 -8q116 -16 208.5 -85t157.5 -167q84 -140 128 -271l-117 -25q-30 106 -92.5 208t-135.5 159t-134 69q-39 8 -80 8
q-25 0 -72.5 -5t-106.5 -53q-28 -19 -48 -61q-23 -50 -23 -108q0 -71 68 -123q55 -42 113 -42q48 0 79 16q90 33 90 131q0 48 -43 92l-14 5l38 106q16 -6 27 -14q54 -32 73 -76q33 -52 33 -119q0 -46 -19 -90q-41 -97 -122 -132q-70 -31 -126 -31z" />
    <glyph glyph-name="uni09C2" unicode="&#x9c2;" 
d="M277 -590q-38 121 -66 170q-46 87 -107 149.5t-124 91.5q-47 -120 -151 -185q-71 -46 -156 -46q-80 0 -159 42q-111 59 -144 171q-15 49 -15 96q0 75 54 176q58 -39 103 -59q-41 -76 -41 -123q5 -61 27 -95q26 -41 44 -53q51 -40 127 -40q152 0 213 197q5 18 11 67
q244 -57 373 -258q72 -111 127 -273z" />
    <glyph glyph-name="uni09C3" unicode="&#x9c3;" 
d="M-101 -682l-467 325l315 370l91 -70l-238 -280q2 -1 2.5 -2t369.5 -259q-69 -78 -73 -84z" />
    <glyph glyph-name="uni09C4" unicode="&#x9c4;" 
d="M-126 -735q-19 12 -143 99q-93 63 -184 129l-97 68q-25 16 -46 31l144 160q-25 17 -48 34l-68 47l138 159q15 19 30.5 37t31.5 37q32 39 115 137l91 -70l-238 -280q2 -1 3 -3t23 -15q32 -19 104 -71q84 -58 242 -172q-69 -78 -73 -84l-257 178l-67 -77q105 -69 368 -257
q-3 -4 -14 -18t-15.5 -20t-6.5 -8.5t-6.5 -8t-9.5 -11.5t-9.5 -12t-7.5 -9z" />
    <glyph glyph-name="uni09C7" unicode="&#x9c7;" horiz-adv-x="759" 
d="M738 194q1 -8 1 -17q0 -23 -3 -45q-24 -137 -149 -164q-46 -12 -95 -12q-104 0 -183 55q-89 53 -144.5 140.5t-79 182t-28 159.5t-4.5 119q0 317 172 564q112 146 216 223h-526v111h1008v-111h-259q-199 -94 -321 -259q-173 -224 -173 -532q0 -141 22 -211
q45 -201 178 -288q55 -34 116 -36q-48 48 -48 110q0 63 44 106.5t106 43.5t106 -43q40 -40 44 -96z" />
    <glyph glyph-name="uni09C8" unicode="&#x9c8;" horiz-adv-x="760" 
d="M492 -44q-104 0 -183 55q-89 53 -144.5 140.5t-79 182t-28 159.5t-4.5 119q0 317 172 564q112 146 216 223h-526v111h877q-5 79 -25 121q-39 69 -142 85q-18 4 -43 4q-71 0 -189 -25q-111 -28 -172 -28l-19 1q-175 10 -255 124q-44 69 -44 144q0 47 26 125
q7 -3 16.5 -6.5t19 -7.5t17.5 -7.5t13 -4.5q1 -1 7 -3t12.5 -4t12.5 -4t8 -2q-14 -53 -14 -70q0 -167 199 -167q44 0 146 22q135 29 214 29q35 0 67 -5q154 -30 221 -144q43 -79 43 -177h12v-111h-259q-199 -94 -321 -259q-173 -224 -173 -532q0 -141 22 -211
q45 -201 178 -288q55 -34 116 -36q-48 48 -48 110q0 63 44 106.5t106 43.5t106.5 -44t44.5 -112q0 -23 -3 -45q-24 -137 -149 -164q-46 -12 -95 -12z" />
    <glyph glyph-name="uni09CB" unicode="&#x9cb;" horiz-adv-x="2401" 
d="M866 859q-68 0 -68 64q0 65 65 65q66 0 66 -65q0 -64 -63 -64zM1524 1134q-66 0 -66 65t66 65q65 0 65 -65t-65 -65zM1136 1134q-64 0 -64 65t64 65q67 0 67 -65t-67 -65zM863 473q-65 0 -65 66q0 65 65 65q66 0 66 -65q0 -66 -66 -66zM1330 1171q-65 0 -65 69
q0 65 65 65t65 -65q0 -69 -65 -69zM1796 859q-67 0 -67 64q0 65 69 65q66 0 66 -65q0 -64 -68 -64zM972 305q-64 0 -64 66t64 66q68 0 68 -66t-68 -66zM1330 157q-65 0 -65 68q0 66 65 66t65 -66q0 -68 -65 -68zM972 1025q-64 0 -64 59q0 73 64 73q68 0 68 -69
q0 -63 -68 -63zM1136 198q-64 0 -64 63q0 70 64 70q67 0 67 -66q0 -67 -67 -67zM1690 1025q-69 0 -69 63q0 69 69 69q64 0 64 -69q0 -63 -64 -63zM1690 305q-66 0 -66 66t66 66q67 0 67 -66t-67 -66zM825 664q-66 0 -66 66q0 67 66 67t66 -67q0 -66 -66 -66zM1839 664
q-66 0 -66 66q0 67 66 67t66 -67q0 -66 -66 -66zM1796 473q-67 0 -67 66q0 65 67 65q68 0 68 -65q0 -66 -68 -66zM1524 198q-66 0 -66 63q0 70 66 70q67 0 67 -70q0 -63 -67 -63zM2199 -28h-117v1427h-225v111h603v-111h-261v-1427zM738 194q1 -8 1 -17q0 -23 -3 -45
q-24 -137 -149 -164q-46 -12 -95 -12q-104 0 -183 55q-89 53 -144.5 140.5t-79 182t-28 159.5t-4.5 119q0 317 172 564q112 146 216 223h-526v111h1008v-111h-259q-199 -94 -321 -259q-173 -224 -173 -532q0 -141 22 -211q45 -201 178 -288q55 -34 116 -36q-48 48 -48 110
q0 63 44 106.5t106 43.5t106 -43q40 -40 44 -96z" />
    <glyph glyph-name="uni09CC" unicode="&#x9cc;" horiz-adv-x="2452" 
d="M541 284q-11 2 -23 2zM738 194q1 -8 1 -17q0 -23 -3 -45q-24 -137 -149 -164q-46 -12 -95 -12q-104 0 -183 55q-89 53 -144.5 140.5t-79 182t-28 159.5t-4.5 119q0 317 172 564q112 146 216 223h-526v111h1008v-111h-259q-199 -94 -321 -259q-173 -224 -173 -532
q0 -141 22 -211q45 -201 178 -288q55 -34 116 -36q-48 48 -48 110q0 63 44 106.5t106 43.5t106 -43q40 -40 44 -96zM1525 1134q-66 0 -66 65t66 65q63 0 63 -65t-63 -65zM866 859q-67 0 -67 64q0 65 64 65q67 0 67 -65q0 -64 -64 -64zM1137 1134q-65 0 -65 65t65 65
q67 0 67 -65t-67 -65zM863 473q-64 0 -64 66q0 65 64 65q67 0 67 -65q0 -66 -67 -66zM1796 859q-66 0 -66 64q0 65 68 65q66 0 66 -65q0 -64 -68 -64zM826 664q-66 0 -66 66q0 67 66 67q65 0 65 -67q0 -66 -65 -66zM1796 473q-66 0 -66 66q0 65 66 65q68 0 68 -65
q0 -66 -68 -66zM1689 305q-65 0 -65 66t65 66q68 0 68 -66t-68 -66zM1331 1171q-67 0 -67 69q0 65 67 65q64 0 64 -65q0 -69 -64 -69zM1525 198q-66 0 -66 63q0 70 66 70t66 -70q0 -63 -66 -63zM1840 664q-67 0 -67 66q0 67 67 67q65 0 65 -67q0 -66 -65 -66zM972 305
q-64 0 -64 66t64 66q69 0 69 -66t-69 -66zM1689 1025q-68 0 -68 63q0 69 68 69q65 0 65 -69q0 -63 -65 -63zM1137 198q-65 0 -65 63q0 70 65 70q67 0 67 -66q0 -67 -67 -67zM972 1025q-64 0 -64 59q0 73 64 73q69 0 69 -69q0 -63 -69 -63zM1331 157q-67 0 -67 68q0 66 67 66
q64 0 64 -66q0 -68 -64 -68zM2228 -28h-120v1427h-295v111h283q3 18 3 51q0 108 -44 189q-81 130 -249 130q-98 0 -255 -36q-140 -33 -247 -36q-104 10 -188 52q-88 43 -133 103q-55 89 -55 184q0 68 32 160q29 -11 39 -14.5t15 -6.5t57 -19q-23 -69 -23 -121q0 -32 9 -63
q38 -141 253 -155l19 -1q62 0 193 29q179 42 292 42q38 0 76 -6q178 -34 265 -185q63 -100 63 -245q0 -45 -1 -48t-1 -4h293v-111h-281v-1427z" />
    <glyph glyph-name="uni09CD" unicode="&#x9cd;" 
d="M-87 -463l-400 348l72 86l401 -344z" />
    <glyph glyph-name="uni09CE" unicode="&#x9ce;" horiz-adv-x="1077" 
d="M816 61l-56 18h2q-4 2 -9 3t-9 3h2l-39 13q11 57 11 86q0 121 -106 239q-83 84 -160 124q-314 211 -314 468q0 94 51 172q103 170 273 214q63 14 100 14q56 0 144 -30l2 -3q157 -81 196 -208v-2q14 -54 14 -97q0 -84 -41 -154q-76 -112 -196 -112q-66 0 -120 29
q-42 31 -63 67q-25 39 -25 83q0 31 13 74q6 16 19 31q53 61 124 61q63 0 108 -44.5t45 -113.5q4 12 6 21q10 42 10 69q0 115 -148 194q-41 15 -112 15q-17 0 -23 -2q-139 -21 -224 -162q-38 -57 -38 -120q0 -185 267 -364q97 -54 198 -172q115 -138 115 -288q0 -53 -17 -126
z" />
    <glyph glyph-name="uni09D7" unicode="&#x9d7;" horiz-adv-x="502" 
d="M311 -28h-115v1427h-238v111h228q2 17 2 34q0 126 -44 206q-80 130 -248 130q-97 0 -256 -36q-152 -36 -248 -36q-102 10 -186 52q-90 43 -134 103q-55 87 -55 184q0 64 30 160q60 -20 89 -33q9 -5 23 -11q-21 -68 -21 -117q0 -201 261 -218l19 -1q62 0 193 29
q179 42 292 42q36 0 77 -6q176 -35 264 -185q64 -101 64 -245l-2 -52h247v-111h-242v-1427z" />
    <glyph glyph-name="uni09DC" unicode="&#x9dc;" horiz-adv-x="1637" 
d="M1002 23q-166 0 -363 119q-321 172 -555 781q4 3 100 54q116 -318 254 -493q141 -179 256 -241q175 -105 307 -105q127 0 215 97q46 51 69 119q32 103 49 215.5t17 272.5q-268 -106 -413 -126q-43 -10 -85 -10q-95 0 -142 64q-29 41 -29 100q0 97 83.5 233t266.5 296
h-1142v111h1857v-111h-526q-16 -11 -31.5 -23.5t-31.5 -23.5q-189 -138 -297 -310q-66 -118 -66 -168q0 -53 57 -53q39 0 74 9q196 29 475 158q50 27 52 27l7 -85q8 -74 8 -146q0 -606 -316 -734q-81 -27 -150 -27zM936 -367q-56 0 -90 34t-34 91q0 56 34 90.5t90 34.5
q55 0 89 -34t34 -91t-34 -91t-89 -34z" />
    <glyph glyph-name="uni09DD" unicode="&#x9dd;" horiz-adv-x="1427" 
d="M440 73q-130 0 -215 25h2q-22 7 -43 16v1285h-269v111h1593v-111h-1209v-1201q89 -13 148 -13q179 0 393 87q100 44 179 118.5t121 176.5q22 52 22 112q0 22 -4 42q-16 112 -98 180q-89 75 -193 75q-17 0 -26 -1q-3 -1 -7 -1q-121 -16 -207 -113q-43 -56 -43 -112
q5 -92 67 -136q-9 25 -9 54q0 63 44 106.5t106 43.5q65 0 117 -55q34 -44 34 -101q0 -7 -2 -21q-23 -125 -129 -159q-38 -12 -73 -12q-39 0 -76 12q-156 60 -185 208q-8 26 -8 63q0 97 69 180q102 133 283 157q11 1 39 1q146 0 271 -104q112 -97 136 -226q8 -61 8 -80
q0 -79 -31 -156q-52 -122 -143 -214.5t-219 -142.5q-224 -94 -443 -94zM522 -350q-57 0 -91 34t-34 91q0 56 34 90.5t91 34.5q55 0 89 -34t34 -91t-34 -91t-89 -34z" />
    <glyph glyph-name="uni09DF" unicode="&#x9df;" horiz-adv-x="1386" 
d="M1053 116v1283h-735q207 -176 302 -391l-382 -474q111 -100 259 -190q195 -118 556 -228zM1172 -28h-119v15q-668 192 -974 535l405 503q-80 135 -189 232q-116 101 -243 142h-144v111h1547v-111h-283v-1427zM410 -210q-57 0 -91 34t-34 91q0 56 34 90.5t91 34.5
q55 0 89 -34t34 -91t-34 -91t-89 -34z" />
    <glyph glyph-name="uni09E0" unicode="&#x9e0;" horiz-adv-x="1800" 
d="M1203 -596l-462 323q8 8 18 20q5 6 9.5 11t6 8t7 8t199.5 233q-260 76 -542 250q-230 143 -353 275l716 581q-32 133 -152 253q-45 -327 -322 -327q-71 0 -131 39q-48 31 -77 80q-23 40 -23 83q0 83 49 133q45 45 109 45t109 -45t45 -108q0 -64 -45 -109q56 9 97 46
q73 61 73 185q0 60 -13 112l86 38l61 -40q164 -113 234 -306l141 113v269h119v-845q148 -24 306 -106v951h116v-64h295v-111h-295v-1427h-116v511q-134 87 -306 126v-637h-73q-25 -30 -48 -58t-46 -55t-46.5 -54.5t-49.5 -58.5q31 -22 67 -46q249 -175 303 -214zM1048 113
v1039q-390 -312 -584 -466l-198 -158q115 -95 239 -173q282 -171 543 -242z" />
    <glyph glyph-name="uni09E1" unicode="&#x9e1;" horiz-adv-x="1265" 
d="M680 -550q-11 34 -15 42q-9 23 -10 33h-2l-1 19q14 11 14 14q33 96 33 175q0 73 -24 125q-22 68 -76 103q-46 29 -91 29q-64 0 -118 -59q60 0 104 -44t44 -106t-44 -106t-106 -44q-63 0 -107 44q-29 30 -39 68l-2 11q-7 14 -7 55q0 90 69 178q89 106 208 106
q72 0 155 -50q26 -15 49 -43q90 -112 90 -268q0 -38 -14 -116q170 114 214 229q21 50 21 122q0 115 -77 273q-18 25 -31 48q-141 -106 -322 -106l-82 3q8 32 14 52.5t9 33.5l-3 1q24 96 24 149q0 63 -18 115q-37 123 -111 165q-41 26 -81 26q-63 0 -113 -61v2l-5 -7
q69 0 113 -43.5t44 -106.5q0 -62 -44 -106t-106 -44t-106 44q-28 28 -39 63q-10 44 -10 79q0 88 56 179l9 9l-2 -1q87 104 209 104q64 0 123 -34q110 -70 161 -198q32 -96 32 -171q0 -39 -18 -136q201 32 282 186q36 56 36 130q0 47 -10 79q-57 166 -286 275q-74 35 -136 86
q-131 106 -178 247q-23 67 -23 136q0 40 11 100l66 -23q14 -6 38 -14l-6 -37q0 -3 0.5 -3.5t0.5 -16.5q0 -141 110 -257q68 -70 163 -117q364 -185 364 -458q0 -112 -92 -248q21 -28 45 -70q93 -172 93 -327q0 -84 -31 -171q-42 -103 -149 -192.5t-269 -153.5z" />
    <glyph glyph-name="uni09E2" unicode="&#x9e2;" horiz-adv-x="442" 
d="M129 -736q-6 0 -17 0.5t-23.5 1t-24 1.5t-16.5 1q25 79 27 110q15 60 15 123q0 70 -18 122q-33 116 -110 160q-43 25 -81 25q-64 0 -114 -60l-5 -8q70 0 114 -43.5t44 -106.5q0 -62 -44 -106t-106 -44t-106 44q-49 51 -49 143q0 83 40 152q66 113 186 134q25 5 45 5
q62 0 126 -34q109 -70 157 -197q32 -83 32 -172q0 -40 -18 -137q205 35 288 190q34 65 34 127q0 117 -113 227q-75 73 -185 128q-151 73 -248 200q-88 126 -88 268q0 32 9 97q8 -2 22.5 -6.5t30 -10t29 -10t20.5 -7.5q-3 -27 -3 -57q0 -140 110 -258q72 -74 164 -116
q290 -144 346 -348q16 -46 16 -111q0 -93 -53 -184q-123 -243 -433 -243z" />
    <glyph glyph-name="uni09E3" unicode="&#x9e3;" horiz-adv-x="1192" 
d="M128 -731q-25 0 -80 8q41 126 41 230q0 71 -18 123q-31 110 -110 160q-44 25 -81 25q-59 0 -117 -62l-2 -4q71 0 115 -43.5t44 -106.5q0 -62 -44 -106t-106 -44t-106 44q-27 28 -37 62h-2q-11 53 -11 79q0 82 62 182q91 108 209 108q62 0 131 -40q106 -66 151 -191
q33 -81 33 -172q0 -50 -17 -137q202 37 283 185v2q38 66 38 130q0 116 -110 229q-72 72 -188 127q-143 63 -248 199q-88 128 -88 269q0 40 8 98q4 -2 12.5 -4.5t17 -5.5t17 -5t55.5 -19q-2 -20 -2 -59q0 -140 109 -258q71 -72 163 -116q6 -4 16 -8q8 111 57 184l6 5
q93 103 205 103q61 0 125 -34q112 -74 158 -197q33 -89 33 -172q0 -52 -18 -136q199 33 284 181v5q37 67 37 131q0 115 -111 228q-71 72 -186 127q-147 67 -248 199q-89 127 -89 268q0 43 8 101q17 -7 33 -12.5t15 -5.5q1 0 5 -1t10.5 -3.5t11.5 -4t11 -3.5t10.5 -4t6.5 -2
q-3 -39 -3 -58q0 -143 110 -259q76 -76 163 -115q364 -181 364 -458q0 -95 -54 -185q-123 -243 -432 -243q-35 0 -82 4q25 82 27 108q17 68 17 126q0 66 -21 125q-32 111 -110 155q-40 26 -80 26q-45 0 -83 -30q44 -9 78 -42q44 -43 44 -106q0 -62 -44 -106q-25 -25 -55 -36
q146 -140 146 -313q0 -97 -57 -190l1 3q-122 -242 -431 -242z" />
    <glyph glyph-name="uni09E6" unicode="&#x9e6;" horiz-adv-x="1298" 
d="M638 226q184 0 308 130q130 138 130 339q0 194 -130 333q-125 134 -308 134q-182 0 -305 -135q-128 -137 -128 -332q0 -205 128 -339q126 -130 305 -130zM636 111q-226 0 -385.5 164.5t-159.5 418.5q0 245 160 413q154 167 385 167q230 0 388 -168q162 -174 162 -412
q0 -251 -162 -420q-157 -163 -388 -163z" />
    <glyph glyph-name="uni09E7" unicode="&#x9e7;" horiz-adv-x="1025" 
d="M461 42q-98 0 -168 26q-212 104 -212 293q0 67 33 131q72 115 188 115q29 0 57 -11q34 -11 61 -38q46 -45 46 -110q0 -64 -45.5 -109.5t-109.5 -45.5q-65 0 -113 48l2 -11q11 -94 139 -158l-4 1q57 -19 123 -19q30 0 48 3q169 22 256 173q43 84 43 167q0 31 -7 66
q-26 128 -135 244q-81 86 -202 156q-155 84 -224 164q-75 87 -75 194q0 49 22 119l110 -31q-18 -65 -18 -85q0 -63 45.5 -119t174.5 -130q18 -11 25 -14q291 -169 372 -401q28 -82 28 -159q0 -113 -58 -227q-136 -232 -402 -232z" />
    <glyph glyph-name="uni09E8" unicode="&#x9e8;" horiz-adv-x="1241" 
d="M1154 -34q-498 340 -1034 486q-11 1 -55 13q2 8 35 110l57 -15q101 -15 200 -15q166 0 304 56q100 54 156 110q61 61 61 132q0 98 -98 175q-92 78 -318 137q-158 42 -215 91l1 -2q-71 57 -78 196l118 -23q5 -65 33 -89q32 -25 169 -62q244 -66 361 -156
q141 -122 141 -264l-2 -32q-17 -171 -245 -301q-99 -47 -234 -70q385 -163 709 -385q-33 -43 -36 -46t-30 -46z" />
    <glyph glyph-name="uni09E9" unicode="&#x9e9;" horiz-adv-x="1545" 
d="M834 85q-85 0 -176 26q-153 36 -313 196q-131 140 -202.5 335t-71.5 436q0 68 4 120l112 -5l-2 -112q0 -217 60 -391t171 -296q193 -193 419 -193q139 0 261 87q94 71 134 147q76 125 76 274q0 145 -66 260q-79 118 -194 168q-52 23 -104 23q-24 2 -37 2q-67 0 -119 -27
q-43 -25 -97 -83q-38 -58 -38 -127q0 -40 14 -73q8 50 45 88q48 48 116 48q67 0 115 -48t48 -115q0 -68 -48 -116q-42 -41 -98 -47q-34 -7 -54 -7q-47 0 -98 20q-92 38 -124 118q-31 59 -31 129q0 99 61 198l3 4q65 77 133 113q82 41 198 41q84 0 164 -37q144 -63 242 -210
q83 -147 83 -320q0 -185 -91 -336q-35 -67 -122 -145q-165 -145 -373 -145z" />
    <glyph glyph-name="uni09EA" unicode="&#x9ea;" horiz-adv-x="1157" 
d="M568 168q131 0 232 75q108 84 108 209t-108 211q-105 76 -232 76q-126 0 -231 -76q-108 -86 -108 -211q0 -124 109 -209q99 -75 230 -75zM568 854q104 0 191 60q86 65 86 165q0 98 -87 166q-83 64 -190 64q-106 0 -186 -65q-41 -31 -64 -74t-23 -91q0 -101 88 -166
q82 -59 185 -59zM568 53q-185 0 -318.5 116.5t-133.5 282.5q0 212 233 350q-170 122 -170 277q0 144 123 250q112 91 266 91q159 0 268 -91q60 -52 91.5 -112t31.5 -138q0 -156 -169 -277q232 -139 232 -350q0 -171 -133 -283q-133 -116 -321 -116z" />
    <glyph glyph-name="uni09EB" unicode="&#x9eb;" horiz-adv-x="1193" 
d="M625 180q114 4 274 72q-202 124 -202 305q0 78 35 161t114 184q-84 9 -152 36q-155 61 -237 236q-163 -207 -222 -388q-30 -103 -30 -180q0 -146 84 -261q119 -165 324 -165h12zM603 76q-259 0 -404 205q-106 150 -106 324q0 161 88 343q58 122 147 240q84 110 221 253
l73 -78l-44 -48q-11 -12 -18 -18q-10 -9 -23 -26q30 -105 91 -160q104 -104 268 -104q33 0 45 1q35 36 58.5 58t30 27.5t9.5 8.5l79 -79q-90 -74 -167 -167q-144 -175 -144 -301q0 -156 231 -252q54 -19 109 -31l-98 -63q-209 -133 -446 -133z" />
    <glyph glyph-name="uni09EC" unicode="&#x9ec;" horiz-adv-x="1430" 
d="M830 59q-56 0 -73 4h-5q-129 20 -261 101q-130 88 -196 192q-165 220 -243 762l117 2q75 -505 220 -701q53 -82 150 -148q146 -97 291 -97q138 0 248 92q139 123 139 326q0 61 -14 129q-14 -10 -27 -20t-28 -20q-92 -53 -180 -53q-38 0 -76 10q-93 24 -157 101
q-51 59 -70 147q-6 26 -6 56q0 31 7 69q27 137 123 292l115 -33q-130 -209 -130 -334q0 -30 14 -64q24 -68 87 -102q48 -27 94 -29q51 0 121 39q84 62 115 97l48 53l34 -84q45 -111 45 -255q0 -258 -181 -412q-138 -120 -321 -120z" />
    <glyph glyph-name="uni09ED" unicode="&#x9ed;" horiz-adv-x="1034" 
d="M420 711q199 2 389 47v354q-41 185 -220 185q-34 0 -80 -8h-4q-197 -48 -288 -271v2q-21 -63 -21 -123q0 -186 224 -186zM922 48h-113v594q-208 -45 -398 -45q-186 0 -271 114q-59 79 -59 186q0 68 29 159q112 285 373 344q50 10 107 10q219 0 307 -198q19 -43 25 -85
v-1079z" />
    <glyph glyph-name="uni09EE" unicode="&#x9ee;" horiz-adv-x="1408" 
d="M453 162q51 0 87 9l-7 -1q200 47 291 269q22 75 22 123q0 186 -221 186q-196 0 -392 -47v-354q17 -100 88 -151q50 -34 132 -34zM452 48q-118 0 -196 56q-36 26 -64.5 62t-48 82t-25.5 83v1079h115v-594q199 46 396 46q60 0 108 -12l1 1q54 -18 63 -22q102 -32 219 -35
q124 3 236 115l106 -61q-51 -51 -59 -57q-73 -60 -148 -89q-86 -22 -155 -22q-30 0 -64 5q23 -56 23 -123q0 -74 -28 -159q-57 -143 -148 -228.5t-233 -116.5l6 1q-53 -11 -104 -11z" />
    <glyph glyph-name="uni09EF" unicode="&#x9ef;" horiz-adv-x="1153" 
d="M491 46l-85 3l11 108h36q57 95 57 177q0 104 -79 161q-43 30 -93 30q-45 0 -85 -30q53 -5 92 -43q44 -44 44 -107q0 -62 -44 -106t-107 -44q-62 0 -106 44q-33 32 -41 74q-12 36 -12 70q0 77 57 155q88 97 207 97q82 0 155 -52q126 -90 126 -254q0 -84 -39 -168
q214 30 299 166q47 88 47 172q0 237 -395 461l-52 27q-131 62 -199 128q-74 78 -74 177q0 50 22 118l111 -33q-19 -57 -19 -84q0 -57 46 -104t177 -111q21 -12 30 -16t16 -8q454 -253 454 -551q0 -111 -65 -230q-74 -124 -235 -183q-121 -44 -257 -44z" />
    <glyph glyph-name="uni09F0" unicode="&#x9f0;" horiz-adv-x="1351" 
d="M1169 -28h-120v15q-292 65 -608 261q-232 140 -353 280l586 871h-745v111h1494v-111h-254v-1427zM1049 108v444q-209 91 -448 235q-3 1 -4 2t-5 1.5t-43 30.5q-34 26 -62 41q-9 5 -20 13l-224 -334q104 -93 260 -191q276 -170 546 -242zM1049 693v706h-230l-285 -425
l66 -44q96 -66 251 -145q108 -56 198 -92z" />
    <glyph glyph-name="uni09F1" unicode="&#x9f1;" horiz-adv-x="1349" 
d="M867 -237q-298 102 -529 244q-85 51 -239 163l76 94q142 -108 226 -156q227 -137 534 -245q-8 -8 -68 -100zM1048 107v1292h-229q-572 -848 -576 -856q103 -95 258 -193q274 -170 547 -243zM1164 -28h-116v15q-286 66 -607 262q-222 132 -352 279l585 871h-755v111h1542
v-111h-297v-1427z" />
    <glyph glyph-name="uni09F2" unicode="&#x9f2;" horiz-adv-x="1141" 
d="M1110 498l-100 106q56 118 56 297q0 183 -190 377q-161 145 -417 206q-113 26 -218 26q-50 0 -120 -6q-7 33 -9 53.5t-13 52.5q93 6 142 6q253 0 479 -107q151 -74 232 -154q219 -206 221 -449q0 -222 -63 -408z" />
    <glyph glyph-name="uni09F3" unicode="&#x9f3;" horiz-adv-x="1298" 
d="M555 91q-94 0 -130 11t-63 22v771h-223v117h226q0 151 -57 223q-55 68 -202 101l11 117q357 -90 357 -415v-26h218v-117h-218v-687q24 -3 43 -3q172 0 311 55q140 62 201 201q14 28 14 79q-8 77 -71 128q-57 50 -130 50q-92 0 -142 -74q-15 -13 -20 -43q40 40 97 40
q58 0 98.5 -41.5t40.5 -112.5q0 -7 -1 -12q-33 -111 -146 -111q-82 0 -153 75q-41 42 -48 96q-6 19 -6 41q0 68 48 142q98 114 242 114q49 0 103 -22t92 -54q88 -77 102 -169q3 -11 3 -52q0 -65 -25 -120q-85 -184 -258 -256q-164 -68 -314 -68z" />
    <glyph glyph-name="uni09F4" unicode="&#x9f4;" horiz-adv-x="1335" 
d="M351 521q-66 0 -138 8q3 24 7 39q5 33 11 65q84 -6 120 -6q227 0 429 98q136 64 207 133q189 196 189 378q0 178 -54 300l100 101q30 -93 46 -186t16 -219q-2 -242 -222 -448q-80 -82 -231 -155q-235 -108 -480 -108z" />
    <glyph glyph-name="uni09F5" unicode="&#x9f5;" horiz-adv-x="1341" 
d="M629 278q-129 0 -317 64l33 100h26q165 103 212 237q18 50 18 85q0 36 -20 76q-9 -46 -44 -81q-48 -47 -115 -47q-68 0 -115.5 47.5t-47.5 115.5q0 67 47 115q51 51 127 51q62 0 124 -28q87 -42 138 -147q15 -54 15 -101q0 -183 -197 -364q72 -10 114 -10q318 0 478 396
q163 331 275 772q9 6 82 79q-38 -276 -108 -503q-61 -189 -133 -354q-60 -160 -145 -270q-180 -233 -447 -233z" />
    <glyph glyph-name="uni09F6" unicode="&#x9f6;" horiz-adv-x="1542" 
d="M629 321q-127 0 -331 65l36 101h27q239 148 239 338q0 15 -6 57v-4q-50 119 -165 119q-21 0 -41 -2q-138 -31 -153 -134q43 42 103 42t103 -43t43 -103q0 -16 -3 -30l-2 -11q-10 -35 -38 -63q-43 -42 -103 -42h-9q-139 0 -197 138q-15 62 -15 91q0 67 37 127
q56 100 212 137q21 7 60 7q69 0 127 -29q99 -54 147 -173q12 -44 12 -83q0 -41 -13 -88q-29 -141 -196 -291q82 -12 125 -12q62 0 115 13q244 58 388 410q27 54 61.5 140t76.5 191q87 229 142 464q14 8 17 9.5t68 66.5q-49 -318 -114 -517q-83 -258 -140 -375
q-67 -161 -152 -273q-93 -123 -196 -180q-118 -63 -265 -63z" />
    <glyph glyph-name="uni09F7" unicode="&#x9f7;" horiz-adv-x="511" 
d="M302 108q-60 0 -87.5 42t-27.5 130q0 25 1 32v919q-6 80 -105 88q21 59 47.5 85t61.5 30q58 -3 84 -46t26 -131q0 -6 -0.5 -13t-0.5 -932q6 -82 104 -90q-36 -109 -103 -114z" />
    <glyph glyph-name="uni09F8" unicode="&#x9f8;" horiz-adv-x="1072" 
d="M851 168q-60 0 -87 42.5t-27 130.5q0 24 1 32q0 592 -1 633q0 17 1 27l-355 -458q-25 -37 -78 -43q-60 1 -86 43.5t-26 128.5q0 24 1 32v474q-6 81 -105 89q21 59 47 85t61 31q58 -3 84.5 -46.5t26.5 -131.5l-1 -27q0 -518 4 -536l341 441q28 49 85 55q112 -4 112 -186
v-611q6 -82 104 -89q-33 -110 -102 -116z" />
    <glyph glyph-name="uni09F9" unicode="&#x9f9;" horiz-adv-x="1109" 
d="M541 318q78 0 150.5 32t126.5 85q118 130 118 307q0 176 -118 301q-112 121 -277 121t-276 -122q-115 -119 -115 -300q0 -186 115 -307q113 -117 276 -117zM539 208q-206 0 -353 149q-145 153 -145 385q0 220 145 376q142 153 353 153t355 -153q147 -157 147 -376
q0 -229 -147 -385q-144 -149 -355 -149z" />
    <glyph glyph-name="uni09FA" unicode="&#x9fa;" horiz-adv-x="1090" 
d="M646 1286q-131 0 -227 91q-78 81 -93 221h108q11 -88 63 -140q61 -64 149 -64q84 0 174 75q95 85 341 379h74q-267 -367 -366 -470q-94 -92 -223 -92zM649 1516q-39 0 -68 29t-29 68q0 36 29 67q26 26 68 26q35 0 67 -28q27 -29 27 -65q0 -40 -28 -68.5t-66 -28.5z" />
    <glyph glyph-name="uni0FD5" unicode="&#xfd5;" horiz-adv-x="1643" 
d="M1402 30h-112v568h-451v-562h-680v112h569v450h-562v681h111v-569h451v563h680v-112h-569v-451h563v-680z" />
    <glyph glyph-name="uni200C" unicode="&#x200c;" 
d="M66 28h-120v1431h120v-1431z" />
    <glyph glyph-name="uni200D" unicode="&#x200d;" 
d="M62 -53h-120v1449l-80 -87q-37 -40 -57 -60l-76 74l201 216q-144 156 -165 177q-29 29 -35 36q18 18 25.5 25t13.5 13t9 8t30 29l195 -211q149 166 194 211l41 -41q2 -5 39 -31l-203 -216q35 -41 203 -217q-32 -28 -43 -39q-5 -7 -36 -32l-136 144v-1448z" />
    <glyph glyph-name="endash" unicode="&#x2013;" horiz-adv-x="1119" 
d="M950 844h-812v119h812v-119z" />
    <glyph glyph-name="emdash" unicode="&#x2014;" horiz-adv-x="1232" 
d="M1080 872h-930v119h930v-119z" />
    <glyph glyph-name="quoteleft" unicode="&#x2018;" horiz-adv-x="715" 
d="M302 1275h-9q-64 0 -103 26q-61 43 -82 126q-3 22 -3 44q0 77 54 133q97 83 201 83q23 0 69 -12l-29 -97h-38q-66 0 -118 -43q-26 -28 -31 -54l2 3q36 36 87 36t87 -36t36 -87q0 -50 -36 -86t-87 -36z" />
    <glyph glyph-name="quoteright" unicode="&#x2019;" horiz-adv-x="764" 
d="M389 1275q-23 0 -69 12l29 97h38q66 0 118 43q26 27 31 54q-39 -39 -89 -39q-51 0 -87 36t-36 87q0 50 36 86t96 36q64 0 103 -26q61 -43 83 -125q2 -23 2 -45q0 -77 -54 -133q-97 -83 -201 -83z" />
    <glyph glyph-name="quotesinglbase" unicode="&#x201a;" horiz-adv-x="495" 
d="M146 -226h-105l127 453h135z" />
    <glyph glyph-name="quotedblleft" unicode="&#x201c;" horiz-adv-x="1114" 
d="M744 1275h-9q-64 0 -103 26q-61 43 -82 126q-3 22 -3 44q0 77 54 133q97 83 201 83q23 0 69 -12l-29 -97h-38q-66 0 -118 -43q-26 -28 -31 -54l2 3q36 36 87 36t87 -36t36 -87q0 -50 -36 -86t-87 -36zM302 1275h-9q-64 0 -103 26q-61 43 -82 126q-3 22 -3 44q0 77 54 133
q97 83 201 83q23 0 69 -12l-29 -97h-38q-66 0 -118 -43q-26 -28 -31 -54l2 3q36 36 87 36t87 -36t36 -87q0 -50 -36 -86t-87 -36z" />
    <glyph glyph-name="quotedblright" unicode="&#x201d;" horiz-adv-x="1193" 
d="M355 1275q-23 0 -69 12l29 97h38q66 0 118 43q26 27 31 53l-3 -2q-35 -36 -86 -36t-87 36t-36 86q0 51 36 87t96 36q64 0 103 -26q61 -43 83 -125q2 -23 2 -45q0 -77 -54 -133q-97 -83 -201 -83zM797 1275q-23 0 -69 12l29 97h38q66 0 118 43q25 27 30 52
q-37 -37 -88 -37t-86.5 36t-35.5 87q0 50 35.5 86t95.5 36q64 0 103 -26q61 -43 83 -125q2 -23 2 -45q0 -77 -54 -133q-97 -83 -201 -83z" />
    <glyph glyph-name="quotedblbase" unicode="&#x201e;" horiz-adv-x="715" 
d="M384 -230h-105l125 457h137zM149 -230h-105l128 457h135z" />
    <glyph glyph-name="dagger" unicode="&#x2020;" horiz-adv-x="774" 
d="M398 203h-66l-29 690l-276 -27v141l293 -19q-9 113 -27 386h145l-28 -386q66 4 139 9.5t136 9.5v-142l-257 28q-8 -169 -15 -346t-15 -344z" />
    <glyph glyph-name="daggerdbl" unicode="&#x2021;" horiz-adv-x="760" 
d="M439 203h-147l27 299l-292 -27v140l278 -19q8 51 16.5 96t16.5 96q-5 27 -9 50.5t-7.5 46t-8 46t-8.5 50.5q-184 -14 -278 -20v141l293 -27q-19 195 -28 299h147l-27 -299q174 16 273 27v-141l-259 19q-18 -96 -33 -192q4 -27 8 -50t8 -45.5t8 -46t9 -50.5q62 4 131 10
t128 9v-140l-274 27q12 -142 28 -299z" />
    <glyph glyph-name="bullet" unicode="&#x2022;" horiz-adv-x="850" 
d="M385 437q-101 0 -175 71q-73 73 -73 169q0 98 72.5 171.5t175.5 73.5q100 0 171.5 -72.5t71.5 -172.5t-72 -170t-171 -70z" />
    <glyph glyph-name="ellipsis" unicode="&#x2026;" horiz-adv-x="1370" 
d="M1083 -29q-40 0 -66 27t-26 68q0 40 26 65.5t66 25.5t67.5 -25.5t27.5 -65.5q0 -41 -27.5 -68t-67.5 -27zM648 -29q-40 0 -66.5 27t-26.5 68q0 40 26.5 65.5t66.5 25.5t67 -25.5t27 -65.5q0 -41 -27 -68t-67 -27zM216 -29q-40 0 -66.5 27t-26.5 68q0 40 26.5 65.5
t66.5 25.5t67 -25.5t27 -65.5q0 -41 -27 -68t-67 -27z" />
    <glyph glyph-name="perthousand" unicode="&#x2030;" horiz-adv-x="2415" 
d="M413 675q-155 0 -244 101q-86 98 -86 259q0 173 93.5 269.5t246.5 96.5q147 0 236 -98t89 -266q0 -155 -90 -257q-93 -105 -245 -105zM415 785q101 0 155 67q58 70 58 187q0 122 -55 186.5t-152 64.5q-100 0 -159 -66.5t-59 -190.5q0 -116 56 -182t156 -66zM424 -45h-133
l836 1418h130zM1931 -37q-154 0 -243 101q-86 98 -86 259q0 173 95.5 270t244.5 97q148 0 236 -99t88 -266q0 -155 -90 -257q-93 -105 -245 -105zM1933 72q98 0 156 66q58 78 58 188q0 126 -56 189.5t-151 63.5q-98 0 -158 -67t-60 -191q0 -114 57 -184q56 -65 154 -65z
M1154 -37q-155 0 -243 99.5t-88 260.5q0 174 96 270.5t244 96.5t236.5 -99.5t88.5 -265.5q0 -157 -90 -257q-92 -105 -244 -105zM1156 72q98 0 156 66q57 77 57 188q0 125 -55.5 189t-152.5 64q-100 0 -157 -67q-60 -72 -60 -191q0 -115 57 -184q56 -65 155 -65z" />
    <glyph glyph-name="guilsinglleft" unicode="&#x2039;" horiz-adv-x="648" 
d="M514 176h-149l-277 335l277 342h151l-282 -342q31 -38 67.5 -81.5t74 -87.5t73 -87t65.5 -79z" />
    <glyph glyph-name="guilsinglright" unicode="&#x203a;" horiz-adv-x="648" 
d="M217 176h-153l283 342l-281 335h151l274 -335z" />
    <glyph glyph-name="lira" unicode="&#x20a4;" horiz-adv-x="1114" 
d="M915 -14h-854v110q234 97 234 333v59h-215v119h215v139h-215v119h215v123q0 185 98 297.5t261 112.5q93 0 189 -39v-129q-112 54 -192 54q-112 0 -173.5 -79t-61.5 -229v-111h310v-119h-310v-139h310v-119h-310v-27q0 -234 -166 -361h665v-114z" />
    <glyph glyph-name="uni20A8" unicode="&#x20a8;" horiz-adv-x="1888" 
d="M995 -14h-143l-185 407q-53 118 -105.5 157.5t-130.5 39.5h-151v-604h-128v1389h393q187 0 294.5 -101t107.5 -268q0 -144 -75.5 -242t-221.5 -137q69 -50 132 -184zM496 709q147 0 233.5 76.5t86.5 210.5q0 121 -77 190t-223 69h-236v-546h216zM1313 -37q-146 0 -250 73
v152q133 -112 257 -112q211 0 211 169q0 55 -45 97t-158 90q-143 63 -202 130.5t-59 168.5q0 126 95 203t234 77q130 0 231 -58v-140q-128 85 -240 85q-89 0 -142.5 -45.5t-53.5 -116.5q0 -59 33 -100q37 -43 156 -95q154 -69 212 -129q63 -63 63 -167q0 -124 -92 -204
q-88 -78 -250 -78z" />
    <glyph glyph-name="Euro" unicode="&#x20ac;" horiz-adv-x="1093" 
d="M653 -37q-177 0 -300 133q-60 65 -98 152t-57 211h-139v113h128q-2 20 -2 106q0 48 4 84h-130v113h143q46 245 170 379q132 144 319 144q124 0 238 -56v-138q-134 80 -245 80q-130 0 -227 -106q-91 -99 -129 -303h508v-113h-524q-2 -20 -2 -99q0 -34 0.5 -43.5t1 -20.5
t1.5 -27h523v-113h-508q35 -192 124 -289q86 -94 212 -94q113 0 265 103v-136q-130 -80 -276 -80z" />
    <glyph glyph-name="indianrupee" unicode="&#x20b9;" horiz-adv-x="1485" 
d="M1037 145q-521 245 -965 399l17 60q1 9 16 54q113 -20 211 -20q177 0 317 63q119 50 178 119q89 105 89 226l-1 28h-671v120h643q-10 25 -23 46q-110 141 -271 159q-205 0 -240 -1l1 1h-384v111h1532v-111h-623q45 -36 79 -80q42 -67 57 -125h298v-120h-278v-17
q0 -173 -133 -335q-131 -149 -433 -196q227 -88 390 -161q189 -84 246 -113q-1 -2 -2.5 -6.5t-4 -10t-4.5 -10t-8 -15.5q-9 -19 -15 -30.5t-11 -21.5t-7 -13z" />
    <glyph glyph-name="trademark" unicode="&#x2122;" horiz-adv-x="1593" 
d="M1325 716h-111v443q-106 -245 -190 -443h-87l-180 441v-441h-112v659h137l201 -492q104 240 212 492h130v-659zM378 716h-112v551h-209v108h531v-108h-210v-551z" />
    <glyph glyph-name="minus" unicode="&#x2212;" horiz-adv-x="846" 
d="M671 540h-551v119h551v-119z" />
    <glyph glyph-name="lessequal" unicode="&#x2264;" horiz-adv-x="1336" 
d="M1047 212l-821 415v39l821 460v-129l-624 -348l624 -307v-130zM1082 46h-891v113h891v-113z" />
    <glyph glyph-name="greaterequal" unicode="&#x2265;" horiz-adv-x="1314" 
d="M226 212v130l623 307l-623 348v129l821 -460v-39zM1082 46h-891v113h891v-113z" />
    <glyph glyph-name="uni25CC" unicode="&#x25cc;" horiz-adv-x="1295" 
d="M650 1187q-66 0 -66 69q0 65 66 65q64 0 64 -65q0 -69 -64 -69zM844 1150q-66 0 -66 65t66 65q63 0 63 -65t-63 -65zM456 1150q-65 0 -65 65t65 65q67 0 67 -65t-67 -65zM1009 1041q-68 0 -68 63q0 69 68 69q65 0 65 -69q0 -63 -65 -63zM292 1041q-65 0 -65 60
q0 72 65 72q68 0 68 -69q0 -63 -68 -63zM1115 875q-66 0 -66 64q0 65 68 65q66 0 66 -65q0 -64 -68 -64zM186 875q-68 0 -68 64q0 65 65 65q66 0 66 -65q0 -64 -63 -64zM1159 680q-67 0 -67 66q0 67 67 67q65 0 65 -67q0 -66 -65 -66zM145 680q-66 0 -66 66q0 67 66 67
t66 -67q0 -66 -66 -66zM1115 489q-66 0 -66 66q0 65 66 65q68 0 68 -65q0 -66 -68 -66zM183 489q-65 0 -65 66q0 65 65 65q66 0 66 -65q0 -66 -66 -66zM1009 321q-66 0 -66 66t66 66q68 0 68 -66t-68 -66zM292 321q-65 0 -65 66t65 66q68 0 68 -66t-68 -66zM844 214
q-66 0 -66 63q0 70 66 70q67 0 67 -70q0 -63 -67 -63zM456 214q-65 0 -65 63q0 70 65 70q67 0 67 -65q0 -68 -67 -68zM650 173q-66 0 -66 68q0 66 66 66q64 0 64 -66q0 -68 -64 -68z" />
    <glyph glyph-name="uni2713" unicode="&#x2713;" horiz-adv-x="1229" 
d="M489 229l-367 348l82 79l285 -274l572 546l82 -78z" />
    <glyph glyph-name="uni274C" unicode="&#x274c;" horiz-adv-x="1277" 
d="M974 171l-315 318l-316 -318l-80 80l316 315l-316 318l80 79l316 -316q37 38 158 158l157 158l80 -79l-316 -318l316 -315z" />
    <glyph glyph-name="Charu_Chandan" horiz-adv-x="744" 
d="M492 -44q-104 0 -183 55q-89 53 -144.5 140.5t-79 182t-28 159.5t-4.5 119q0 317 172 564q112 146 216 223l155 111h327v-111h-259q-199 -94 -321 -259q-173 -224 -173 -532q0 -141 22 -211q45 -201 178 -288q55 -34 116 -36q-48 48 -48 110q0 63 44 106.5t106 43.5
t106.5 -44.5t44.5 -111.5q0 -23 -3 -45q-24 -137 -149 -164q-46 -12 -95 -12z" />
    <glyph glyph-name="Charu_Chandan.1" horiz-adv-x="752" 
d="M492 -44q-104 0 -183 55q-89 53 -144.5 140.5t-79 182t-28 159.5t-4.5 119q0 317 172 564q112 146 216 223l155 111h196q-5 79 -25 121q-39 69 -142 85q-18 4 -43 4q-71 0 -189 -25q-111 -28 -172 -28l-19 1q-175 10 -255 124q-44 69 -44 144q0 47 26 125q7 -3 16.5 -6.5
t19 -7.5t17.5 -7.5t13 -4.5q1 -1 7 -3t12.5 -4t12.5 -4t8 -2q-14 -53 -14 -70q0 -167 199 -167q44 0 146 22q135 29 214 29q35 0 67 -5q154 -30 221 -144q43 -79 43 -177h12v-111h-259q-199 -94 -321 -259q-173 -224 -173 -532q0 -141 22 -211q45 -201 178 -288
q55 -34 116 -36q-48 48 -48 110q0 63 44 106.5t106 43.5t106.5 -44.5t44.5 -111.5q0 -23 -3 -45q-24 -137 -149 -164q-46 -12 -95 -12z" />
    <glyph glyph-name="Charu_Chandan.2" 
d="M-381 1610l-82 82l379 383l80 -80z" />
    <glyph glyph-name="Charu_Chandan.3" horiz-adv-x="1918" 
d="M1149 -28h-115v15q-288 67 -608 263q-230 138 -351 279l586 870h-757v111h2085v-111h-625q323 -141 397 -354q30 -76 30 -176q0 -102 -40 -171q-62 -119 -195 -143q-31 -6 -60 -6q-100 0 -188 65q-79 80 -79 189q0 18 6 55t35.5 79t81.5 64q33 14 70 14q89 0 138 -49
q40 -40 44 -96l1 -15h-1q-2 -59 -45 -102t-105 -43q-54 0 -94 33q30 -80 126 -80q61 0 109 32q80 54 80 170q0 83 -23 139q-52 145 -263 258q-107 54 -240 89v-1379zM1034 105v1294h-232l-577 -857q111 -101 261 -193q274 -170 548 -244z" />
    <glyph glyph-name="Charu_Chandan.4" 
d="M-520 248q65 -44 85 -143q6 -30 6 -55q0 -94 -79 -161q-85 -77 -224 -77q-49 0 -83 10q-112 39 -181 135q-20 25 -32 52q-42 87 -42 184q0 103 43 169q80 155 271 207q60 16 124 16q101 0 221 -56q94 -44 165 -111v538h117v-1127h-117v408q-61 82 -168 164
q-107 68 -218 68q-49 0 -98 -12q-25 -6 -75 -32q-86 -53 -122 -116q-28 -56 -28 -117q0 -49 15 -103q26 -109 161 -156q13 -5 42 -5q9 0 24 2q88 8 124 39q11 9 19 17q-21 -6 -44 -6q-62 0 -106 44t-44 106q0 63 44 106.5t106 43.5q54 0 94 -32z" />
    <glyph glyph-name="Charu_Chandan.5" 
d="M-473 -61q-126 0 -242 73q-108 60 -180 168.5t-116 274.5q96 20 109 22q80 -279 251 -372q81 -50 175 -50q168 0 256 100q45 49 58 106q8 46 8 94q0 20 -2 38.5t-3 34.5q-19 80 -64 123q-83 79 -176 79q-43 0 -81 -17q59 -4 102 -47q48 -48 48 -115q0 -68 -48 -115.5
t-115 -47.5t-114 46q-24 14 -48 55t-24 99q0 23 6 46q21 91 95 150q49 40 113 51q26 8 62 8q138 0 260 -110q65 -62 88 -170q14 -55 14 -109q0 -179 -116 -298q-145 -117 -316 -117z" />
    <glyph glyph-name="Charu_Chandan.6" horiz-adv-x="1317" 
d="M1131 -28h-117v14q-284 65 -606 262q-221 129 -353 278l470 501q19 63 19 105q0 69 -37 141q-49 104 -173 104q-62 0 -107 -36l16 1q62 0 106 -43.5t44 -106.5q0 -60 -42 -104q-47 -47 -121 -47q-62 0 -112 56q-29 30 -43 73t-14 81q15 120 87 181q78 63 185 63
q27 0 47 -2q162 -27 235 -167q48 -100 48 -192q0 -76 -33 -163q-5 -10 -7 -12t-17 -22l-386 -410q221 -187 521 -319q156 -70 273 -101v1467h115v-64h257v-111h-255v-1427z" />
    <glyph glyph-name="Charu_Chandan.7" horiz-adv-x="1318" 
d="M1131 -28h-117v14q-284 65 -606 262q-221 129 -353 278l470 501q19 63 19 105q0 69 -37 141q-49 104 -173 104q-62 0 -107 -36l16 1q62 0 106 -43.5t44 -106.5q0 -60 -42 -104q-47 -47 -121 -47q-62 0 -112 56q-29 30 -43 73t-14 81q15 120 87 181q78 63 185 63
q27 0 47 -2q162 -27 235 -167q48 -100 48 -192q0 -76 -33 -163q-5 -10 -7 -12t-17 -22l-386 -410q221 -187 521 -319q156 -70 273 -101v1467h115v-64h257v-111h-255v-1427z" />
    <glyph glyph-name="Charu_Chandan.8" horiz-adv-x="1349" 
d="M1128 -28h-115v14q-284 65 -609 262q-228 142 -350 278l389 586q-156 9 -279 117q-100 97 -100 218q0 48 8 72q11 58 44 106q80 117 216 117q28 0 80 -10q97 -34 124 -114q15 -42 15 -76q0 -66 -44 -110t-106 -44t-106 44t-44 106q0 41 18 73q-26 -10 -55 -54
q-33 -48 -33 -108q0 -72 64 -133q87 -89 205 -89q36 0 76 10q90 132 184 273h703v-111h-285v-1427zM1013 101v1298h-239q-240 -358 -427 -641q-71 -108 -144 -217q233 -198 538 -337q155 -71 272 -103z" />
    <glyph glyph-name="Charu_Chandan.9" horiz-adv-x="1062" 
d="M627 -188q-48 0 -82 10q-115 40 -182 135q-34 42 -53 103q-21 77 -21 133q0 94 44 170q84 152 269 206q62 16 125 16q199 0 386 -171v182l117 1v-768h-117v406q-71 93 -169 166q-106 68 -217 68q-50 0 -99 -12q-16 -5 -65 -29q-1 0 -2.5 -1t-3.5 -1q-89 -56 -125 -117
q-29 -51 -29 -117q0 -54 17 -103q26 -109 160 -156q13 -5 41 -5q11 0 26 2q109 10 148 64q-29 -14 -64 -14q-63 0 -106.5 44t-43.5 106t43.5 106t113.5 44q49 0 92 -27q73 -43 94 -148q6 -30 6 -55q0 -97 -78 -161q-86 -77 -225 -77z" />
    <glyph glyph-name="Charu_Chandan.10" 
d="M-290 -86v596l-419 -374q67 -52 132 -95q119 -77 287 -127zM-172 -232q-196 30 -465 176q-92 55 -242 195q78 66 248 217q74 65 183 165q35 28 57 48.5t50.5 44.5t51.5 45h117v-891z" />
    <glyph glyph-name="Charu_Chandan.11" 
d="M-471 -121q-66 0 -153 29q-78 25 -166 73q-272 163 -519 687q30 10 109 48q62 -140 154 -284q79 -123 165 -220q85 -91 143 -121q158 -94 267 -94q45 0 80 15q111 46 147 161q47 147 47 274q0 18 -3 34v13q-207 -142 -364 -142q-113 0 -196 68q-89 74 -89 200
q0 103 66 177q74 72 180 72q94 -5 140 -72q37 -42 37 -101q0 -62 -43.5 -106t-97.5 -44h-10q-60 0 -105 44q-32 32 -41 75q-6 -20 -6 -43q0 -73 34 -110q56 -43 123 -43q25 0 62 6q160 35 312 182q43 44 71 85l30 -113q21 -86 21 -172q0 -145 -52 -315q-28 -82 -83 -146
q-101 -117 -260 -117z" />
    <glyph glyph-name="Charu_Chandan.12" 
d="M-163 -556l-108 1q-17 43 -36 83q-65 121 -222 121q-109 0 -263 -71q-61 -35 -172 -61q-64 -11 -104 -11q-137 1 -304 125v162q171 -175 323 -175q68 4 150 34q39 16 138 63q105 50 230 50q79 0 162 -34q48 -19 88 -52v648l118 111v-994z" />
    <glyph glyph-name="Charu_Chandan.13" 
d="M-105 -222h-120v492q-63 62 -115 66q-36 -9 -73 -66q7 -11 28 -61l-41 -12q-7 -3 -8.5 -3t-2.5 -1q-14 -3 -51 -21q-33 77 -84 128q-75 69 -160 69q-40 0 -103 -18q-25 -10 -49 -30q-95 -79 -95 -196q0 -23 4 -49q27 -170 191 -170q-33 11 -60 37q-44 44 -44 106
q0 63 44.5 106t102.5 44q47 0 82 -22q71 -47 84 -130q2 -14 2 -30q0 -85 -53 -148q-58 -73 -175 -73q-33 0 -61 7q-157 37 -211 181q-20 78 -20 137q0 102 53 191q71 108 189 155q72 18 121 18q130 0 249 -116q74 78 136 82q60 -2 120 -39v683h120v-1317z" />
    <glyph glyph-name="Charu_Chandan.14" horiz-adv-x="1914" 
d="M1149 -28h-115v15q-288 67 -608 263q-230 138 -351 279l586 870h-757v111h2085v-111h-625q323 -141 397 -354q30 -76 30 -176q0 -102 -40 -171q-62 -119 -195 -143q-31 -6 -60 -6q-100 0 -188 65q-79 80 -79 189q0 18 6 55t35.5 79t81.5 64q33 14 70 14q89 0 138 -49
q40 -40 44 -96l1 -15h-1q-2 -59 -45 -102t-105 -43q-54 0 -94 33q30 -80 126 -80q61 0 109 32q80 54 80 170q0 83 -23 139q-52 145 -263 258q-107 54 -240 89v-1379zM1034 105v1294h-232l-577 -857q111 -101 261 -193q274 -170 548 -244z" />
    <glyph glyph-name="Charu_Chandan.15" horiz-adv-x="1423" 
d="M1216 -28h-116v12q-271 61 -607 266q-229 145 -350 281l572 480q6 38 6 81q-2 109 -68 223q-21 -133 -103 -202q-97 -77 -217 -77q-12 0 -21 1q-126 12 -187 117q-21 40 -21 93q0 79 48 128q45 45 109 45t109 -45t45 -109q0 -63 -44 -107q60 8 101 42q69 61 69 176
q0 57 -9 124q73 22 77 24q19 -9 74.5 -62.5t104 -160.5t48.5 -227q0 -63 -11 -118l-20 -23l-492 -408q108 -90 238 -173q280 -171 549 -243v1464h116v-64h287v-111h-287v-1427z" />
    <glyph glyph-name="Charu_Chandan.16" horiz-adv-x="797" 
d="M422 483l-23 42q-4 4 -5.5 7.5t-34.5 51.5q159 121 214 207q55 76 55 110l-1 10q-5 21 -73 21q-161 0 -340 -34q-5 -2 -10 -2.5t-10 -2.5q-19 -5 -61 -10l8 77q26 174 121 312q110 167 298 167q230 0 441 -271q64 -83 174 -302l-88 -99q-168 367 -294 453
q-133 102 -235 102q-20 0 -37 -2q-99 -20 -153 -104v-2q-52 -73 -91 -186q158 22 239 22q30 0 41 -1q132 0 174 -83q14 -31 14 -63q0 -79 -80 -183q-67 -102 -243 -237z" />
    <glyph glyph-name="Charu_Chandan.17" horiz-adv-x="1337" 
d="M1052 117v1282h-642q-99 -84 -148 -158q-58 -82 -58 -130q0 -12 13 -43l-1 3q17 -28 151 -28q128 0 312 29q10 -56 22 -112q-36 -9 -41 -9l-101 -105q-100 -106 -195 -204q-50 -51 -102 -106q93 -79 246 -177q286 -176 544 -242zM1167 -28h-115v25q-282 64 -607 260
q-220 138 -348 279l378 395q-105 -3 -161 -3q-226 4 -226 183q0 84 75 195q17 26 75 93h-305v111h1480v-111h-246v-1427z" />
    <glyph glyph-name="Charu_Chandan.18" horiz-adv-x="1198" 
d="M864 63q-151 0 -336 110q-242 138 -479 550l106 55q197 -361 435 -506q158 -92 273 -92q56 0 93 15q125 55 162 178q57 191 57 432q-223 -87 -362 -110q-37 -10 -79 -10q-95 0 -145 61q-42 53 -42 131q0 75 38 178q-19 60 -19 139q0 87 51 205l51 111l111 -40
q-61 -125 -80 -182q-13 -52 -14 -78q55 39 123 41q81 0 143 -57q57 -62 57 -143q0 -85 -51 -139q-70 -62 -148 -62q-74 0 -142 59q-2 -30 -2 -44q0 -30 14 -50q16 -13 52 -13q23 0 55 5q170 23 417 137q11 3 29 13l44 22l10 -84q7 -58 7 -134q0 -212 -64 -423
q-58 -181 -231 -252q-71 -23 -134 -23zM809 968q37 0 61 23.5t24 59.5q0 29 -25 62q-28 23 -60 23q-33 0 -60 -25q-22 -31 -22 -60q0 -35 23 -59t59 -24z" />
    <glyph glyph-name="Charu_Chandan.19" horiz-adv-x="1291" 
d="M387 84q206 0 369 77q201 77 289 285q14 38 14 80q0 17 -2 37q-16 120 -107 198q-64 59 -195 59q-168 0 -452 -142v-589q30 -5 84 -5zM386 -28q-97 0 -194 22v1405h-267v111h1475v-111h-1097v-593q273 124 447 124q191 0 301 -113q119 -119 119 -292q0 -67 -20 -121
q-99 -246 -348 -344q-195 -88 -416 -88z" />
    <glyph glyph-name="Charu_Chandan.20" horiz-adv-x="836" 
d="M387 84q206 0 369 77q201 77 289 285q14 38 14 80q0 17 -2 37q-16 120 -107 198q-64 59 -195 59q-168 0 -452 -142v-589q30 -5 84 -5zM386 -28q-97 0 -194 22v1405h-267v111h1475v-111h-1097v-593q273 124 447 124q191 0 301 -113q119 -119 119 -292q0 -67 -20 -121
q-99 -246 -348 -344q-195 -88 -416 -88z" />
    <glyph glyph-name="Charu_Chandan.21" horiz-adv-x="1398" 
d="M1375 -244q-364 100 -663 289l-17 -1q-1 3 -2.5 10t-27.5 93q193 33 337 86q112 54 125 117q0 40 -39 81q-49 39 -116 49q-118 -112 -253 -162q-187 -70 -421 -70q-51 0 -69 2h-41v1149h-266v111h1578v-111h-1200v-338q264 107 422 107q45 0 83 -6q111 -20 173 -74
q147 -122 147 -274q0 -69 -30 -150q-23 -52 -47 -89q82 -36 109 -58q82 -69 82 -167q-8 -134 -203 -222q-62 -21 -165 -49q280 -148 533 -215zM300 357q93 4 197 19q130 22 186 44l5 5q217 72 303 279q21 48 21 105q0 106 -103 195h1l-6 6l1 -2q-59 51 -179 51
q-164 0 -426 -122v-580z" />
    <glyph glyph-name="Charu_Chandan.22" horiz-adv-x="768" 
d="M650 449q-116 0 -258 87q-186 101 -368 421l99 55q155 -287 325 -379q116 -70 202 -70q41 0 63 10q91 39 119 126q35 121 43 307q-228 -85 -323 -85q-77 0 -115 50q-24 37 -24 81q0 61 60 169q43 68 153 178h-723v111h1586v-111h-614q15 -9 20 -13q9 -6 19 -11.5
t23 -13.5q69 -40 189 -82q140 -47 210 -65q88 -18 296 -55l-57 -111q-231 46 -277 59q-52 13 -136 37q-31 11 -52 17.5t-29 11.5q-2 1 -5 2t-6 3q-8 3 -20.5 7t-27.5 10q-57 22 -65 27l-12 6q-70 33 -130 73q-29 14 -71 46q-214 -169 -214 -309q16 -3 27 -3q101 0 348 105
l-5 -3l26 13q8 5 19 10q24 12 32 17q13 -130 13 -188q0 -151 -50 -322q-39 -111 -129 -170q-83 -48 -161 -48z" />
    <glyph glyph-name="Charu_Chandan.23" horiz-adv-x="1756" 
d="M1574 -28h-115v511q-142 91 -300 125v-636h-115v14q-287 64 -609 262q-211 125 -353 281l588 870h-747v111h1236v-783q142 -23 300 -104v951h115v-64h255v-111h-255v-1427zM1044 108v1291h-230l-576 -858q110 -97 260 -191q267 -169 546 -242z" />
    <glyph glyph-name="Charu_Chandan.24" horiz-adv-x="1893" 
d="M1370 -28h-116v22q-208 211 -403 211q-86 0 -189 -15q-135 -15 -190 -15q-100 12 -185.5 61t-138.5 141q-81 126 -97 315l116 1q7 -57 18 -106.5t29 -88.5q39 -94 108.5 -146.5t160.5 -60.5q76 0 163 11q137 17 210 17q24 0 50 -2q88 -7 202 -59q70 -33 146 -101v950
q-161 193 -347 228q-45 5 -70 5q-51 0 -101 -15q-172 -62 -225 -219q-19 -61 -19 -116q0 -22 3 -43q32 -116 106 -156q53 -29 105 -29q20 0 42 4q55 9 86 31l-18 -1q-62 0 -106 44t-44 106q0 63 44.5 107t113.5 44q10 0 32 -6l7.5 -3t4.5 -1q64 -24 110 -106q13 -43 13 -85
q0 -164 -160 -231q-50 -17 -117 -17q-95 0 -170 43q-123 73 -162 236q-5 38 -5 69q0 97 39 190q78 175 281 250q73 20 129 20q48 0 101 -11q260 -48 443 -300v-29q70 38 140 38q106 0 180 -71q69 -69 69 -171q0 -107 -96 -193q96 -93 96 -191q0 -104 -71 -172
q-72 -72 -171 -72q-71 0 -147 41v-353zM1512 393q57 0 96.5 40t39.5 99q0 54 -41 94l2 -1q-36 32 -94 44v94q35 7 54.5 18t39.5 28l-1 -2q40 39 40 98t-39 97.5t-97 38.5q-54 0 -101 -32l-1 -2q-26 -20 -40 -42v-495q52 -77 142 -77z" />
    <glyph glyph-name="Charu_Chandan.25" horiz-adv-x="1399" 
d="M447 73q-130 0 -215 25h2q-22 7 -43 16v1285h-269v111h1151q24 92 24 162q0 290 -346 359q-74 10 -123 10q-252 -18 -488 -196l-72 84q300 218 578 218q60 0 122 -9q271 -47 382 -235q57 -97 57 -228q0 -78 -20 -165h328v-111h-1209v-1201q89 -13 148 -13q179 0 393 87
q100 44 179 118.5t121 176.5q22 52 22 112q0 22 -4 42q-16 112 -98 180q-89 75 -193 75q-17 0 -26 -1q-3 -1 -7 -1q-121 -16 -207 -113q-43 -56 -43 -112q5 -92 67 -136q-9 25 -9 54q0 63 44 106.5t106 43.5q65 0 117 -55q34 -44 34 -101q0 -7 -2 -21q-23 -125 -129 -159
q-38 -12 -73 -12q-39 0 -76 12q-156 60 -185 208q-8 26 -8 63q0 97 69 180q102 133 283 157q11 1 39 1q146 0 271 -104q112 -97 136 -226q8 -61 8 -80q0 -79 -31 -156q-52 -122 -143 -214.5t-219 -142.5q-224 -94 -443 -94z" />
    <glyph glyph-name="Charu_Chandan.26" horiz-adv-x="1275" 
d="M582 182q133 0 251 84q96 77 147 203q29 79 29 158q0 184 -148 389q-112 169 -301 307q66 -176 66 -318q0 -306 -277 -439l-115 -46q3 -80 29 -140q21 -46 56 -85q94 -113 263 -113zM584 70q-56 0 -112 10q-141 27 -237 140q-47 51 -73 115q-41 91 -41 185q0 21 1.5 40
t1.5 36l182 74q210 104 210 345q0 164 -112 384h-506v111h422q-103 128 -103 269q0 61 21 124q38 112 130 195q112 100 293 124l12 -112q-144 -18 -229 -94q-114 -104 -114 -239q0 -75 42 -150q37 -64 102 -117h883v-111h-711q198 -152 308 -319q166 -231 166 -449
q0 -106 -41 -211q-66 -162 -179 -243q-146 -107 -316 -107z" />
    <glyph glyph-name="Charu_Chandan.27" horiz-adv-x="1637" 
d="M1001 24q-166 0 -363 119q-322 174 -555 782q17 8 51 27q3 3 6 4t20 11l21 11q114 -315 255 -495t258 -242q175 -104 306 -104q126 0 215 98q47 51 70 119q32 103 49 215.5t17 273.5q-282 -109 -414 -126q-43 -10 -85 -10q-96 0 -141 63q-29 41 -29 100q0 91 82 231
q91 141 269 298h-1143v111h1855v-111h-524q-17 -12 -32.5 -23.5t-32.5 -22.5q-189 -138 -297 -310q-66 -118 -66 -169q0 -20 13 -41q7 -13 45 -13q36 0 70 8q187 26 454 148q16 4 29 14l-2 -3q4 4 18 11t31 16l7 -84q8 -74 8 -146q0 -218 -71 -463q-58 -193 -249 -272
q-77 -25 -145 -25z" />
    <glyph glyph-name="Charu_Chandan.28" horiz-adv-x="1381" 
d="M447 73q-130 0 -215 25h2q-22 7 -43 16v1285h-269v111h1593v-111h-1209v-1201q89 -13 148 -13q179 0 393 87q100 44 179 118.5t121 176.5q22 52 22 112q0 22 -4 42q-16 112 -98 180q-89 75 -193 75q-17 0 -26 -1q-3 -1 -7 -1q-121 -16 -207 -113q-43 -56 -43 -112
q5 -92 67 -136q-9 25 -9 54q0 63 44 106.5t106 43.5q65 0 117 -55q34 -44 34 -101q0 -7 -2 -21q-23 -125 -129 -159q-38 -12 -73 -12q-39 0 -76 12q-156 60 -185 208q-8 26 -8 63q0 97 69 180q102 133 283 157q11 1 39 1q146 0 271 -104q112 -97 136 -226q8 -61 8 -80
q0 -79 -31 -156q-52 -122 -143 -214.5t-219 -142.5q-224 -94 -443 -94z" />
    <glyph glyph-name="Charu_Chandan.29" horiz-adv-x="824" 
d="M462 565q-58 0 -101 13q-110 38 -186.5 111.5t-102.5 175.5q-26 89 -26 167q0 118 53 207q103 191 331 251q83 19 155 19q119 0 251 -63q123 -59 235 -169l125 -154q-28 -28 -33 -32t-7 -5.5t-10.5 -8.5t-14 -11t-25.5 -14q-113 156 -234 245q-142 93 -289 93
q-62 0 -123 -14h4q-22 -5 -47 -19q-35 -14 -49 -22q-3 -3 -6 -3q-196 -112 -196 -299q0 -62 22 -135q38 -149 210 -207q23 -8 61 -8q14 0 62 5q85 15 131 57q58 48 58 111l-1 12q-44 -55 -117 -55q-64 0 -109 45t-45 109t45 108q24 24 53 35q32 15 68 15q27 0 51 -8
q137 -47 166 -196q10 -28 10 -66q0 -111 -95 -198q-108 -92 -274 -92zM464 1376l2 1z" />
    <glyph glyph-name="Charu_Chandan.30" horiz-adv-x="1317" 
d="M1131 -28h-117v14q-284 65 -606 262q-221 129 -353 278l470 501q19 63 19 105q0 69 -37 141q-49 104 -173 104q-62 0 -107 -36l16 1q62 0 106 -43.5t44 -106.5q0 -60 -42 -104q-47 -47 -121 -47q-62 0 -112 56q-29 30 -43 73t-14 81q15 120 87 181q78 63 185 63
q27 0 47 -2q162 -27 235 -167q48 -100 48 -192q0 -76 -33 -163q-5 -10 -7 -12t-17 -22l-386 -410q221 -187 521 -319q156 -70 273 -101v1467h115v-64h257v-111h-255v-1427z" />
    <glyph glyph-name="Charu_Chandan.31" horiz-adv-x="842" 
d="M184 530v869h-259v111h1433v-111h-1053v-734q248 72 436 262q136 136 206 272l112 -49q-6 -6 -10.5 -15.5t-7.5 -11.5v-550h-118v371q-133 -164 -305 -270q-210 -129 -434 -144z" />
    <glyph glyph-name="Charu_Chandan.32" horiz-adv-x="1329" 
d="M1128 -28h-115v14q-284 65 -609 262q-228 142 -350 278l389 586q-156 9 -279 117q-100 97 -100 218q0 48 8 72q11 58 44 106q80 117 216 117q28 0 80 -10q97 -34 124 -114q15 -42 15 -76q0 -66 -44 -110t-106 -44t-106 44t-44 106q0 41 18 73q-26 -10 -55 -54
q-33 -48 -33 -108q0 -72 64 -133q87 -89 205 -89q36 0 76 10q90 132 184 273h703v-111h-285v-1427zM1013 101v1298h-239q-240 -358 -427 -641q-71 -108 -144 -217q233 -198 538 -337q155 -71 272 -103z" />
    <glyph glyph-name="Charu_Chandan.33" horiz-adv-x="731" 
d="M373 220q-43 0 -83 11q-115 38 -181 133q-74 106 -74 237q0 92 44 171t110 130t159 75q66 15 125 15q235 0 544 -291l-99 -91q-116 120 -227 199q-105 67 -218 67q-47 0 -98 -11q-13 -2 -57 -24q-11 -8 -17 -10q-83 -50 -123 -116v2q-29 -54 -29 -117q0 -54 17 -102
q24 -110 160 -158q13 -5 41 -5q20 0 55 5q88 15 123 66q-29 -14 -64 -14q-62 0 -106 44t-44 106t44 106t106 44q44 0 78 -22q89 -45 111 -158q6 -31 6 -55q0 -95 -78 -161q-85 -76 -225 -76zM962 1399h-1079v111h1229z" />
    <glyph glyph-name="Charu_Chandan.34" horiz-adv-x="986" 
d="M645 787q162 210 373 297q-89 142 -170 199q-153 123 -296 123q-183 -8 -278 -152q-72 -96 -105 -214q96 32 168 32q133 0 213 -85q73 -76 95 -200zM551 392l-109 42q46 109 98 198l1 14q-1 5 -1 13q0 171 -74 248q-44 46 -118 49q-128 -15 -232 -64l-95 -47l12 105
q22 205 147 373q111 165 306 195q20 4 69 4q182 0 364 -146q120 -92 213 -253v452h117v-65h254v-111h-254v-869h-117v316q-25 70 -57 135q-197 -73 -374 -316q-90 -128 -150 -273z" />
    <glyph glyph-name="Charu_Chandan.35" horiz-adv-x="1923" 
d="M1460 804q7 -1 13 -2q41 -9 73 -41q44 -44 44 -106t-44 -106t-106 -44q-47 0 -84 25q12 -22 35 -44q49 -43 92 -43q12 0 23 3q174 44 174 239q0 66 -21 126q-62 241 -499 329v-1168h-118v19q-660 183 -968 529l401 511q-139 261 -425 368h-176v111h2107v-111h-1672
q83 -64 152 -147q96 -117 152 -238l-381 -484q94 -85 256 -191q197 -118 554 -222v1159q80 -10 182 -32q109 -25 173 -48q150 -61 246 -152q156 -147 156 -362q0 -105 -50 -196q-70 -123 -214 -156q-15 -3 -40 -3q-93 0 -182 71q-50 50 -66 100q-19 48 -19 89q0 16 5 42
q21 116 123 161q48 17 85 17h1q4 -1 18 -3z" />
    <glyph glyph-name="Charu_Chandan.36" horiz-adv-x="1363" 
d="M1048 107v1292h-229q-572 -848 -576 -856q103 -95 258 -193q274 -170 547 -243zM1164 -28h-116v15q-286 66 -607 262q-222 132 -352 279l585 871h-755v111h1542v-111h-297v-1427z" />
    <glyph glyph-name="Charu_Chandan.37" horiz-adv-x="1670" 
d="M1028 86q-97 0 -188 30q-152 49 -283 169q-308 282 -471 724l109 39q146 -402 440 -675q183 -170 394 -170q168 0 269 125q38 52 46 83q54 153 54 304q0 45 -4 87q-161 -132 -345 -171q-46 -8 -89 -8q-130 0 -224 73q-113 88 -113 248q0 80 36 151q64 119 205 142
q22 5 46 5q35 0 71 -10q73 -22 114 -67q57 -63 57 -139q0 -75 -43.5 -128.5t-115.5 -53.5q-77 0 -123 48q-44 44 -44 106t44 106q11 11 24 19q-5 0 -9 -1q-99 -15 -133 -105q-13 -40 -13 -79q0 -98 68 -150q62 -47 155 -47q35 0 67 5q188 41 364 212l72 69l26 -96
q27 -100 27 -212q0 -161 -62 -344q-17 -56 -65 -120q-92 -114 -250 -156q-52 -13 -113 -13zM1739 1399h-1811v111h1811v-111z" />
    <glyph glyph-name="Charu_Chandan.38" horiz-adv-x="1519" 
d="M350 545q-101 0 -178 77q-48 47 -68 110q-13 54 -13 97q0 74 33 130q74 142 278 173q-90 160 -255 267h-207v111h1695v-111h-444q91 -216 91 -340q0 -94 -35 -162q-32 -71 -102.5 -116.5t-161.5 -52.5q-115 6 -258 113q-124 107 -149 126q-77 48 -142 48q-35 0 -74 -14
q-95 -30 -134 -98q-18 -38 -18 -77q0 -25 11 -62q16 -57 68 -85q-7 22 -7 48q0 63 44 106.5t106 43.5t106 -43.5t44 -106.5q0 -39 -17 -71q-3 -4 -5 -9q-53 -102 -208 -102zM957 860q133 12 175 96v-2q22 51 22 105q0 51 -22 136q-43 130 -80 204h-696q139 -150 183 -276
q128 -45 226 -153q108 -106 192 -110z" />
    <glyph glyph-name="Charu_Chandan.39" horiz-adv-x="1372" 
d="M1066 116v1283h-735q207 -176 302 -391l-382 -474q112 -101 260 -190q193 -118 555 -228zM1185 -28h-119v15q-387 112 -617 255q-233 141 -357 280l405 503q-80 135 -189 232q-116 101 -243 142h-144v111h1547v-111h-283v-1427z" />
    <glyph glyph-name="Charu_Chandan.40" 
d="M-381 1610l-82 82l379 383l80 -80z" />
    <glyph glyph-name="Charu_Chandan.41" horiz-adv-x="1666" 
d="M1470 -28h-116v852q-108 191 -204 191q-57 0 -125 -128q26 -50 37 -93l-108 -29q-22 58 -49 99q-128 191 -322 191q-62 0 -139 -22q-82 -38 -151 -122q-81 -107 -81 -233q0 -72 26 -155q53 -140 196 -168q41 -8 70 -8q75 0 158 105q11 25 14 52q-44 -43 -105 -43
q-62 0 -106 44t-44 106q0 63 45 107.5t123 44.5q63 0 128 -52q77 -62 77 -190q0 -107 -71 -191q-75 -101 -233 -101q-45 0 -81 9q-197 43 -286 248q-29 95 -29 193q0 138 75 260q88 144 243 208q93 28 182 28q191 0 358 -178q49 70 95.5 102t97.5 34q107 -2 209 -102v368
h-1448v111h1823v-111h-259v-1427z" />
    <glyph glyph-name="Charu_Chandan.42" horiz-adv-x="1020" 
d="M804 1194q4 -1 7 -3q15 -5 30 -13q69 -42 87 -122q9 -31 9 -59q0 -39 -19 -84q-24 -56 -65 -95q-74 -72 -174 -72q-23 0 -39 4q-92 21 -170 112q-90 -90 -179 -114q-5 -2 -31 -2q-98 0 -177 71q-37 37 -62 95q-19 55 -19 85q0 32 10 53q12 77 82 122q10 7 20 12
q15 8 31 12q18 4 37 4q62 0 106 -43.5t44 -106.5q0 -62 -44 -106t-106 -44q-16 0 -31 2q54 -45 101 -45q9 0 18 2q88 20 124 86q24 55 24 97q0 50 -23 111q-99 248 -406 248v109q198 -3 317 -70q103 -59 168 -180q114 162 273 162h11q189 -12 333 -202v354h117v-64h279v-111
h-279v-775h-117v348q-31 94 -92 183q-108 155 -245 155q-147 0 -210 -157q-22 -55 -22 -112q0 -45 23 -98v2q33 -58 127 -88q69 0 113 44l-24 -1q-63 0 -106.5 44t-43.5 106t43.5 106t106.5 44q21 0 43 -6z" />
    <glyph glyph-name="Charu_Chandan.43" horiz-adv-x="802" 
d="M813 645l2 223q-201 128 -383 223q-43 -54 -81.5 -101.5t-81.5 -103.5q231 -188 544 -241zM809 1009v390h-478q98 -105 135 -201q172 -94 343 -189zM925 525l-87 1q-296 38 -501 171q-116 76 -222 172l48 62q114 145 188 242q-87 159 -204 226h-247v111h1025v-985z" />
    <glyph glyph-name="Charu_Chandan.44" horiz-adv-x="956" 
d="M1021 640h-115v74q-82 85 -171 128.5t-196 50.5q-15 -62 -46 -96q-32 -46 -75 -68q-54 -28 -113 -28q-92 0 -170 85q-30 36 -41 88q-7 30 -7 47q0 123 130 187q11 -46 12.5 -49.5t3 -8.5t2.5 -9t3 -8v2q3 -6 11 -35q-40 -27 -40 -52q-6 -14 -6 -24q0 -14 3 -24
q6 -30 19 -47q38 -41 71 -41q65 5 105 50q43 51 43 140q0 39 -6 80q-44 210 -270 317h-231v111h1323v-111h-239v-759zM903 876v523h-522q135 -119 169 -298q3 -27 5 -94q85 -8 165 -36q75 -27 183 -95z" />
    <glyph glyph-name="Charu_Chandan.45" horiz-adv-x="871" 
d="M1111 -77q-597 276 -990 411l30 106q122 -21 214 -21q173 0 330 67q281 122 281 363q0 111 -53 203q-133 172 -332 172q-84 0 -138 -21q-140 -58 -183 -190q-11 -31 -11 -81q0 -25 3 -46q63 -166 223 -166l24 1q-12 8 -22 19q-44 44 -44 106q0 63 44 106.5t106 43.5
t106 -44q35 -34 42 -81q7 -22 7 -45q0 -135 -155 -202l1 1q-43 -19 -110 -19q-28 0 -59 6q-104 20 -180 96q-54 53 -81 130l-4 4q-12 52 -12 90q0 36 8 72q43 208 258 301q86 30 171 30q266 0 429 -217q73 -113 73 -271q0 -160 -122 -309q-157 -176 -483 -224
q292 -112 679 -291zM1378 1399h-1455v111h1455v-111z" />
    <glyph glyph-name="Charu_Chandan.46" horiz-adv-x="1637" 
d="M951 -382q-57 0 -92 35t-35 92q0 56 35 91t92 35q56 0 90.5 -34.5t34.5 -91.5t-34.5 -92t-90.5 -35zM1001 24q-166 0 -363 119q-322 174 -555 782q17 8 51 27q3 3 6 4t20 11l21 11q114 -315 255 -495t258 -242q175 -104 306 -104q126 0 215 98q47 51 70 119
q32 103 49 215.5t17 273.5q-282 -109 -414 -126q-43 -10 -85 -10q-96 0 -141 63q-29 41 -29 100q0 91 82 231q91 141 269 298h-1143v111h1855v-111h-524q-17 -12 -32.5 -23.5t-32.5 -22.5q-189 -138 -297 -310q-66 -118 -66 -169q0 -20 13 -41q7 -13 45 -13q36 0 70 8
q187 26 454 148q16 4 29 14l-2 -3q4 4 18 11t31 16l7 -84q8 -74 8 -146q0 -218 -71 -463q-58 -193 -249 -272q-77 -25 -145 -25z" />
    <glyph glyph-name="Charu_Chandan.47" horiz-adv-x="1395" 
d="M447 73q-130 0 -215 25h2q-22 7 -43 16v1285h-269v111h1593v-111h-1209v-1201q89 -13 148 -13q179 0 393 87q100 44 179 118.5t121 176.5q22 52 22 112q0 22 -4 42q-16 112 -98 180q-89 75 -193 75q-17 0 -26 -1q-3 -1 -7 -1q-121 -16 -207 -113q-43 -56 -43 -112
q5 -92 67 -136q-9 25 -9 54q0 63 44 106.5t106 43.5q65 0 117 -55q34 -44 34 -101q0 -7 -2 -21q-23 -125 -129 -159q-38 -12 -73 -12q-39 0 -76 12q-156 60 -185 208q-8 26 -8 63q0 97 69 180q102 133 283 157q11 1 39 1q146 0 271 -104q112 -97 136 -226q8 -61 8 -80
q0 -79 -31 -156q-52 -122 -143 -214.5t-219 -142.5q-224 -94 -443 -94zM516 -325q-57 0 -92 35t-35 92q0 56 35 91t92 35q56 0 90.5 -34.5t34.5 -91.5t-34.5 -92t-90.5 -35z" />
    <glyph glyph-name="Charu_Chandan.48" horiz-adv-x="1358" 
d="M413 -213q-57 0 -92 35t-35 92t35 92t92 35q56 0 90.5 -35t34.5 -92t-34.5 -92t-90.5 -35zM1066 116v1283h-735q207 -176 302 -391l-382 -474q112 -101 260 -190q193 -118 555 -228zM1185 -28h-119v15q-387 112 -617 255q-233 141 -357 280l405 503q-80 135 -189 232
q-116 101 -243 142h-144v111h1547v-111h-283v-1427z" />
    <glyph glyph-name="Charu_Chandan.49" 
d="M-381 1610l-82 82l379 383l80 -80z" />
    <glyph glyph-name="Charu_Chandan.50" horiz-adv-x="1369" 
d="M868 -208q-306 107 -531 244q-84 49 -237 162l75 97q139 -107 226 -159q218 -132 520 -238q-13 -28 -16 -36t-5.5 -11t-4 -6.5t-3.5 -6.5t-4 -7.5t-12 -22.5zM1048 107v1292h-229q-572 -848 -576 -856q103 -95 258 -193q274 -170 547 -243zM1164 -28h-116v15
q-286 66 -607 262q-222 132 -352 279l585 871h-755v111h1542v-111h-297v-1427z" />
    <glyph glyph-name="Charu_Chandan.51" horiz-adv-x="1408" 
d="M1196 -28h-116v12q-271 61 -607 266q-229 145 -350 281l572 480q6 38 6 81q-2 109 -68 223q-21 -133 -103 -202q-97 -77 -217 -77q-12 0 -21 1q-126 12 -187 117q-21 40 -21 93q0 79 48 128q45 45 109 45t109 -45t45 -109q0 -63 -44 -107q60 8 101 42q69 61 69 176
q0 57 -9 124q73 22 77 24q19 -9 74.5 -62.5t104 -160.5t48.5 -227q0 -63 -11 -118l-20 -23l-492 -408q108 -90 238 -173q280 -171 549 -243v1464h116v-64h287v-111h-287v-1427z" />
    <glyph glyph-name="Charu_Chandan.52" horiz-adv-x="1936" 
d="M1460 804q7 -1 13 -2q41 -9 73 -41q44 -44 44 -106t-44 -106t-106 -44q-47 0 -84 25q12 -22 35 -44q49 -43 92 -43q12 0 23 3q174 44 174 239q0 66 -21 126q-62 241 -499 329v-1168h-118v19q-660 183 -968 529l401 511q-139 261 -425 368h-176v111h2107v-111h-1672
q83 -64 152 -147q96 -117 152 -238l-381 -484q94 -85 256 -191q197 -118 554 -222v1159q80 -10 182 -32q109 -25 173 -48q150 -61 246 -152q156 -147 156 -362q0 -105 -50 -196q-70 -123 -214 -156q-15 -3 -40 -3q-93 0 -182 71q-50 50 -66 100q-19 48 -19 89q0 16 5 42
q21 116 123 161q48 17 85 17h1q4 -1 18 -3z" />
    <glyph glyph-name="Charu_Chandan.53" horiz-adv-x="956" 
d="M1048 107v1292h-229q-572 -848 -576 -856q103 -95 258 -193q274 -170 547 -243zM1164 -28h-116v15q-286 66 -607 262q-222 132 -352 279l585 871h-755v111h1542v-111h-297v-1427z" />
    <glyph glyph-name="Charu_Chandan.54" horiz-adv-x="981" 
d="M772 -28h-119v680q-88 127 -212 213q-141 96 -290 96q-113 0 -220 -60q-108 -64 -159 -151q-37 -69 -37 -156q0 -164 99 -254q55 -51 134 -82q23 -8 59 -8q34 0 63 5q87 16 134 58q57 48 57 112l-1 14l-2 -3q-44 -43 -106 -43t-106 43.5t-44 106.5q0 62 44 106t109 44
q57 -1 108 -35q81 -46 108 -175q0 -4 1 -6v3q7 -40 7 -58q0 -116 -94 -198q-100 -91 -271 -91q-56 0 -106 12q-110 38 -185.5 111t-104.5 178q-23 80 -23 162q0 119 53 212q109 196 332 252q96 20 155 20q287 -19 498 -239v558h-1179v111h1593v-111h-295v-1427z" />
    <glyph glyph-name="Charu_Chandan.55" horiz-adv-x="1027" 
d="M828 -28h-120v680q-45 66 -96 119q-187 190 -401 190q-57 0 -109 -13q-22 -6 -64 -25q-143 -64 -205 -173q-40 -74 -40 -154q0 -52 23 -136q21 -70 76 -121q91 -86 200 -86l32 1q55 3 110 27q96 41 104 148q0 24 -2 26q-43 -62 -122 -62q-62 0 -106 43.5t-44 106.5
q0 62 44 106t107 44l26 2q53 0 92 -24q89 -57 117 -185q2 -15 4.5 -32t2.5 -28q0 -55 -25 -106q-88 -182 -339 -185q-58 0 -104 13q-233 73 -288 287q-25 90 -25 166q0 114 53 207q84 156 301 242q-79 220 -305 349h-250v111h1661v-111h-308v-1427zM708 843v556h-765
q63 -58 113 -136q65 -103 91 -189q23 3 64 3q122 0 250 -57t247 -177z" />
    <glyph glyph-name="Charu_Chandan.56" horiz-adv-x="575" 
d="M121 -24l-13 109q53 8 108 45q79 50 115 122q30 60 30 126q0 90 -54 203q-45 86 -62 116q-69 125 -104 212q-46 108 -46 207q0 151 101 283h-294v111h782v-111h-300q-72 -16 -132 -115q-44 -84 -44 -167q0 -80 36 -164q38 -94 98 -202l65 -121q66 -134 66 -252
q0 -93 -42 -178q-52 -98 -154 -164q-74 -50 -156 -60z" />
    <glyph glyph-name="Charu_Chandan.57" horiz-adv-x="1919" 
d="M1224 -307h-107q-16 46 -35 85q-64 120 -220 120q-109 0 -262 -71q-63 -36 -171 -61q-56 -10 -103 -10q-135 0 -302 123v161q171 -173 320 -174q64 2 149 35q40 14 139 62.5t228 48.5q78 0 160 -34q50 -20 89 -51v60q-288 67 -608 263q-230 138 -351 279l586 870h-757
v111h2085v-111h-668q322 -142 396 -354q30 -76 30 -176q0 -267 -265 -327q-7 -1 -23 -1q-122 0 -195 73q-78 79 -78 175q0 25 5 48q12 120 117 164q33 14 70 14q21 0 47 -6q52 -5 90 -43q44 -43 44 -106q0 -62 -44 -106t-106 -44q-56 0 -98 36q12 -27 37 -52q34 -34 119 -36
q164 44 164 207q0 22 -4 50q-10 67 -19 89q-52 145 -263 258q-89 45 -196 77v-1646zM1109 105v1294h-232l-577 -857q111 -101 261 -193q274 -170 548 -244z" />
    <glyph glyph-name="Charu_Chandan.58" horiz-adv-x="1917" 
d="M1224 -307h-107q-16 46 -35 85q-64 120 -220 120q-109 0 -262 -71q-63 -36 -171 -61q-56 -10 -103 -10q-135 0 -302 123v161q171 -173 320 -174q64 2 149 35q40 14 139 62.5t228 48.5q78 0 160 -34q50 -20 89 -51v60q-288 67 -608 263q-230 138 -351 279l586 870h-757
v111h2085v-111h-668q322 -142 396 -354q30 -76 30 -176q0 -267 -265 -327q-7 -1 -23 -1q-122 0 -195 73q-78 79 -78 175q0 25 5 48q12 120 117 164q33 14 70 14q21 0 47 -6q52 -5 90 -43q44 -43 44 -106q0 -62 -44 -106t-106 -44q-56 0 -98 36q12 -27 37 -52q34 -34 119 -36
q164 44 164 207q0 22 -4 50q-10 67 -19 89q-52 145 -263 258q-89 45 -196 77v-1646zM1109 105v1294h-232l-577 -857q111 -101 261 -193q274 -170 548 -244z" />
    <glyph glyph-name="Charu_Chandan.59" horiz-adv-x="1419" 
d="M1219 -307h-107l-36 80q-17 33 -46 60q-66 61 -175 61q-111 0 -262 -71q-62 -36 -172 -62q-58 -10 -103 -10q-137 0 -302 124v161q170 -172 320 -174q68 4 149 35q27 9 139 61q102 50 229 50q79 0 161 -34q50 -20 89 -51v42q-275 61 -615 270q-233 149 -353 284l577 486
q7 47 7 82q-3 114 -68 221q-22 -130 -102 -198q-97 -79 -228 -79q-71 0 -128 37q-72 45 -94 125q-6 22 -6 50q0 13 3 31q11 62 49 100q45 45 108 45q64 0 109 -45t45 -108q0 -64 -48 -112q64 8 107 43q70 62 70 179q0 61 -9 129l83 22q30 -17 30.5 -20t2.5 -4.5t4 -3.5
q192 -188 192 -429q0 -57 -12 -119l-20 -22l-498 -416q106 -91 242 -174q288 -178 552 -246v1482h116v-65h295v-111h-295v-1706z" />
    <glyph glyph-name="Charu_Chandan.60" horiz-adv-x="1390" 
d="M1198 -30l-107 1v1h-10q0 24 -2 28q-11 26 -25 54q-60 120 -220 120q-111 0 -262 -70q-64 -37 -171 -62q-56 -10 -104 -10q-138 1 -301 124v161q170 -174 320 -174q31 1 61 9q45 9 88 25q39 13 139 62.5t228 49.5q79 0 162 -34q48 -20 87 -51v686q-97 261 -252 387
q-110 84 -184 101.5t-104 17.5q-148 0 -277 -199q-38 -73 -70 -182q191 33 303 33q31 0 42 -1q148 0 194 -88q15 -40 15 -71q0 -87 -89 -206q-77 -116 -276 -271l-65 90q163 122 246 242q73 92 73 145q0 13 -3 21q-15 25 -96 25q-151 0 -409 -41q-8 -4 -72 -14l8 74
q26 201 141 361q95 149 268 185q40 8 69 8q196 -14 342 -129q40 -27 118 -114q49 -59 78 -109v420h117v-65h288v-111h-288v-1429z" />
    <glyph glyph-name="Charu_Chandan.61" horiz-adv-x="1349" 
d="M1068 110v1289h-645q-97 -81 -149 -159q-58 -82 -58 -130q0 -15 12 -44l-1 3q19 -29 152 -29q121 0 314 30q2 -18 11 -59q2 -10 2.5 -15.5t7.5 -31.5l1 -7q-35 -9 -41 -9q-299 -310 -400 -417q90 -75 247 -178q288 -175 547 -243zM1183 -298l-107 1l-21 50q-27 61 -60 92
q-64 60 -174 60q-111 0 -260 -70q-62 -35 -170 -61q-58 -10 -103 -10q-134 0 -301 123v160q171 -172 319 -173q30 1 61 9q44 8 87 25q33 11 138 62q99 49 227 49q78 0 160 -34q50 -19 89 -51v55q-281 64 -610 261q-219 137 -351 281l382 398q-72 -4 -163 -4q-227 4 -227 185
q0 42 20.5 92t54.5 103q11 18 30.5 41t44.5 53h-306v111h1488v-111h-248v-1697z" />
    <glyph glyph-name="Charu_Chandan.62" horiz-adv-x="1298" 
d="M399 98q195 0 360 76q200 81 287 284q14 28 14 77q0 44 -12 81q-25 87 -81 133l-18 18q-39 41 -136 56q-26 4 -55 4q-163 0 -447 -140v-583q35 -6 88 -6zM1157 -307h-106q-11 34 -37 86q-62 120 -220 120q-106 0 -261 -70q-63 -37 -171 -62q-56 -10 -102 -10
q-137 0 -302 123v161q169 -172 319 -174q31 1 61 9q78 16 228 89q99 48 227 48q78 0 160 -33q48 -20 88 -52v310q-130 -122 -236 -165q-193 -87 -412 -87q-98 0 -161 21v-2q-5 0 -32 18v1376h-263v111h1460v-111h-1086v-586q272 123 443 123q45 0 95 -10q123 -23 194 -99
q39 -33 68 -79q60 -98 60 -214q0 -56 -14 -106v-735z" />
    <glyph glyph-name="Charu_Chandan.63" horiz-adv-x="1360" 
d="M308 368q210 8 381 65l4 3q215 72 299 276q22 52 22 103q0 109 -105 196q-24 20 -60 32q-57 19 -101 19q-106 0 -219 -31q-111 -28 -221 -89v-574zM1158 -462l-107 1q-14 36 -36 84q-64 120 -220 120q-108 0 -261 -71q-60 -35 -171 -61q-58 -10 -103 -10q-138 1 -301 124
v160q170 -172 319 -174q31 1 61 9q48 10 87 26q49 20 139 61q101 50 228 50q138 0 249 -84v112q-183 85 -328 175q-11 0 -18 -1l-18 103q201 35 324 84q125 60 125 124q0 34 -37 69q-52 40 -116 50q-117 -113 -251 -158q-206 -70 -417 -70h-57q-10 2 -51 2v1136h-263v111
h1522v-111h-1149v-333q109 49 210 74q120 30 209 30q99 0 180 -31q47 -19 97 -63.5t85.5 -112.5t35.5 -142q0 -72 -28 -152q-13 -28 -48 -84q189 -72 189 -227v-13q-23 -121 -201 -204q-50 -20 -162 -47q274 -143 525 -213l-30 -106q-81 18 -212 63v-300z" />
    <glyph glyph-name="Charu_Chandan.64" horiz-adv-x="2004" 
d="M1661 -307h-108l-21 50q-26 59 -60 92q-63 61 -176 61q-108 0 -260 -71q-68 -39 -172 -61q-58 -10 -104 -10q-136 0 -301 123v161q169 -172 319 -174q32 1 62 9q48 10 87 26q21 7 140 61q100 50 227 50q80 0 162 -34q49 -20 88 -51v342q-14 85 -14 192q0 303 166 577
q-210 38 -366.5 144t-214.5 219h-29q-165 -134 -269 -297q-66 -118 -66 -169q0 -20 13 -41q7 -13 44 -13q38 0 70 8q185 26 455 148q59 29 75 38l8 -84q7 -65 7 -146q0 -221 -70 -463q-58 -194 -250 -272q-75 -25 -144 -25q-166 0 -363 119q-139 74 -283.5 261t-272.5 521
l99 53q116 -320 255 -495q141 -180 258 -242q175 -104 306 -104q126 0 215 98q47 51 70 119q32 103 48.5 215.5t16.5 273.5q-282 -109 -414 -126q-43 -10 -85 -10q-95 0 -140 63q-30 43 -30 100q0 89 83 231q68 105 193 239h-1005v111h2180v-111h-813q43 -79 154 -150.5
t357 -123.5l49 -95h-2q-198 -281 -198 -556q0 -115 25 -225h-1v-556z" />
    <glyph glyph-name="Charu_Chandan.65" horiz-adv-x="1446" 
d="M1256 -307h-107q-14 28 -21 44q-26 59 -61 93q-65 61 -176 61q-110 0 -262 -71q-64 -37 -172 -62q-58 -10 -104 -10q-135 0 -303 124v161q171 -173 321 -174q31 1 61 9q45 9 89 26q27 9 139 61q100 50 229 50q79 0 162 -34q51 -21 88 -51v391q-103 -109 -239 -163
q-229 -96 -449 -96q-130 0 -219 26h2q-2 1 -10.5 3.5t-15 5t-11 4t-7.5 3.5v1305h-272v111h1165q13 42 18 83q8 46 8 82q0 290 -353 364q-81 11 -124 11q-260 -20 -494 -199q-26 26 -74 85q141 102 285.5 161.5t300.5 59.5q72 0 123 -9q278 -49 388 -238q58 -97 58 -232
q0 -74 -22 -168h337v-111h-1227v-1219q82 -14 150 -14q184 0 399 89q102 44 182 119.5t123 178.5q22 56 22 115q0 20 -4 42q-19 118 -99 183q-91 75 -196 75q-18 0 -27 -1q-3 -1 -10 -1q-122 -16 -207 -115q-43 -54 -43 -112q0 -95 73 -142q-17 32 -17 71q0 62 44 106
t106 44t106 -44q23 -23 34 -51q18 -38 18 -74q0 -14 -9 -53q-32 -100 -125 -130q-38 -12 -74 -12q-40 0 -77 12q-158 61 -187 210q-8 24 -8 66q0 95 70 182q103 134 287 160q11 1 39 1q149 0 276 -106q114 -100 137 -229q3 -23 6 -44.5t3 -36.5q0 -91 -43 -184v-792z" />
    <glyph glyph-name="Charu_Chandan.66" horiz-adv-x="1281" 
d="M585 163q135 0 255 86q45 36 85 90q93 126 93 276q0 185 -149 395q-116 172 -306 312q67 -177 67 -324q0 -308 -281 -446l-117 -47q5 -109 52 -183q101 -159 301 -159zM1108 -307h-108q-14 28 -21 44t-15 33q-17 33 -46 60q-66 61 -176 61q-108 0 -262 -71
q-64 -37 -172 -62q-58 -10 -104 -10q-135 0 -303 124v161q172 -173 321 -174q65 2 150 35q27 9 139 61q101 50 229 50q79 0 162 -34q50 -20 89 -51v318q-38 -47 -83 -80q-148 -109 -321 -109q-224 0 -354 153q-48 52 -74 117q-42 96 -42 186q0 21 2 43l1 35l185 75
q213 106 213 350q0 171 -113 391h-514v111h428q-105 131 -105 274q0 62 22 127q39 114 132 196q111 101 297 126l12 -113q-147 -20 -232 -96q-116 -102 -116 -242q0 -77 43 -153q37 -64 104 -119h896v-111h-722q207 -163 313 -325q169 -237 169 -455q0 -76 -24 -158v-768z
" />
    <glyph glyph-name="Charu_Chandan.67" horiz-adv-x="1643" 
d="M1431 -307h-108q-18 47 -35 81t-46 61q-66 61 -175 61t-262 -71q-63 -37 -171 -62q-58 -10 -103 -10q-135 0 -303 124v161q171 -173 321 -174q67 4 149 34q33 11 138 62q77 38 169 47q-163 3 -357 120q-324 175 -562 791q37 18 44.5 23.5t15.5 9.5l39 21
q123 -331 259 -501q140 -179 261 -244q178 -106 309 -106q29 0 57 5q86 14 160 95q48 52 72 120q31 105 48 218.5t17 276.5q-284 -111 -418 -128q-43 -10 -86 -10q-95 0 -142 64q-30 43 -30 101q0 91 83 233q92 142 273 303h-1157v111h1896v-111h-549q-36 -28 -66 -47
q-196 -148 -300 -315q-67 -118 -67 -170q0 -20 13 -41q7 -13 45 -13q42 0 71 7q194 29 459 150q12 4 25 12l4 2l48 25q16 -170 16 -233q0 -198 -55 -407v-676zM1314 -76v210q-63 -64 -153 -101q-44 -14 -96 -23q78 0 161 -34q50 -20 88 -52z" />
    <glyph glyph-name="Charu_Chandan.68" horiz-adv-x="1426" 
d="M1257 -307h-108q-7 18 -12 28.5t-9 19.5t-8 16.5t-8 16.5q-62 121 -220 121q-109 0 -261 -71q-65 -37 -173 -62q-54 -10 -102 -10q-135 0 -303 124v161q170 -172 321 -174q64 2 149 35q44 15 139 61q100 50 228 50q79 0 162 -34q47 -20 87 -52v428q-129 -128 -251 -175
q-221 -92 -439 -92q-135 0 -220 28q-10 0 -35 16v1271h-268v111h1593v-111h-1210v-1191q72 -13 147 -13q84 0 192 25q102 23 197 62q214 93 298 292q20 46 20 110q0 138 -100 221q-88 74 -190 74q-148 0 -240 -114q-41 -60 -41 -110q0 -87 63 -134q-6 21 -6 46
q0 63 44 106.5t106 43.5t106 -43.5t44 -106.5q0 -35 -14 -65q-35 -90 -123 -115q-29 -10 -67 -10q-41 0 -75 13q-158 57 -185 206q-7 33 -7 61q0 93 66 179q106 132 282 155q20 2 41 2q148 0 268 -103q55 -44 88 -100q57 -98 57 -206q0 -63 -23 -130v-861z" />
    <glyph glyph-name="Charu_Chandan.69" horiz-adv-x="1491" 
d="M1543 1399h-1604v111h1604v-111zM1274 -26h-104q-73 90 -144 136.5t-115 57.5t-91 11q-68 0 -166 -14q-132 -14 -161 -14q-90 8 -166 53t-124 129q-66 101 -82 278l111 3q8 -94 41 -176q30 -83 92 -125.5t136 -50.5q55 0 139 11q104 16 186 16q38 0 89.5 -9.5
t119.5 -40.5t123 -80v812q-124 160 -297 195q-11 0 -28.5 1.5t-25.5 1.5q-47 0 -83 -14q-159 -60 -195 -186q-14 -33 -14 -74q0 -139 89 -191q27 -11 45 -16.5t46 -5.5q141 5 141 103q0 48 -45 73h-17q-17 0 -73 -21l-31 80q25 38 53 47.5t53 9.5q18 0 49 -8
q76 -30 108 -103q16 -35 16 -70q0 -46 -16 -78q-30 -92 -130 -130q-49 -13 -103 -13q-89 0 -152 40q-103 52 -138 198q-5 28 -5 68q0 73 32 165q74 161 245 220q57 19 116 19q19 0 41 -2q242 -28 435 -272v-1034zM722 683q114 16 114 102q0 48 -45 73h-17q-17 0 -73 -21
l-31 80q25 38 53 47.5t53 9.5q-62 0 -106 -43.5t-44 -106.5q0 -62 44 -106q23 -24 52 -35z" />
    <glyph glyph-name="Charu_Chandan.70" horiz-adv-x="1728" 
d="M1540 -307h-107q-17 50 -36 91q-62 120 -220 120q-109 0 -259 -71q-66 -36 -171 -61q-58 -10 -103 -10q-136 0 -301 123v160q170 -172 319 -173q71 5 148 35q40 14 138 61q102 49 227 49q80 0 161 -33q49 -20 88 -52v327q-179 -192 -487 -192q-180 0 -358 105
q-316 187 -439 663l117 20q105 -421 391 -590q140 -79 285 -79q267 0 415 162q75 90 93 175q15 69 15 150q0 213 -116 320q-111 109 -229 123q-28 7 -61 7q-102 0 -181 -58q-53 -39 -87 -106q-17 -36 -17 -85q0 -61 36 -108q18 -16 36 -28q-1 10 -1 21q0 67 47.5 115
t115.5 48q67 0 115 -48t48 -115q0 -68 -48 -116q-39 -38 -91 -46q-36 -15 -78 -15q-123 0 -219 93q-46 49 -66 116q-12 39 -12 77q0 62 30 143l1 5q94 181 289 216q52 9 78 9q71 0 158 -25q105 -31 217 -131q151 -170 151 -413q0 -129 -32 -218v-761zM1831 1399h-1870v111
h1870v-111z" />
    <glyph glyph-name="Charu_Chandan.71" horiz-adv-x="1340" 
d="M1132 -307h-107q-16 44 -36 86q-65 120 -220 120q-111 0 -261 -70q-66 -38 -172 -62q-56 -10 -102 -10q-136 0 -302 124v160q171 -172 320 -173q30 1 60 9q45 9 88 24.5t138 62.5q101 50 229 50q78 0 161 -34q53 -23 87 -52v73q-285 66 -601 261q-217 126 -334 259
q0 2 -16 17q15 18 467 496q18 55 18 101q0 37 -9 72q-47 170 -198 170q-64 0 -104 -32q68 0 112 -43.5t44 -106.5q0 -62 -44 -106t-108 -44q-74 0 -124 67q-46 54 -46 141q10 113 84 179q80 64 185 64q29 0 48 -3q155 -24 232 -163q48 -105 48 -193q0 -67 -37 -169
q-4 -3 -5 -5.5t-3.5 -5t-9.5 -12.5l-52 -64q-85 -81 -165 -166t-167 -178q109 -91 248 -175q279 -171 537 -240v1452h114v-64h285v-111h-282v-1706z" />
    <glyph glyph-name="Charu_Chandan.72" horiz-adv-x="1237" 
d="M1029 -28h-107l-21 52q-61 141 -235 141q-108 0 -260 -71q-69 -37 -172 -61q-56 -10 -102 -10q-137 1 -301 123v160q170 -173 319 -173q93 3 286 96q100 50 228 50q78 0 161 -34q46 -19 87 -51v754q-136 -168 -306 -271q-202 -123 -424 -139v861h-258v111h1400v-111
h-1022v-728q237 66 431 260q135 137 205 275l94 -46q0 -22 -3 -34v-1154z" />
    <glyph glyph-name="Charu_Chandan.73" horiz-adv-x="1311" 
d="M1005 101v1298h-239q-240 -358 -427 -641q-71 -108 -144 -217q233 -198 538 -337q155 -71 272 -103zM250 1605q-25 -19 -44 -48q-33 -48 -33 -108q0 -72 64 -133q87 -89 205 -89q36 0 76 10q90 132 184 273h703v-111h-285v-1706h-105q-14 36 -37 82q-62 121 -220 121
q-109 0 -262 -71q-64 -37 -171 -62q-56 -10 -103 -10q-134 0 -302 124v161q169 -172 320 -174q31 1 61 9q45 9 88.5 25t138.5 62q100 50 228 50q79 0 162 -34q47 -20 87 -52v62q-284 65 -609 262q-228 142 -350 278l389 586q-156 9 -279 117q-100 97 -100 218q0 48 8 72
q11 58 44 106q80 117 216 117q28 0 80 -10q97 -34 124 -114q15 -42 15 -70q0 -44 -27 -84q-10 -16 -24 -31q-44 -44 -107 -44q-62 0 -106 44t-44 106q0 36 15 66z" />
    <glyph glyph-name="Charu_Chandan.74" horiz-adv-x="1427" 
d="M1235 -307h-106q-12 37 -37 87q-58 120 -220 120q-108 0 -260 -70q-62 -37 -171 -62q-56 -10 -103 -10q-136 0 -301 123v161q169 -171 319 -173q100 3 287 96q100 49 227 49q80 0 162 -33q53 -23 87 -52v734q-84 120 -210 209q-139 94 -287 94q-59 0 -119 -14
q-76 -31 -98 -45q-101 -56 -159 -152q-35 -74 -35 -152q0 -63 22 -130q44 -147 209 -201q19 -8 57 -8q75 0 138 28q112 49 112 145v15q-51 -51 -113 -51t-106 44t-44 106t45 107t115 45q55 0 102 -33q41 -23 70 -68t40 -105q8 -32 8 -62q0 -113 -93 -198q-105 -91 -267 -91
q-63 0 -105 14q-230 73 -287 284q-23 83 -23 161q0 116 53 210q106 189 327 249q86 21 154 21q269 -16 494 -241v555h-1189v111h1578v-111h-273v-1706z" />
    <glyph glyph-name="Charu_Chandan.75" horiz-adv-x="1427" 
d="M1235 -307h-106q-12 37 -37 87q-58 120 -220 120q-108 0 -260 -70q-62 -37 -171 -62q-56 -10 -103 -10q-136 0 -301 123v161q169 -171 319 -173q100 3 287 96q100 49 227 49q80 0 162 -33q53 -23 87 -52v734q-84 120 -210 209q-139 94 -287 94q-59 0 -119 -14
q-76 -31 -98 -45q-101 -56 -159 -152q-35 -74 -35 -152q0 -63 22 -130q44 -147 209 -201q19 -8 57 -8q75 0 138 28q112 49 112 145v15q-51 -51 -113 -51t-106 44t-44 106t45 107t115 45q55 0 102 -33q41 -23 70 -68t40 -105q8 -32 8 -62q0 -113 -93 -198q-105 -91 -267 -91
q-63 0 -105 14q-230 73 -287 284q-23 83 -23 161q0 116 53 210q106 189 327 249q86 21 154 21q269 -16 494 -241v555h-1189v111h1578v-111h-273v-1706z" />
    <glyph glyph-name="Charu_Chandan.76" horiz-adv-x="1427" 
d="M661 798q160 208 367 292q-84 137 -167 197q-153 121 -291 121q-12 0 -23 -1q-162 -14 -251 -149q-72 -93 -103 -210q96 31 168 31q129 0 207 -83q70 -75 93 -198zM1254 -28h-114v20q-9 23 -28 63q-63 119 -218 119q-54 0 -118 -17t-120 -45q-158 -79 -293 -79
q-136 1 -299 122v160q169 -172 317 -172q67 2 147 34q44 15 137 61q100 49 227 49q77 0 159 -33q48 -20 89 -50v653q-27 72 -57 132q-195 -74 -367 -311q-93 -130 -147 -268l-108 42q39 95 96 194l1 14q-1 5 -1 13q0 168 -72 243q-45 46 -117 48q-119 -12 -227 -62
q-6 -3 -19.5 -9.5t-28 -14t-27.5 -13.5t-19 -9l12 103q22 200 144 366q108 162 301 192q25 5 68 5q180 0 358 -144q121 -92 210 -249v445h114v-64h251v-111h-251v-1427z" />
    <glyph glyph-name="Charu_Chandan.77" horiz-adv-x="1957" 
d="M1232 -307h-108l-21 51q-26 59 -61 92q-66 61 -176 61t-263 -71q-69 -39 -172 -61q-58 -10 -104 -10q-137 0 -304 123v161q172 -173 322 -174q65 2 150 35q27 9 139 61q101 50 230 50q79 0 162 -34q50 -20 89 -51v75q-386 109 -611 251q-227 132 -356 276l401 508
q-100 182 -267 286q-93 58 -160 77h-212v111h2124v-111h-1651q221 -183 307 -383l-380 -478q105 -90 256 -187q188 -115 549 -221l2 1149q178 -21 353 -79q315 -128 377 -358q25 -81 25 -153q0 -97 -51 -197q-70 -117 -215 -154q-13 -3 -37 -3q-96 0 -183 69q-85 95 -85 192
q0 18 5 40q23 120 125 161q45 17 83 17q32 0 52 -7t23 -7q31 -14 52 -38l-1 -1h1q44 -44 44 -106t-44 -106t-106 -44t-106 44l-7 6q10 -30 40 -59q47 -44 94 -44q16 0 24 4q94 21 135 94q36 68 36 143q0 53 -19 116q-64 243 -500 331v-1447z" />
    <glyph glyph-name="Charu_Chandan.78" horiz-adv-x="1355" 
d="M1048 117v1282h-229q-303 -451 -575 -849q134 -119 259 -191q275 -168 545 -242zM1166 -307h-108l-21 49q-25 58 -61 92q-65 61 -176 61q-109 0 -263 -71q-62 -36 -173 -61q-56 -10 -103 -10q-137 0 -304 123v161q172 -173 322 -174q31 1 61 9q45 9 89 26q36 13 138 62
t231 49q79 0 162 -33q53 -22 88 -52v72q-278 67 -609 262q-230 140 -351 277l584 864h-743v111h1522v-111h-285v-1706z" />
    <glyph glyph-name="Charu_Chandan.79" horiz-adv-x="1501" 
d="M1282 -24h-107q-13 35 -32 80q-61 122 -219 122q-108 0 -259 -68q-141 -74 -270 -74q-135 0 -296 121v152q174 -169 312 -169q15 2 28.5 3.5t36.5 7t42.5 11t44.5 13.5t53.5 23t74.5 37q54 27 110.5 38t119.5 11q153 0 249 -84v633q-82 -65 -171 -109q-150 -75 -266 -75
q-122 0 -224 70q-109 89 -109 249q0 80 37 149q64 113 204 137q23 5 47 5q144 0 215 -126q20 -37 20 -83q0 -31 -9 -66q-49 -115 -153 -115q-76 0 -120.5 45.5t-44.5 107.5q0 77 65 124q-2 -1 -5 -1q-101 -20 -132 -106q-17 -44 -17 -80q0 -93 73 -151q58 -49 138 -49
q28 0 102.5 14.5t165 67t178.5 136.5l69 67q50 -118 50 -262q-1 -41 -1 -806zM1547 1399h-1631v111h1631v-111z" />
    <glyph glyph-name="Charu_Chandan.80" horiz-adv-x="1703" 
d="M1429 -307h-108q-24 56 -36 82q-64 120 -222 120q-109 0 -265 -72q-56 -33 -170 -60q-58 -10 -104 -10q-137 0 -303 123v161q171 -172 321 -174q70 4 150 35q36 13 139 62t230 49q80 0 162 -33q50 -20 89 -52v230q-127 -85 -274 -85q-255 0 -480 203q-310 279 -478 732
l111 38q60 -167 148 -312q130 -216 300 -370q105 -96 216 -138q87 -33 157 -33q73 0 113 7q57 14 105 45q102 66 130 157q55 159 55 308q0 45 -4 89q-166 -135 -352 -174q-46 -8 -90 -8q-131 0 -228 74q-115 90 -115 251q0 81 37 152q66 121 210 145q20 4 45 4q36 0 73 -11
q75 -23 116 -66q57 -62 57 -142q0 -63 -25 -105q-47 -79 -138 -79q-76 0 -121 45t-45 107t44 106q16 16 36 27q-121 -12 -158 -109q-13 -40 -13 -80q0 -98 69 -152q63 -48 158 -48q31 0 68 6q192 41 371 214l73 69l26 -96q28 -103 28 -215q0 -165 -64 -348q-13 -44 -44 -91
v-578zM1761 1399h-1841v111h1841v-111z" />
    <glyph glyph-name="Charu_Chandan.81" horiz-adv-x="1432" 
d="M1245 -307h-108l-21 49q-25 58 -61 92q-65 61 -176 61q-108 0 -266 -72q-58 -34 -170 -60q-56 -10 -103 -10q-137 0 -304 123v161q170 -172 322 -174q31 1 61 9q45 9 89 26q36 13 138 62t231 49q79 0 162 -33q48 -20 88 -52v734q-93 133 -206 212q-141 95 -289 95
q-76 0 -149 -26q-53 -24 -71 -34q-195 -115 -195 -303q0 -161 97 -253q54 -52 130 -78q25 -9 69 -9q46 0 75 7q45 5 80 24q26 14 26 20q65 63 65 122q0 11 -1 20q-45 -60 -120 -60q-62 0 -106 44t-44 106q0 63 44 106q30 30 68 39q27 12 62 12q49 0 92 -25.5t73 -71.5
t45 -111q2 -16 4.5 -32.5t2.5 -27.5q0 -109 -94 -199q-81 -91 -271 -91q-55 0 -104 17q-229 68 -285 279q-27 85 -27 166q0 116 52 206q82 152 300 240q-68 211 -302 347h-251v111h1607v-111h-259v-1706zM1127 850v549h-771q161 -157 213 -322q42 4 64 4q282 -7 494 -231z
" />
    <glyph glyph-name="Charu_Chandan.82" horiz-adv-x="1377" 
d="M1074 114v1285h-731q214 -187 302 -388l-382 -484q125 -110 259 -188q202 -123 552 -225zM1191 -307h-107q-7 19 -12 29.5t-9 19.5t-8 16.5t-8 16.5q-64 120 -222 120q-108 0 -262 -71q-62 -36 -173 -61q-56 -10 -104 -10q-137 0 -303 123v161q170 -172 322 -174
q97 3 289 97q101 49 229 49q80 0 163 -33q55 -24 88 -52v64q-374 98 -616 245q-244 152 -357 282l404 513q-155 283 -429 371h-165v111h1536v-111h-256v-1706z" />
    <glyph glyph-name="Charu_Chandan.83" horiz-adv-x="1418" 
d="M1222 -28h-117q0 26 -2 32q-11 26 -25 54q-64 120 -222 120q-108 0 -263 -71q-61 -35 -172 -61q-56 -10 -103 -10q-140 1 -304 123v161q171 -174 322 -174q31 1 61 9q45 9 89 26q36 13 138 62t231 49q79 0 162 -34q47 -18 88 -50v758q-16 47 -41 96q-130 246 -304 246
q-149 0 -213 -158q-23 -58 -23 -113q0 -46 24 -99v2q32 -59 129 -90q70 0 125 55q-19 -5 -41 -5q-63 0 -106.5 44t-43.5 106t43.5 106t106.5 44q31 0 58 -12h2q95 -42 116 -136q10 -28 10 -61q0 -34 -19 -83q-22 -54 -67 -97q-74 -72 -177 -72q-25 0 -40 4q-95 22 -173 112
q-38 -39 -87 -70q-71 -46 -126 -46q-101 0 -180 71q-38 36 -63 96q-19 51 -19 85q0 31 9 55q15 85 94 129q36 25 83 25q62 0 106 -43.5t44 -106.5q0 -62 -44 -106t-106 -44q-22 0 -42 5l8 -8l-3 2q59 -49 106 -49q9 0 18 2q88 22 125 88q24 52 24 98q0 55 -23 112
q-49 122 -143 183q-107 68 -270 68v110q204 -4 323 -71q102 -57 171 -182q115 164 278 164h10q189 -12 341 -205v358h117v-65h284v-111h-284v-1427z" />
    <glyph glyph-name="Charu_Chandan.84" horiz-adv-x="1408" 
d="M1113 116v459q-132 202 -470 396q-89 -113 -172 -220.5t-172 -220.5l2 -2q115 -100 258 -187q199 -120 554 -225zM1113 766v633h-735q184 -150 264 -292q234 -115 471 -341zM1230 -307h-107q-8 19 -13 29.5t-9 19.5t-7.5 16.5t-7.5 16.5q-64 120 -222 120
q-108 0 -262 -71q-61 -35 -173 -61q-56 -10 -104 -10q-137 0 -303 123v161q170 -172 321 -174q63 2 150 35q32 11 140 62q101 49 229 49q80 0 163 -33q55 -24 88 -52v63q-373 102 -618 249q-234 148 -361 283l407 515q-151 280 -428 365h-199v111h1564v-111h-248v-1706z" />
    <glyph glyph-name="Charu_Chandan.85" horiz-adv-x="1562" 
d="M1260 530v869h-832q130 -99 208 -220t113 -274q8 -43 8 -102l-1 -63q302 -10 504 -210zM1377 -28h-108q-19 49 -36 85q-64 120 -222 120q-108 0 -262 -71q-61 -35 -173 -61q-58 -10 -104 -10q-139 1 -303 123v161q171 -174 321 -174q63 2 150 35q21 7 140 61
q101 50 229 50q80 0 162 -34q49 -20 89 -50v125q-176 292 -522 293q-25 -96 -72 -164q-87 -115 -251 -132h-11q-134 0 -235 117q-34 41 -61 125q-10 33 -10 74q0 47 15 83q39 114 164 161q17 -53 31 -114q-62 -30 -81 -80v-8q-1 0 -1 3q-8 -19 -8 -47q0 -68 41 -120
q60 -76 145 -78q113 15 170 87q69 90 69 234q0 232 -151 414q-110 131 -301 219h-249v111h1697v-111h-262v-1427z" />
    <glyph glyph-name="Charu_Chandan.86" horiz-adv-x="1567" 
d="M1260 530v869h-832q130 -99 208 -220t113 -274q8 -43 8 -102l-1 -63q302 -10 504 -210zM1377 -28h-108q-19 49 -36 85q-64 120 -222 120q-108 0 -262 -71q-61 -35 -173 -61q-58 -10 -104 -10q-139 1 -303 123v161q171 -174 321 -174q63 2 150 35q21 7 140 61
q101 50 229 50q80 0 162 -34q49 -20 89 -50v125q-176 292 -522 293q-25 -96 -72 -164q-87 -115 -251 -132h-11q-134 0 -235 117q-34 41 -61 125q-10 33 -10 74q0 47 15 83q39 114 164 161q17 -53 31 -114q-62 -30 -81 -80v-8q-1 0 -1 3q-8 -19 -8 -47q0 -68 41 -120
q60 -76 145 -78q113 15 170 87q69 90 69 234q0 232 -151 414q-110 131 -301 219h-249v111h1697v-111h-262v-1427z" />
    <glyph glyph-name="Charu_Chandan.87" horiz-adv-x="1254" 
d="M1058 -307h-107l-37 82q-64 120 -222 120q-108 0 -262 -71q-62 -36 -173 -61q-56 -10 -104 -10q-137 0 -303 123v161q172 -173 322 -174q97 3 289 97q101 49 229 49q80 0 163 -33q55 -24 88 -52v78q-496 224 -838 342l30 106q122 -21 214 -21q173 0 330 67
q281 122 281 363q0 111 -53 203q-133 172 -332 172q-84 0 -138 -21q-140 -58 -183 -190q-11 -31 -11 -81q0 -25 3 -46q63 -166 223 -166h15l-10 10q-44 44 -44 106q0 63 44 106.5t106 43.5q63 0 106.5 -43.5t43.5 -115.5l2 -1q0 -135 -155 -202l1 1q-43 -19 -110 -19
q-28 0 -59 6q-104 20 -180 96q-54 53 -81 130l-4 4q-12 52 -12 90q0 36 8 72q43 208 258 301q86 30 171 30q266 0 429 -217q73 -113 73 -271q0 -160 -122 -309q-157 -176 -483 -224q292 -112 679 -291l-50 -100l-35 16v-256zM1365 1399h-1462v111h1462v-111z" />
    <glyph glyph-name="Charu_Chandan.88" horiz-adv-x="1338" 
d="M1048 700v699h-229l-285 -421q58 -42 128 -86q161 -105 386 -192zM1165 -307h-107q-8 19 -13 29.5t-9 19.5t-7.5 16.5t-7.5 16.5q-64 120 -222 120q-108 0 -262 -71q-62 -36 -173 -61q-56 -10 -104 -10q-137 0 -303 123v161q170 -172 322 -174q97 3 289 97q101 49 229 49
q80 0 163 -33q55 -24 88 -52v72q-278 67 -609 262q-226 138 -351 279l584 862h-743v111h1491v-111h-255v-1706zM1048 117v441q-241 105 -448 236l2 -2q-19 7 -29 17l-8 6q-34 20 -46 29q-24 19 -51 36q-57 -83 -112 -165t-112 -165q136 -120 258 -191q279 -170 546 -242z
" />
    <glyph glyph-name="Charu_Chandan.89" horiz-adv-x="1333" 
d="M1165 -307h-107q-8 19 -13 29.5t-9 19.5t-7.5 16.5t-7.5 16.5q-64 120 -222 120q-108 0 -262 -71q-62 -36 -173 -61q-56 -10 -104 -10q-137 0 -303 123v161q170 -172 322 -174q97 3 289 97q101 49 229 49q80 0 163 -33q55 -24 88 -52v72q-278 67 -609 262
q-226 138 -351 279l584 862h-743v111h1491v-111h-255v-1706zM1048 117v1282h-229q-356 -527 -575 -849q136 -120 258 -191q279 -170 546 -242zM443 -42q-59 32 -107 60q-95 57 -234 164q4 6 14 19t21.5 28t21 29t14.5 21q163 -126 271 -185q79 -44 102 -56z" />
    <glyph glyph-name="Charu_Chandan.90" horiz-adv-x="2000" 
d="M1293 -307h-108q-24 56 -36 82q-64 120 -222 120q-109 0 -263 -71q-61 -35 -172 -61q-58 -10 -104 -10q-137 0 -304 123v161q172 -173 322 -174q65 2 150 35q36 13 138 62t231 49q79 0 162 -33q50 -20 89 -52v80q-417 111 -685 349q-55 -23 -113 -28q-96 0 -167 56
q-61 47 -61 122q0 62 44 106t106 44t106 -44t44 -106q0 -19 -4 -36q29 16 65 52l33 58q3 9 7 16q17 63 17 92q0 55 -15 101q-26 80 -67 120q-1 0 -2 -1.5t-7 -5.5q-72 -56 -177 -56q-12 0 -42 5q-69 26 -95 48l-23 22q-8 7 -17 21q-25 37 -25 85q0 63 44 106.5t106 43.5
t106 -43.5t44 -106.5q0 -17 -4 -33q40 23 63 76v3q5 20 5 40q0 94 -54 160q-10 11 -26 32q-15 13 -53 39l-86 41q-9 4 -57 16l-1 1h-278v111h2170v-111h-784v-317q112 25 189 25q169 0 284 -94q138 -102 138 -270q0 -70 -26 -131q-71 -159 -236 -159q-94 0 -159 57
q-59 48 -59 122q0 63 44 106.5t106 43.5t106 -43.5t44 -106.5q0 -18 -4 -35q65 60 65 152q0 95 -91 171q-85 69 -214 69q-80 0 -187 -30v-1266zM1176 130v810q-245 7 -355 136q-93 107 -93 278q0 28 1 39v6h-286q50 -48 97 -116l2 -5q7 -10 13 -29q27 -65 27 -137
q0 -26 -21 -106q18 -25 30 -40q33 -44 52 -78q30 -56 43 -121q8 -41 8 -71q0 -80 -44 -185q-18 -36 -45 -70q-8 -8 -16 -18q218 -187 587 -293zM1176 1060v339h-330q-1 -9 -1 -29q0 -139 64 -218q79 -88 267 -92z" />
    <glyph glyph-name="Charu_Chandan.91" horiz-adv-x="1661" 
d="M968 -281q-283 36 -597 227q-191 114 -294 232l324 471q-138 88 -195 133q-79 63 -129 120l336 497h-489v111h1819v-111h-610q372 -149 372 -440q0 -71 -33 -139q-29 -44 -75 -77q-80 -58 -149 -58q-84 0 -148 60q-73 68 -73 146q0 13 8 49q11 73 68 110q42 37 100 37
q62 0 106 -43.5t44 -106.5q0 -62 -44 -106q-25 -25 -56 -36l8 1l-2 -1q137 35 137 170q0 44 -21 99q-36 96 -130 161q-104 70 -277 110v-609q537 -150 537 -492q0 -69 -33 -139q-29 -46 -78 -81q-72 -50 -150 -50q-85 0 -144 55q-73 70 -73 146q0 115 81 163q41 34 95 34
q71 0 111 -50q39 -39 39 -100q0 -62 -44 -106q-24 -24 -53 -35q16 2 44 9q38 9 71 64q25 45 25 93q0 253 -428 368v-886zM848 587v812h-289l-327 -483q74 -66 198 -143q205 -123 418 -186zM848 -139v602q-169 46 -343 133l-272 -404q94 -75 198 -145q203 -120 417 -186z" />
    <glyph glyph-name="Charu_Chandan.92" horiz-adv-x="2007" 
d="M1032 6q-90 0 -176 15q-17 0 -49 11v472q-221 47 -486 203q-161 101 -279 222l318 470h-452v111h1772q13 42 18 83q8 46 8 82q0 291 -353 365q-81 11 -125 11q-260 -20 -495 -200l-26 26l-48 60q140 101 285.5 161t302.5 60q73 0 123 -9q277 -49 389 -238q58 -99 58 -233
q0 -74 -22 -168h274v-111h-882q100 -68 147 -170q23 -63 23 -111q0 -69 -28 -113q-46 -81 -149 -103q-10 -2 -25 -2q-63 0 -120 48q-59 57 -59 126q0 63 44 106.5t106 43.5q74 0 121 -61q-26 148 -326 227v-1264q72 -6 121 -6q221 0 418 72q211 81 295 268q22 58 22 109
q0 17 -3 36q-23 120 -119 182q-92 54 -193 54q-125 0 -216 -114q-44 -57 -44 -113q0 -80 62 -128q-8 24 -8 51q0 63 44 106.5t106 43.5t106.5 -44.5t44.5 -109.5q0 -88 -55 -139q-60 -56 -147 -56q-40 0 -73 12q-159 61 -186 205q-7 32 -7 60q0 97 65 183q128 157 320 157
q131 0 242 -74q115 -74 159 -206q14 -61 14 -103q0 -80 -33 -154q-92 -224 -359 -332q-238 -80 -465 -80zM807 619v780h-308l-307 -456q75 -69 190 -137q91 -57 210.5 -109t214.5 -78z" />
    <glyph glyph-name="Charu_Chandan.93" horiz-adv-x="2007" 
d="M1877 -307h-118q-4 36 -11 52t-15 33q-17 33 -46 60q-66 61 -176 61q-109 0 -263 -71q-64 -37 -172 -62q-58 -10 -104 -10q-136 0 -304 124v162q172 -174 322 -175q65 2 150 35q36 13 138 62.5t231 49.5q79 0 162 -34q53 -22 88 -52v334q-98 -110 -262 -176
q-238 -80 -465 -80q-90 0 -176 15q-17 0 -49 11v472q-221 47 -486 203q-161 101 -279 222l318 470h-452v111h1772q13 42 18 83q8 46 8 82q0 291 -353 365q-81 11 -125 11q-260 -20 -495 -200l-26 26l-48 60q140 101 285.5 161t302.5 60q73 0 123 -9q277 -49 389 -238
q58 -99 58 -233q0 -74 -22 -168h274v-111h-882q100 -68 147 -170q23 -63 23 -111q0 -69 -28 -113q-46 -81 -149 -103q-10 -2 -25 -2q-63 0 -120 48q-59 57 -59 126q0 63 44 106.5t106 43.5q74 0 121 -61q-26 148 -326 227v-1264q72 -6 121 -6q221 0 418 72q211 81 295 268
q22 58 22 109q0 17 -3 36q-23 120 -119 182q-92 54 -193 54q-125 0 -216 -114q-44 -57 -44 -113q0 -80 62 -128q-8 24 -8 51q0 63 44 106.5t106 43.5t106.5 -44t44.5 -110q0 -88 -55 -139q-60 -56 -147 -56q-40 0 -73 12q-159 61 -186 205q-7 32 -7 60q0 97 65 183
q128 157 320 157q131 0 242 -74q115 -74 159 -206q14 -61 14 -103q0 -48 -12 -94v-785zM807 619v780h-308l-307 -456q75 -69 190 -137q91 -57 210.5 -109t214.5 -78z" />
    <glyph glyph-name="Charu_Chandan.94" horiz-adv-x="1487" 
d="M773 -236q-123 0 -260 78q-222 127 -320 467l111 25q82 -300 273 -404q85 -55 188 -55q189 0 288 113q50 61 60 116q11 44 11 102q0 54 -7 78q-22 92 -70 136q-77 72 -152 87q-10 0 -14 1l-31 1q-10 -2 -29 -2q-8 -5 -15 -5q-90 -18 -130 -95q-11 -36 -11 -55
q0 -20 6 -38q7 46 42 81q44 44 106 44t106 -44t44 -106q0 -63 -44 -107q-26 -25 -57 -35q-47 -17 -93 -17q-89 0 -167 75q-54 70 -54 146q0 106 102 203q-173 71 -315 155q-180 115 -277 223l316 467h-451v111h1663v-111h-386q50 -32 79 -63q57 -61 70 -108q23 -59 23 -110
q0 -29 -7 -57q-31 -126 -169 -157q-10 -2 -26 -2q-68 0 -120 48q-57 57 -57 125q0 69 46 108q44 42 104 42q62 0 106 -44q6 -6 11 -13q-3 14 -8 29q-45 123 -317 193v-780q100 -24 187 -109q68 -69 92 -178q14 -68 14 -116q0 -52 -14 -124q-24 -109 -112 -201
q-131 -118 -335 -118zM827 621v778h-308q-231 -344 -308 -456q74 -65 190 -134q219 -136 426 -188z" />
    <glyph glyph-name="Charu_Chandan.95" horiz-adv-x="2009" 
d="M942 -28q-252 0 -446 170q-68 52 -153 166q-160 216 -258 538l111 34q89 -294 240 -503q73 -100 133 -147q167 -144 369 -144q28 0 57 3q131 12 208 115q59 81 59 155q0 43 -17 87q-18 57 -50 93q-114 -59 -269 -59q-16 0 -76 4l12 115q51 -6 76 -6q62 0 129 17
q159 44 204 187q10 40 10 80q0 62 -20 123q-64 189 -280 237q-32 6 -66 6q-104 0 -192 -68q-38 -30 -57 -91q-10 -34 -10 -62q0 -29 10 -57l2 -9q21 -45 65 -73q-19 33 -19 75q0 63 44 106.5t106 43.5t105 -43t45 -105q0 -92 -50 -150q-28 -32 -57 -43q-47 -22 -97 -22
q-54 0 -116 30q-116 59 -139 164q-14 42 -14 84q0 52 13 91q28 94 97 150q116 91 283 91q45 0 70 -6q221 -51 325 -223q61 -107 66 -224q92 49 192 49q160 0 266 -118q28 -37 41 -69q32 -74 32 -142q0 -44 -14 -86q-28 -90 -112 -131q-50 -22 -107 -22q-65 0 -112 33
q-67 46 -67 126q0 63 44 106.5t106 43.5t106 -44q32 -31 40 -73q6 23 6 53q0 21 -6.5 55.5t-39.5 79.5q-58 78 -171 78l-32 -1q-45 -2 -95 -23q-54 -23 -93 -71l2 1q-14 -21 -25 -46q-27 -51 -68 -95q48 -63 69 -128.5t21 -118.5q0 -43 -12 -78q-12 -65 -71 -143
q-120 -166 -353 -166zM2077 1399h-2148v111h2148v-111z" />
    <glyph glyph-name="Charu_Chandan.96" horiz-adv-x="1492" 
d="M1226 -740q-95 17 -214 61.5t-236 107.5q-95 57 -234 187l175 155q-128 25 -204 72q-221 122 -320 467l111 25q82 -300 273 -404q85 -55 188 -55q189 0 288 113q50 60 60 116q11 44 11 102q0 54 -7 78q-22 91 -70 135q-75 73 -152 88q-10 0 -14 1l-31 1q-10 -2 -29 -2
q-8 -5 -15 -5q-91 -18 -130 -96q-11 -35 -11 -54q0 -20 6 -38q7 45 42 80q44 44 106 44t106 -44t44 -106q0 -63 -44 -107q-53 -51 -150 -51q-89 0 -167 75q-54 67 -54 146q0 48 21 98q24 51 81 105q-393 159 -592 377l316 467h-451v111h1663v-111h-389q126 -83 152 -170
q23 -61 23 -111q0 -29 -7 -57q-32 -127 -169 -157l-26 -1q-69 0 -120 47q-57 56 -57 125t46 108q44 42 104 42q62 0 106 -44q6 -6 11 -13q-3 14 -8 29q-45 123 -317 193v-782q103 -28 187 -106q68 -71 92 -177q15 -64 15 -118q0 -44 -9 -94v-853zM827 621v778h-308
q-114 -167 -309 -456q69 -60 191 -134q213 -132 426 -188zM1112 -601v489q-113 -89 -224 -110q-48 -44 -90 -81.5t-92 -82.5q71 -54 128 -91q117 -72 278 -124z" />
    <glyph glyph-name="Charu_Chandan.97" horiz-adv-x="2013" 
d="M1203 -736q-196 30 -465 176q-92 55 -242 195q78 66 248 217q103 90 136 123q-214 18 -384 167q-68 52 -153 166q-160 216 -258 538l111 34q89 -294 240 -503q73 -100 133 -147q167 -144 369 -144q28 0 57 3q131 12 208 115q59 81 59 155q0 43 -17 87q-18 57 -50 93
q-114 -59 -269 -59q-16 0 -76 4l12 115q51 -6 76 -6q62 0 129 17q159 44 204 187q10 40 10 80q0 62 -20 123q-64 189 -280 237q-32 6 -66 6q-104 0 -192 -68q-38 -30 -57 -91q-10 -34 -10 -62q0 -29 10 -57l2 -9q21 -45 65 -73q-19 33 -19 75q0 63 44 106.5t106 43.5
t105 -43t45 -105q0 -92 -50 -150q-28 -32 -57 -43q-47 -22 -97 -22q-54 0 -116 30q-116 59 -139 164q-14 42 -14 84q0 52 13 91q28 94 97 150q116 91 283 91q45 0 70 -6q221 -51 325 -223q61 -107 66 -224q92 49 192 49q160 0 266 -118q28 -37 41 -69q32 -74 32 -142
q0 -44 -14 -86q-28 -90 -112 -131q-50 -22 -107 -22q-65 0 -112 33q-67 46 -67 126q0 63 44 106.5t106 43.5t106 -44q32 -31 40 -73q6 23 6 53q0 21 -6.5 55.5t-39.5 79.5q-58 78 -171 78l-32 -1q-45 -2 -95 -23q-54 -23 -93 -71l2 1q-14 -21 -25 -46q-27 -51 -68 -95
q48 -63 69 -128.5t21 -118.5q0 -43 -12 -78q-12 -65 -71 -143q-40 -56 -92 -93v-781zM2077 1399h-2148v111h2148v-111zM1085 -590v580l-26 -7l-393 -351q67 -52 132 -95q119 -77 287 -127z" />
    <glyph glyph-name="Charu_Chandan.98" horiz-adv-x="1505" 
d="M1167 -453h-102q-62 76 -118.5 111.5t-89.5 44.5t-69 9q-53 0 -267 -23q-39 -5 -73 -5q-100 0 -176.5 45t-117.5 112q-56 85 -70 241l112 3q10 -90 33 -149q24 -66 104 -112q52 -31 122 -31q36 0 76 8q14 0 44 3t65 6q90 12 154 12q29 0 72 -7.5t100 -34t86 -61.5v631
q-109 140 -273 153q-36 0 -63 -12q-126 -45 -153 -144q-11 -22 -11 -71q0 -17 2 -32q17 -65 56 -93q-17 32 -17 72q0 63 44 106.5t106 43.5t106 -44q16 -15 26 -34q28 -42 28 -85q0 -38 -11 -67q-29 -79 -114 -111q-41 -12 -85 -12q-76 0 -131 35q-85 44 -117 167
q0 8 -1.5 23t-1.5 33q0 61 26 138q46 98 141 158q-145 62 -268 135q-180 115 -277 223l316 467h-451v111h1663v-111h-386q50 -32 79 -63q57 -61 70 -108q23 -59 23 -110q0 -29 -7 -57q-31 -126 -169 -157q-10 -2 -26 -2q-68 0 -120 48q-57 57 -57 125q0 69 46 108
q44 42 104 42q62 0 106 -44q6 -6 11 -13q-3 14 -8 29q-45 123 -317 193v-780q-1 -17 -4 -31q126 -63 230 -193v-839zM827 621v778h-308q-231 -344 -308 -456q74 -65 190 -134q219 -136 426 -188z" />
    <glyph glyph-name="Charu_Chandan.99" horiz-adv-x="1510" 
d="M1223 -633h-108q-17 43 -36 84q-17 34 -46 61q-66 61 -176 61q-107 0 -262 -72q-64 -35 -173 -61q-64 -11 -104 -11q-137 1 -304 125v162q171 -173 322 -175q68 4 150 34q38 14 139 63q105 50 230 50q79 0 162 -34q50 -21 89 -52v278q-131 -116 -333 -116q-123 0 -260 78
q-222 127 -320 467q95 23 111 25q82 -300 273 -404q85 -55 188 -55q189 0 288 113q50 61 60 116q11 44 11 102q0 54 -7 78q-22 92 -70 136q-77 72 -152 87q-10 0 -14 1l-31 1q-10 -2 -29 -2q-8 -5 -15 -5q-90 -18 -130 -95q-11 -36 -11 -55q0 -20 6 -38q7 46 42 81
q44 44 106 44t106 -44t44 -106q0 -63 -44 -107q-26 -25 -57 -35q-47 -17 -93 -17q-89 0 -167 75q-54 70 -54 146q0 106 102 203q-173 71 -315 155q-180 115 -277 223l316 467h-451v111h1663v-111h-386q50 -32 79 -63q57 -61 70 -108q23 -59 23 -110q0 -29 -7 -57
q-31 -126 -169 -157q-10 -2 -26 -2q-68 0 -120 48q-57 57 -57 125q0 69 46 108q44 42 104 42q62 0 106 -44q6 -6 11 -13q-3 14 -8 29q-45 123 -317 193v-780q100 -24 187 -109q68 -69 92 -178q14 -68 14 -116q0 -49 -11 -108v-732zM827 621v778h-308q-231 -344 -308 -456
q74 -65 190 -134q219 -136 426 -188zM939 208v1l-1 -1h1z" />
    <glyph glyph-name="Charu_Chandan.100" horiz-adv-x="2029" 
d="M1353 -415h-107q-17 50 -36 91q-62 120 -220 120q-109 0 -259 -71q-66 -36 -171 -61q-58 -10 -103 -10q-136 0 -301 123v160q170 -172 319 -173q71 5 148 35q40 14 138 61q102 49 227 49q80 0 161 -33q49 -20 88 -52v249q-112 -101 -295 -101q-252 0 -446 170
q-68 52 -153 166q-160 216 -258 538l111 34q89 -294 240 -503q73 -100 133 -147q167 -144 369 -144q28 0 57 3q131 12 208 115q59 81 59 155q0 43 -17 87q-18 57 -50 93q-114 -59 -269 -59q-16 0 -76 4l12 115q51 -6 76 -6q62 0 129 17q159 44 204 187q10 40 10 80
q0 62 -20 123q-64 189 -280 237q-32 6 -66 6q-104 0 -192 -68q-38 -30 -57 -91q-10 -34 -10 -62q0 -29 10 -57l2 -9q21 -45 65 -73q-19 33 -19 75q0 63 44 106.5t106 43.5t106 -43.5t44 -106.5q0 -90 -50 -148q-28 -32 -57 -43q-47 -22 -97 -22q-54 0 -116 30
q-116 59 -139 164q-14 42 -14 84q0 52 13 91q28 94 97 150q116 91 283 91q45 0 70 -6q221 -51 325 -223q61 -107 66 -224q92 49 192 49q160 0 266 -118q28 -37 41 -69q32 -74 32 -142q0 -44 -14 -86q-28 -90 -112 -131q-50 -22 -107 -22q-65 0 -112 33q-67 46 -67 126
q0 63 44 106.5t106 43.5t106 -44q32 -31 40 -73q6 23 6 53q0 21 -6.5 55.5t-39.5 79.5q-58 78 -171 78l-32 -1q-45 -2 -95 -23q-54 -23 -93 -71l2 1q-14 -21 -25 -46q-27 -51 -68 -95q48 -63 69 -128.5t21 -118.5q0 -43 -12 -78q-4 -22 -13 -45v-651zM2077 1399h-2148v111
h2148v-111z" />
    <glyph glyph-name="Charu_Chandan.101" horiz-adv-x="1505" 
d="M379 -204q-49 0 -83 10q-112 39 -181 134q-20 25 -32 52q-42 87 -42 183q0 94 44 169q79 151 269 205q62 16 125 16q103 0 219 -56q91 -44 166 -113v111q-223 48 -483 202q-181 117 -276 223l316 467h-492v111h1653v-111h-342q36 -23 68 -52q73 -70 88 -121
q22 -62 22 -108q0 -66 -28 -112v2q-44 -81 -148 -104q-10 -2 -27 -2q-67 0 -119 48q-57 52 -57 125q0 62 44 106t106 44t106 -44l12 -13l-9 27q-50 128 -316 196v-1578h-118v406q-63 85 -169 163q-106 68 -216 68q-49 0 -98 -12q-25 -6 -77 -33q-150 -93 -150 -231
q0 -51 17 -100q24 -110 160 -157q20 -6 42 -6q10 0 25 2q89 9 123 39l17 16q-23 -8 -48 -8q-62 0 -106 44t-44 106t45 107t112 45q42 0 85 -27q73 -43 94 -148q6 -28 6 -54q0 -96 -79 -160q-86 -77 -224 -77zM866 621v778h-306q-77 -115 -154 -226.5t-155 -226.5l2 -5
q78 -68 188 -132q89 -55 211 -111q110 -50 214 -77z" />
    <glyph glyph-name="Charu_Chandan.102" horiz-adv-x="2373" 
d="M2192 -28h-116v665q-81 121 -209 213q-140 94 -295 94q-50 0 -144 -25q-96 -40 -161 -101q-103 -96 -103 -230q0 -64 22 -130q39 -144 208 -207q21 -8 64 -8l33 1q53 3 109 26q106 45 106 147v7q-43 -41 -103 -41q-62 0 -106 44t-44 106q0 63 44.5 107t108.5 44
q49 0 93 -26q91 -53 118 -179q7 -25 7 -66q0 -112 -91 -197q-80 -90 -271 -90q-62 0 -104 14q-224 68 -290 285q-25 93 -25 164q0 115 52 206q21 33 55 72q-48 21 -62 34q-53 55 -61 105q-3 16 -3 34q0 54 33 95q45 55 117 55q62 0 106 -44q21 -22 32 -48q-14 181 -364 267
v-912q-46 6 -122 22q-212 46 -472 204q-184 115 -290 231l333 489h-488v111h2527v-111h-244v-1427zM830 597v802h-291q-82 -124 -160 -238.5t-161 -237.5q266 -221 612 -326zM2076 827v572h-890l7 -3q167 -82 208 -196q20 -54 20 -109q0 -17 -4 -51q102 22 165 22
q276 -10 494 -235z" />
    <glyph glyph-name="Charu_Chandan.103" horiz-adv-x="1602" 
d="M1067 -168h-111v394q-93 132 -157 132q-38 0 -78 -66q10 -16 28 -56l-108 -27q-15 38 -33 64q-86 118 -199 118q-20 0 -95 -18q-51 -21 -99 -80.5t-48 -142.5q0 -44 16 -101v2q33 -88 126 -106q8 -3 29 -4q-23 11 -42 30q-43 44 -43 106t43.5 106t106.5 44q68 0 118 -58
q43 -50 43 -123q0 -79 -53 -140q-57 -74 -169 -74q-30 0 -58 7q-224 54 -224 310q0 102 52 185q66 102 170 146q89 21 140 21q67 0 122 -25t109 -89q73 79 145 79q91 0 158 -60v102q-231 49 -489 202q-169 108 -279 220l319 469h-569v111h1751v-111h-354q96 -66 145 -168
q23 -64 23 -113q0 -29 -7 -57q-31 -127 -169 -157q-10 -2 -25 -2q-69 0 -121 48q-56 56 -56 115v10q0 57 36 99q1 0 1 1q50 50 113 50q62 0 106 -44q6 -6 11 -13q-31 145 -325 223v-1559zM956 623v776h-309q-126 -185 -311 -454q75 -68 190 -136q213 -126 430 -186z" />
    <glyph glyph-name="Charu_Chandan.104" horiz-adv-x="1985" 
d="M1220 -28h-121v15q-213 58 -386 137.5t-311 206.5q-55 -23 -115 -28q-40 0 -75 8q-57 9 -112 62l-17 15q-42 63 -42 115q0 62 44 106t106 44t106 -44t44 -106q0 -37 -16 -68q30 7 62 30q45 45 58 73t25 54q13 55 13 76q0 36 -18 108q-16 47 -42 86q-7 8 -13.5 17
t-14.5 17q-30 -26 -76 -43q-32 -20 -100 -20t-110 23q-29 14 -65 54l-9 9q-9 13 -26 46l-1 2q-10 27 -10 57q0 62 44 106t106 44q63 0 106.5 -44t43.5 -106q0 -26 -8 -49q60 30 72 76q9 37 9 73q0 90 -98 177q-52 46 -106 68.5t-61 22.5q-11 3 -18 6q-3 0 -4 1h-182v111
h2155v-111h-837v-325q116 24 193 24q169 0 289 -93q140 -107 140 -280q0 -149 -107 -237q-58 -55 -159 -55q-31 0 -59 7q-122 37 -162 127q-11 24 -12.5 38t-1.5 28q0 62 44 105.5t106 43.5t106 -43.5t44 -105.5q0 -42 -20 -75q15 4 24 13q77 62 77 162q0 101 -92 177
q-88 70 -218 70q-65 0 -192 -33v-975zM1099 103v827q-330 9 -422 242q-33 82 -33 218q0 7 -1 7l1 2h-300q8 -7 16.5 -15t18.5 -16q24 -22 45 -52q46 -68 60 -127q9 -40 9 -83q0 -22 -4 -44l-17 -66l48 -64q82 -107 89 -245q0 -123 -80 -253q-12 -17 -27 -32
q226 -191 597 -299zM1099 1052v347h-336l-1 -17q0 -157 66 -237q77 -87 271 -93z" />
    <glyph glyph-name="Charu_Chandan.105" horiz-adv-x="2245" 
d="M2038 -215h-118v453q-67 115 -170 200q-71 53 -159.5 87.5t-170.5 34.5q-71 0 -149 -20q-142 -50 -200 -151q-27 -53 -27 -113q0 -45 17 -109q29 -109 160 -151q13 -6 45 -6q34 0 64 6q71 8 89 44l5 5q-19 -5 -41 -5q-62 0 -106 44t-44 106q0 63 44.5 107t109.5 44
q23 0 43 -5q108 -27 138 -169q6 -25 6 -52q0 -91 -78 -166q-70 -76 -223 -76q-53 0 -87 11q-259 83 -259 387q-291 95 -482 262q-48 -19 -90 -23q-79 0 -124 32l-18 13q-56 44 -56 110q0 56 39.5 95t94.5 39q56 0 95 -39t39 -102q75 80 75 158q0 24 -3 44q-6 29 -25 73
q-14 30 -30 47q-42 -26 -75 -34l-37 -9q-9 0 -17 -3q-36 0 -75 11q-19 3 -41 16q-22 9 -41 28q-39 40 -39 95q0 56 39.5 95t94.5 39q56 0 95 -39q35 -36 39 -86q29 44 29 71q0 8 -1.5 27t-24.5 61q-17 32 -52 63q-49 46 -121 64h-272v111h1168v-339q132 51 221 51
q50 0 99 -16q108 -37 161 -135q29 -55 29 -119q0 -54 -21 -105t-65 -85q-48 -42 -121 -42q-20 0 -44 2q-91 19 -135 106l-2 4q-13 26 -13 59q0 56 39.5 95t94.5 39q56 0 95 -39t39 -103q17 29 17 69q0 68 -60 118q-46 34 -113 34q-38 0 -64 -6q-90 -19 -157 -55v-451
q94 53 129 63q88 22 179 22q139 0 285 -70q117 -54 216 -165v1132h118v-64h292v-111h-292v-1614zM949 411q19 38 45 70v552q-185 10 -277 112q-76 91 -82 254h-189q86 -100 86 -212q0 -45 -20 -92l22 -21q24 -24 60 -97q30 -64 30 -138q0 -106 -79 -216q157 -130 404 -212z
M994 1150v249h-241q5 -123 53 -177q52 -58 188 -72z" />
    <glyph glyph-name="Charu_Chandan.106" horiz-adv-x="2172" 
d="M1201 -107q-53 0 -87 11q-259 83 -259 387q-291 95 -482 262q-48 -19 -90 -23q-79 0 -124 33q-72 49 -72 123q0 55 39.5 94.5t94.5 39.5q56 0 95 -39.5t39 -100.5q73 79 73 156q0 24 -3 44q-6 29 -25 73q-14 30 -30 47q-42 -26 -75 -34l-37 -9q-9 0 -17 -3q-36 0 -75 11
q-30 4 -65 34q-50 38 -50 105q0 56 39.5 95t94.5 39q56 0 95 -39q33 -33 38 -78q24 42 24 63q0 8 -1.5 27t-24.5 61q-17 32 -52 63q-49 46 -121 64h-272v111h2387v-111h-292v-1500h-118v339q-67 115 -170 200q-71 53 -159.5 87.5t-170.5 34.5q-71 0 -149 -20
q-142 -50 -200 -151q-27 -53 -27 -113q0 -45 17 -109q29 -109 160 -151q13 -6 45 -6q34 0 64 6q71 8 89 44l2 2q-13 -2 -27 -2q-62 0 -106 44t-44 106t44 106q28 28 64 38q14 7 35 7q23 0 44 -5l4 -2q103 -28 133 -167q6 -25 6 -52q0 -91 -78 -166q-70 -76 -223 -76z
M1848 442v957h-809v-228q132 51 221 51q50 0 99 -16q108 -37 161 -135q29 -55 29 -119q0 -54 -21 -105t-65 -85q-48 -42 -121 -42q-20 0 -44 2q-84 17 -129 95q-22 33 -22 75q0 55 39.5 94.5t94.5 39.5q56 0 95 -39.5t39 -94.5v-11q18 29 18 71q0 68 -60 118q-46 34 -113 34
q-38 0 -64 -6q-90 -19 -157 -55v-451q94 53 129 63q88 22 179 22q139 0 285 -70q117 -54 216 -165zM877 411q19 38 45 70v552q-185 10 -277 112q-76 91 -82 254h-189q86 -100 86 -212q0 -45 -20 -92l22 -21q24 -24 60 -97q30 -64 30 -138q0 -106 -79 -216q157 -130 404 -212
zM922 1150v249h-241q5 -123 53 -177q52 -58 188 -72z" />
    <glyph glyph-name="Charu_Chandan.107" horiz-adv-x="1745" 
d="M1540 -28h-117v261q-190 332 -600 382q-10 -208 -98 -318q-45 -51 -107 -80q-81 -39 -149 -39q-132 0 -234 117q-69 89 -69 194q0 28 19 109l105 -69q-7 -28 -7 -36q0 -26 6 -47q12 -48 34 -77q69 -77 125 -77q11 0 23 3q104 9 160 80q73 83 75 275q-186 52 -369 165
q-164 102 -245 193l261 391h-420v111h1888v-111h-281v-1427zM1423 436v963h-385l6 -4q153 -87 202 -202q22 -64 22 -117q0 -176 -190 -224q-10 -2 -21 -2q-63 0 -128 50q-59 61 -59 131q0 60 44 105t106 45q63 0 106 -44q22 -22 33 -49q-2 34 -14 68q-47 124 -330 214v-634
q174 -14 323.5 -87t284.5 -213zM694 776v623h-199l-248 -375q89 -74 151 -110q130 -81 296 -138z" />
    <glyph glyph-name="Charu_Chandan.108" horiz-adv-x="2119" 
d="M1916 -28h-120v918q-97 260 -255 387q-110 84 -184 101.5t-104 17.5q-149 0 -280 -199q-38 -72 -70 -182q192 33 306 33q30 0 41 -1q149 0 196 -88q14 -37 14 -71q0 -88 -89 -206q-78 -117 -278 -271l-65 90q171 130 248 243q72 90 72 144q0 13 -3 21q-14 26 -96 26
q-141 0 -410 -42q-5 -2 -73 -14l8 74q14 106 53 201q-74 114 -133 162q-136 104 -240 104q-20 0 -35 -2q-98 -20 -153 -104v-2q-47 -67 -88 -187q170 24 243 24q2 0 4.5 -0.5t29.5 -0.5q133 0 173 -83q16 -26 16 -62q0 -79 -82 -185q-65 -103 -238 -232q-55 79 -59.5 86
t-7.5 10q154 116 213 210q56 70 56 107q0 8 -3 15l2 -2q-11 19 -74 19q-95 0 -172 -8q-114 -12 -181 -30q-6 -2 -11.5 -2.5t-26.5 -4t-29 -3.5l8 77q26 171 121 310q106 164 298 164q226 0 430 -262q13 21 28 42q93 149 270 185q40 8 69 8q197 -14 344 -129q44 -30 118 -114
q46 -53 79 -109v420h120v-65h287v-111h-287v-1427z" />
    <glyph glyph-name="Charu_Chandan.109" horiz-adv-x="1952" 
d="M1770 -28h-121v984q-182 -201 -362 -304.5t-370 -116.5l-3 505q-139 220 -220 280q-130 103 -234 103q-123 0 -190 -105v-2q-50 -72 -90 -187q157 23 237 23q33 0 42 -1q135 0 174 -83q16 -32 16 -62q0 -74 -81 -182q-71 -104 -238 -230l-68 93q151 117 212 207
q57 73 57 110q0 31 -76 31q-95 0 -172 -8q-114 -12 -181 -30q-6 -2 -11.5 -2.5t-28 -4t-30.5 -3.5l12 77q21 166 120 310q87 134 237 159q24 6 61 6q145 0 305 -124q77 -77 147 -162v321h119v-64h996v-111h-996v-731q243 67 437 262q149 155 207 273q3 -2 48 -27.5t45 -27.5
v-1176z" />
    <glyph glyph-name="Charu_Chandan.110" horiz-adv-x="1622" 
d="M1077 -43q-130 22 -298 84t-283 136.5t-216 166.5q282 238 680 584v132q-127 195 -216 260q-117 100 -222 100q-30 0 -41 -3q-114 -38 -164 -127t-72 -157q149 24 233 24h41q127 0 168 -81q19 -38 19 -62q0 -41 -23 -84q-101 -191 -294 -323l-65 92q151 122 206 201
q38 55 43 104q0 37 -60 37q-38 5 -82 5q-132 0 -324 -46l8 73q23 178 114 296q92 143 228 160q13 5 65 5q138 0 295 -119q49 -41 85.5 -84.5t57.5 -62.5v304h117v-62h596v-111h-596v-477h344v-951h-111v834h-233v-848zM960 106v669l-493 -431q158 -149 493 -238z" />
    <glyph glyph-name="Charu_Chandan.111" horiz-adv-x="1624" 
d="M1077 -461q-196 30 -465 176q-92 55 -242 195q78 66 214 187l21 18q-169 86 -325 229q282 238 680 584v132q-127 195 -216 260q-117 100 -222 100q-30 0 -41 -3q-114 -38 -164 -127t-72 -157q149 24 233 24h41q127 0 168 -81q19 -38 19 -62q0 -41 -23 -84
q-101 -191 -294 -323l-65 92q151 122 206 201q38 55 43 104q0 37 -60 37q-38 5 -82 5q-132 0 -324 -46l8 73q23 178 114 296q92 143 228 160q13 5 65 5q138 0 295 -119q49 -41 85.5 -84.5t57.5 -62.5v304h117v-62h596v-111h-596v-477h344v-951h-111v834h-233v-1266z
M960 -315v596l-420 -374q67 -52 132 -95q120 -77 288 -127zM697 197l104 95v-1l159 143v341l-493 -431q87 -83 230 -147z" />
    <glyph glyph-name="Charu_Chandan.112" horiz-adv-x="1364" 
d="M1161 -168h-117v417q-79 109 -143 109q-34 0 -76 -67l28 -57l-110 -25q-28 71 -73 110q-68 72 -158 72q-20 0 -46 -3q-80 -11 -147 -94q-48 -58 -48 -143q0 -23 4 -48q22 -135 138 -158q7 -2 20 -3q-18 10 -33 25q-43 44 -43 106t43.5 106t106.5 44q32 0 59 -12
q102 -46 102 -165q0 -79 -53 -140q-57 -74 -169 -74q-30 0 -58 7q-225 61 -225 310q0 102 54 185q41 67 118 119q-21 25 -46 64q173 131 246 240q70 94 70 142q0 12 -4 19q-13 25 -93 25q-182 0 -402 -40q-6 -2 -9 -2.5t-7 -1.5t-10.5 -1.5t-8 -1.5t-12.5 -4.5t-26 -8.5
l8 80q28 198 139 354q91 149 266 182q35 7 66 7q166 0 327 -122q128 -99 205 -228v418h117v-64h283v-111h-283v-1567zM757 387q75 79 141 79q79 0 146 -52v479q-85 235 -210.5 350.5t-192.5 133.5q-72 19 -132 19q-22 0 -42 -2q-123 -26 -191 -130l-6 -7l4 4
q-63 -95 -105 -237q201 32 306 32q2 0 4.5 -0.5t29.5 -0.5q144 0 194 -90q13 -44 13 -67q0 -88 -87 -200q-54 -77 -197 -205q43 10 83 10q75 0 132 -27t110 -89z" />
    <glyph glyph-name="Charu_Chandan.113" horiz-adv-x="1354" 
d="M1149 -105h-117v412q-99 104 -191 174q-102 67 -218 67q-88 0 -149 -32q-5 -2 -5 -2.5t-3 -2t-7.5 -4t-8.5 -4.5q-151 -92 -151 -228q0 -44 17 -104q26 -110 160 -157q12 -5 41 -5q11 0 26 2q58 6 87 20q33 16 53 36q-22 -7 -46 -7q-63 0 -106.5 44t-43.5 106t43.5 106
t111.5 44q43 0 83 -25q75 -44 94 -149q6 -34 6 -56q0 -94 -77 -159q-85 -76 -224 -76q-159 0 -265 141q-73 105 -73 239q0 88 44 168q14 32 59 84q47 44 77 63q106 94 157 168q69 93 69 142q0 13 -4 20q-11 24 -92 24h-30q-164 0 -372 -39l-72 -10l7 69q28 198 139 354
q89 147 266 182q32 7 66 7q172 0 351 -146q106 -89 181 -205v418h117v-64h283v-111h-283v-1504zM1032 476v418q-74 222 -247 381q-172 122 -286 122q-24 0 -43 -4q-124 -22 -193 -129q-62 -88 -107 -239q183 32 300 32q32 0 41 -1q144 0 194 -91q13 -34 13 -65
q0 -92 -104 -222h1q0 -4 -13 -17l26 1q229 0 418 -186z" />
    <glyph glyph-name="Charu_Chandan.114" horiz-adv-x="2168" 
d="M1958 -28h-120v687q-91 132 -205 212q-146 94 -290 94q-122 0 -220 -60q-104 -56 -159 -151q-38 -72 -38 -151q0 -52 24 -133q20 -69 76 -120q93 -87 198 -87q140 0 189 60q56 49 56 116q-42 -36 -98 -36q-62 0 -106 44t-44 106q0 63 44 106.5t106 43.5q53 0 93 -24
q86 -52 117 -184q2 -16 4.5 -33t2.5 -37q0 -107 -99 -193.5t-242 -86.5q-78 0 -127 17q-224 67 -286 279q-26 88 -26 166q0 112 51 203q0 7 6 11q4 9 9 16q-102 162 -186 228q-146 101 -238 101q-119 0 -191 -104q-48 -68 -89 -188q143 22 238 22q30 0 41 -1q128 0 173 -82
q16 -34 16 -64q0 -77 -80 -181q-67 -102 -241 -234l-64 98q148 112 213 206q55 77 55 108q0 32 -75 32l-32 1q-122 0 -308 -34q-4 -2 -9.5 -2.5t-10.5 -2.5q-23 -7 -60 -10l7 77q24 173 122 309q105 166 297 166q267 0 501 -352q88 77 208 123q-38 109 -115 195t-202 157
v105h1401v-111h-287v-1427zM1838 845v554h-771q166 -164 214 -321q51 3 63 3q270 -8 494 -236z" />
    <glyph glyph-name="Charu_Chandan.115" horiz-adv-x="1184" 
d="M888 511v888h-516q-72 -55 -99 -100q-41 -63 -41 -91q0 -8 4 -14q9 -19 94 -22q88 0 248 27q0 -6 23 -107q-7 -4 -19 -8.5t-19 -7.5q-2 0 -4 -2q-33 -34 -63.5 -65t-60.5 -62t-61 -62t-64 -66q79 -73 215 -157q186 -6 363 -151zM613 340q86 -43 106 -156q6 -25 6 -54
q0 -95 -78 -160q-85 -76 -224 -76q-50 0 -84 10q-146 50 -213 186q-41 81 -41 183q0 47 10 90q39 166 260 267q-130 99 -205 190l234 241h-84q-130 0 -168 75q-16 39 -16 70q0 63 60 152q7 9 9.5 12t6.5 10t12 18q2 2 2 3l-2 -2h-296v111h1356v-111h-259v-1505h-117v446
q-169 207 -365 207q-81 0 -159 -38q-7 -4 -8 -4t-5 -2q-89 -55 -124 -116q-28 -47 -28 -115q0 -45 15 -103q30 -110 162 -156q12 -5 41 -5q11 0 26 2q94 8 137 51q-17 -4 -37 -4q-62 0 -106 44t-44 106q0 63 44.5 107t102.5 44q9 0 20 -2q21 -2 42 -11l3 -1z" />
    <glyph glyph-name="Charu_Chandan.116" horiz-adv-x="2946" 
d="M2184 -28h-115v15q-288 67 -608 263q-164 98 -273 198q-13 -55 -29 -110q-58 -181 -231 -252q-71 -23 -134 -23q-151 0 -336 110q-242 138 -479 550l106 55q197 -361 435 -506q158 -92 273 -92q56 0 93 15q125 55 162 178q57 191 57 432q-223 -87 -362 -110
q-37 -10 -79 -10q-95 0 -145 61q-42 53 -42 131q0 75 38 178q-19 60 -19 139q0 87 51 205l51 111l111 -40q-61 -125 -80 -182q-13 -52 -14 -78q55 39 123 41q81 0 143 -57q57 -62 57 -143q0 -85 -51 -139q-70 -62 -148 -62q-74 0 -142 59q-2 -30 -2 -44q0 -30 14 -50
q16 -13 52 -13q23 0 55 5q170 23 417 137q11 3 29 13l44 22l10 -84q7 -58 7 -134q0 -33 -2 -67l475 705h-496v111h1824v-111h-668q322 -142 396 -354q30 -76 30 -176q0 -267 -265 -327q-7 -1 -23 -1q-122 0 -195 73q-78 79 -78 175q0 25 5 48q12 120 117 164q33 14 70 14
q86 0 134 -47q44 -43 44 -106q0 -62 -44 -106t-106 -44q-54 0 -95 33q12 -26 37 -51q34 -34 119 -36q164 44 164 207q0 22 -4 50q-10 67 -19 89q-52 145 -263 258q-89 45 -196 77v-1367zM2069 105v1294h-232l-577 -857q111 -101 261 -193q274 -170 548 -244zM739 968
q37 0 61 23.5t24 59.5q0 29 -25 62q-28 23 -60 23q-33 0 -60 -25q-22 -31 -22 -60q0 -35 23 -59t59 -24z" />
    <glyph glyph-name="Charu_Chandan.117" horiz-adv-x="2939" 
d="M2184 -307h-107q-16 46 -35 85q-64 120 -220 120q-109 0 -262 -71q-63 -36 -171 -61q-56 -10 -103 -10q-135 0 -302 123v161q171 -173 320 -174q64 2 149 35q40 14 139 62.5t228 48.5q78 0 160 -34q50 -20 89 -51v60q-288 67 -608 263q-164 98 -273 198q-13 -55 -29 -110
q-58 -181 -231 -252q-71 -23 -134 -23q-151 0 -336 110q-242 138 -479 550l106 55q197 -361 435 -506q158 -92 273 -92q56 0 93 15q125 55 162 178q57 191 57 432q-223 -87 -362 -110q-37 -10 -79 -10q-95 0 -145 61q-42 53 -42 131q0 75 38 178q-19 60 -19 139q0 87 51 205
l51 111l111 -40q-61 -125 -80 -182q-13 -52 -14 -78q55 39 123 41q81 0 143 -57q57 -62 57 -143q0 -85 -51 -139q-70 -62 -148 -62q-74 0 -142 59q-2 -30 -2 -44q0 -30 14 -50q16 -13 52 -13q23 0 55 5q170 23 417 137q11 3 29 13l44 22l10 -84q7 -58 7 -134q0 -33 -2 -67
l475 705h-496v111h1824v-111h-668q322 -142 396 -354q30 -76 30 -176q0 -267 -265 -327q-7 -1 -23 -1q-122 0 -195 73q-78 79 -78 175q0 25 5 48q12 120 117 164q33 14 70 14q86 0 134 -47q44 -43 44 -106q0 -62 -44 -106t-106 -44q-54 0 -95 33q12 -26 37 -51
q34 -34 119 -36q164 44 164 207q0 22 -4 50q-10 67 -19 89q-52 145 -263 258q-89 45 -196 77v-1646zM2069 105v1294h-232l-577 -857q111 -101 261 -193q274 -170 548 -244zM739 968q37 0 61 23.5t24 59.5q0 29 -25 62q-28 23 -60 23q-33 0 -60 -25q-22 -31 -22 -60
q0 -35 23 -59t59 -24z" />
    <glyph glyph-name="Charu_Chandan.118" horiz-adv-x="3080" 
d="M2315 -28h-121v15q-213 58 -386 137.5t-311 206.5q-55 -23 -115 -28q-40 0 -75 8q-57 9 -112 62q-19 16 -21 20q-7 -28 -15 -55q-58 -181 -231 -252q-71 -23 -134 -23q-151 0 -336 110q-242 138 -479 550l106 55q197 -361 435 -506q158 -92 273 -92q56 0 93 15
q125 55 162 178q57 191 57 432q-223 -87 -362 -110q-37 -10 -79 -10q-95 0 -145 61q-42 53 -42 131q0 75 38 178q-19 60 -19 139q0 87 51 205l51 111l111 -40q-61 -125 -80 -182q-13 -52 -14 -78q55 39 123 41q81 0 143 -57q57 -62 57 -143q0 -85 -51 -139q-70 -62 -148 -62
q-74 0 -142 59q-2 -30 -2 -44q0 -30 14 -50q16 -13 52 -13q23 0 55 5q164 22 402 130q-25 43 -25 88q0 62 44 106t106 44q63 0 106.5 -44t43.5 -106q0 -27 -8 -50q60 30 72 76q9 37 9 73q0 90 -98 177q-52 46 -106 68.5t-61 22.5q-11 3 -18 6q-3 0 -4 1h-182v111h2155v-111
h-837v-325q116 24 193 24q169 0 289 -93q140 -107 140 -280q0 -149 -107 -237q-58 -55 -159 -55q-31 0 -59 7q-123 38 -163 129l-2 5q-6 17 -8.5 26t-2.5 33q0 62 44 106t106 44t106 -44t44 -106q0 -42 -20 -76q14 5 24 14q77 62 77 162q0 101 -92 177q-88 70 -218 70
q-65 0 -192 -33v-975zM2194 103v827q-330 9 -422 242q-33 82 -33 218q0 7 -1 7l1 2h-300q8 -7 16.5 -15t18.5 -16q24 -22 45 -52q46 -68 60 -127q9 -40 9 -83q0 -22 -4 -44l-17 -66l48 -64q82 -107 89 -245q0 -123 -80 -253q-12 -17 -27 -32q226 -191 597 -299zM2194 1052
v347h-336l-2 -21l1 -10q0 -143 65 -223q78 -87 272 -93zM1420 435q30 7 62 30q45 45 58 73t25 54q13 54 13 78q0 34 -18 106q-16 47 -42 86q-7 8 -13.5 17t-14.5 17q-30 -26 -76 -43q-32 -20 -100 -20q-56 0 -94 15q3 -40 3 -87q0 -62 -6 -124q31 16 69 16q62 0 106 -44
t44 -106q0 -37 -16 -68zM739 968q37 0 61 23.5t24 59.5q0 29 -25 62q-28 23 -60 23q-33 0 -60 -25q-22 -31 -22 -60q0 -35 23 -59t59 -24z" />
    <glyph glyph-name="Charu_Chandan.119" horiz-adv-x="3069" 
d="M2315 -307h-112q-24 56 -36 82q-64 120 -222 120q-109 0 -263 -71q-61 -35 -172 -61q-58 -10 -104 -10q-137 0 -304 123v161q172 -173 322 -174q65 2 150 35q36 13 138 62t231 49q79 0 162 -33q50 -20 89 -52v63q-213 58 -386 137.5t-311 206.5q-55 -23 -115 -28
q-40 0 -75 8q-57 9 -112 62q-19 16 -21 20q-7 -28 -15 -55q-58 -181 -231 -252q-71 -23 -134 -23q-151 0 -336 110q-242 138 -479 550l106 55q197 -361 435 -506q158 -92 273 -92q56 0 93 15q125 55 162 178q57 191 57 432q-223 -87 -362 -110q-37 -10 -79 -10
q-95 0 -145 61q-42 53 -42 131q0 75 38 178q-19 60 -19 139q0 87 51 205l51 111l111 -40q-61 -125 -80 -182q-13 -52 -14 -78q55 39 123 41q81 0 143 -57q57 -62 57 -143q0 -85 -51 -139q-70 -62 -148 -62q-74 0 -142 59q-2 -30 -2 -44q0 -30 14 -50q16 -13 52 -13
q23 0 55 5q164 22 402 130q-25 40 -25 88q0 62 44 106t106 44q63 0 106.5 -44t43.5 -106q0 -27 -8 -50q60 30 72 76q9 37 9 73q0 90 -98 177q-52 46 -106 68.5t-61 22.5q-11 3 -18 6q-3 0 -4 1h-182v111h2155v-111h-837v-325q116 24 193 24q169 0 289 -93q140 -107 140 -280
q0 -149 -107 -237q-58 -55 -159 -55q-13 0 -28 2q-134 13 -189 125q-6 11 -10 22q-8 24 -8 51q0 62 44 106t106 44t106 -44t44 -106q0 -42 -20 -76q14 5 24 14q77 62 77 162q0 101 -92 177q-88 70 -218 70q-65 0 -192 -33v-1254zM2194 103v827q-330 9 -422 242
q-33 82 -33 218q0 7 -1 7l1 2h-300q8 -7 16.5 -15t18.5 -16q24 -22 45 -52q46 -68 60 -127q9 -40 9 -83q0 -22 -4 -44l-17 -66l48 -64q82 -107 89 -245q0 -123 -80 -253q-12 -17 -27 -32q226 -191 597 -299zM2194 1052v347h-336l-1 -17q0 -157 66 -237q77 -87 271 -93z
M1420 435q30 7 62 30q45 45 58 73t25 54q13 55 13 76q0 36 -18 108q-16 47 -42 86q-7 8 -13.5 17t-14.5 17q-30 -26 -76 -43q-32 -20 -100 -20q-56 0 -94 15q3 -40 3 -87q0 -62 -6 -124q31 16 69 16q62 0 106 -44t44 -106q0 -37 -16 -68zM739 968q37 0 61 23.5t24 59.5
q0 29 -25 62q-28 23 -60 23q-33 0 -60 -25q-22 -31 -22 -60q0 -35 23 -59t59 -24z" />
    <glyph glyph-name="Charu_Chandan.120" horiz-adv-x="2395" 
d="M2171 -28h-116v12q-271 61 -607 266q-156 98 -261 192q-12 -52 -28 -104q-58 -181 -231 -252q-71 -23 -134 -23q-151 0 -336 110q-242 138 -479 550l106 55q197 -361 435 -506q158 -92 273 -92q56 0 93 15q125 55 162 178q57 191 57 432q-223 -87 -362 -110
q-37 -10 -79 -10q-95 0 -145 61q-42 53 -42 131q0 75 38 178q-19 60 -19 139q0 87 51 205l51 111l111 -40q-61 -125 -80 -182q-13 -52 -14 -78q55 39 123 41q81 0 143 -57q57 -62 57 -143q0 -85 -51 -139q-70 -62 -148 -62q-74 0 -142 59q-2 -30 -2 -44q0 -30 14 -50
q16 -13 52 -13q23 0 55 5q170 23 417 137q11 3 29 13l44 22l10 -84q7 -58 7 -134q0 -65 -7 -131l454 381q6 38 6 81q-2 109 -68 223q-21 -133 -103 -202q-97 -77 -217 -77q-12 0 -21 1q-126 12 -187 117q-21 40 -21 93q0 80 48 128q45 45 109 45t108.5 -45t44.5 -109
q0 -63 -44 -108q60 8 102 43q69 61 69 176q0 57 -9 124q73 22 77 24q19 -9 74.5 -62.5t104 -160.5t48.5 -227q0 -63 -11 -118l-20 -23l-492 -408q108 -90 238 -173q280 -171 549 -243v1464h116v-64h287v-111h-287v-1427zM739 968q37 0 61 23.5t24 59.5q0 29 -25 62
q-28 23 -60 23q-33 0 -60 -25q-22 -31 -22 -60q0 -35 23 -59t59 -24z" />
    <glyph glyph-name="Charu_Chandan.121" horiz-adv-x="1584" 
d="M1470 -29h-41q-214 0 -323 118q-93 116 -111 218q-12 66 -12 170q0 123 24 243q-115 -110 -735 -713l-91 96l422 394q157 168 192 374v47q0 61 -22 118q-74 166 -209 190q-38 6 -69 6q-41 0 -71 -11q-149 -47 -196 -171q-19 -49 -19 -102q0 -30 3 -35q35 -119 113 -163
q61 -19 101 -19l33 1l11 2q-21 11 -39 29q-44 44 -44 106t44 106t106 44q60 0 101 -39l7 -7q49 -49 49 -124q0 -47 -14 -88q-20 -44 -59.5 -74t-89.5 -55q-55 -17 -107 -17q-80 0 -152 42q-60 30 -101.5 83.5t-68.5 150.5q-6 22 -6 60q0 95 41 171q68 146 256 212
q25 5 47 9.5t55 4.5q257 0 383 -265q36 -74 36 -157l-3 -137q8 13 449 435l85 -86q-350 -325 -350 -647q-1 -11 -1 -25q0 -48 16 -135t95 -165q65 -66 201 -66q28 0 58 3zM1065 1185q-113 0 -190 77q-53 59 -68 137h-896v111h1739v-111h-325q-17 -74 -70 -133
q-74 -81 -190 -81zM1076 1287q103 11 133 112h-287q0 -28 38.5 -70t115.5 -42z" />
    <glyph glyph-name="Charu_Chandan.122" horiz-adv-x="2379" 
d="M2197 -28h-115v25q-282 64 -607 260q-168 105 -283 212q-13 -66 -33 -131q-58 -181 -231 -252q-71 -23 -134 -23q-151 0 -336 110q-242 138 -479 550l106 55q197 -361 435 -506q158 -92 273 -92q56 0 93 15q125 55 162 178q57 191 57 432q-223 -87 -362 -110
q-37 -10 -79 -10q-95 0 -145 61q-42 53 -42 131q0 75 38 178q-19 60 -19 139q0 87 51 205l51 111l111 -40q-61 -125 -80 -182q-13 -52 -14 -78q55 39 123 41q81 0 143 -57q57 -62 57 -143q0 -85 -51 -139q-70 -62 -148 -62q-74 0 -142 59q-2 -30 -2 -44q0 -30 14 -50
q16 -13 52 -13q23 0 55 5q170 23 417 137q14 4 51 24q-66 46 -66 143q0 84 75 195q17 26 75 93h-202v111h1377v-111h-246v-1427zM2082 117v1282h-642q-99 -84 -148 -158q-58 -82 -58 -130q0 -12 13 -43l-1 3q17 -28 151 -28q128 0 312 29q10 -56 22 -112q-36 -9 -41 -9
l-101 -105q-100 -106 -195 -204q-50 -51 -102 -106q93 -79 246 -177q286 -176 544 -242zM1216 629l289 302q-105 -3 -161 -3q-83 1 -135 26q14 -118 14 -193q0 -66 -7 -132zM739 968q37 0 61 23.5t24 59.5q0 29 -25 62q-28 23 -60 23q-33 0 -60 -25q-22 -31 -22 -60
q0 -35 23 -59t59 -24z" />
    <glyph glyph-name="Charu_Chandan.123" horiz-adv-x="2387" 
d="M2197 -307h-107q-16 51 -36 93q-16 32 -45 59q-64 60 -174 60t-262 -71q-59 -34 -168 -60q-58 -10 -103 -10q-134 0 -301 123v160q171 -172 319 -173q30 1 61 9q44 8 87 25q33 11 138 62q99 49 227 49q78 0 160 -34q50 -19 89 -51v63q-282 64 -607 260q-168 105 -283 212
q-13 -66 -33 -131q-58 -181 -231 -252q-71 -23 -134 -23q-151 0 -336 110q-242 138 -479 550l106 55q197 -361 435 -506q158 -92 273 -92q56 0 93 15q125 55 162 178q57 191 57 432q-223 -87 -362 -110q-37 -10 -79 -10q-95 0 -145 61q-42 53 -42 131q0 75 38 178
q-19 60 -19 139q0 87 51 205l51 111l111 -40q-61 -125 -80 -182q-13 -52 -14 -78q55 39 123 41q81 0 143 -57q57 -62 57 -143q0 -85 -51 -139q-70 -62 -148 -62q-74 0 -142 59q-2 -30 -2 -44q0 -30 14 -50q16 -13 52 -13q23 0 55 5q170 23 417 137q14 4 51 24
q-66 46 -66 143q0 84 75 195q17 26 75 93h-202v111h1377v-111h-246v-1706zM2082 117v1282h-642q-99 -84 -148 -158q-58 -82 -58 -130q0 -12 13 -43l-1 3q17 -28 151 -28q128 0 312 29q10 -56 22 -112q-36 -9 -41 -9l-101 -105q-100 -106 -195 -204q-50 -51 -102 -106
q93 -79 246 -177q286 -176 544 -242zM1216 629l289 302q-105 -3 -161 -3q-83 1 -135 26q14 -118 14 -193q0 -66 -7 -132zM739 968q37 0 61 23.5t24 59.5q0 29 -25 62q-28 23 -60 23q-33 0 -60 -25q-22 -31 -22 -60q0 -35 23 -59t59 -24z" />
    <glyph glyph-name="Charu_Chandan.124" horiz-adv-x="2490" 
d="M2266 -28h-120v680q-45 66 -96 119q-187 190 -401 190q-45 0 -120 -14q-11 -5 -24 -11t-26 -11q-43 -19 -51 -25q-197 -120 -197 -304q0 -52 23 -136q21 -70 76 -121q91 -86 200 -86l32 1q55 3 110 27q104 44 104 161q-49 -49 -111 -49t-106 44t-44 106t44 106
q28 28 64 38q31 8 56 8q53 0 92 -24q89 -57 117 -185q2 -15 4.5 -32t2.5 -28q0 -55 -25 -106q-88 -182 -339 -185q-58 0 -104 13q-190 59 -262 212q-54 -199 -237 -274q-71 -23 -134 -23q-151 0 -336 110q-242 138 -479 550l106 55q197 -361 435 -506q158 -92 273 -92
q56 0 93 15q125 55 162 178q57 191 57 432q-223 -87 -362 -110q-37 -10 -79 -10q-95 0 -145 61q-42 53 -42 131q0 75 38 178q-19 60 -19 139q0 87 51 205l51 111l111 -40q-61 -125 -80 -182q-13 -52 -14 -78q55 39 123 41q81 0 143 -57q57 -62 57 -143q0 -85 -51 -139
q-70 -62 -148 -62q-74 0 -142 59q-2 -30 -2 -44q0 -30 14 -50q16 -13 52 -13q23 0 55 5q170 23 417 137q11 3 29 13l44 22q11 -92 11 -97q88 103 251 168q-79 220 -305 349h-49v111h1440v-111h-288v-1427zM2146 843v556h-765q63 -58 113 -136q65 -104 91 -189q23 3 64 3
q122 0 250 -57t247 -177zM739 968q37 0 61 23.5t24 59.5q0 29 -25 62q-28 23 -60 23q-33 0 -60 -25q-22 -31 -22 -60q0 -35 23 -59t59 -24zM1564 623l-5 10z" />
    <glyph glyph-name="Charu_Chandan.125" horiz-adv-x="2497" 
d="M2266 -28h-120v680q-45 66 -96 119q-187 190 -401 190q-45 0 -120 -14q-11 -5 -24 -11t-26 -11q-43 -19 -51 -25q-197 -120 -197 -304q0 -52 23 -136q21 -70 76 -121q91 -86 200 -86l32 1q55 3 110 27q104 44 104 161q-49 -49 -111 -49t-106 44t-44 106t44 106
q28 28 64 38q31 8 56 8q53 0 92 -24q89 -57 117 -185q2 -15 4.5 -32t2.5 -28q0 -55 -25 -106q-88 -182 -339 -185q-58 0 -104 13q-190 59 -262 212q-54 -199 -237 -274q-71 -23 -134 -23q-151 0 -336 110q-242 138 -479 550l106 55q197 -361 435 -506q158 -92 273 -92
q56 0 93 15q125 55 162 178q57 191 57 432q-223 -87 -362 -110q-37 -10 -79 -10q-95 0 -145 61q-42 53 -42 131q0 75 38 178q-19 60 -19 139q0 87 51 205l51 111l111 -40q-61 -125 -80 -182q-13 -52 -14 -78q55 39 123 41q81 0 143 -57q57 -62 57 -143q0 -85 -51 -139
q-70 -62 -148 -62q-74 0 -142 59q-2 -30 -2 -44q0 -30 14 -50q16 -13 52 -13q23 0 55 5q170 23 417 137q11 3 29 13l44 22q11 -92 11 -97q88 103 251 168q-79 220 -305 349h-49v111h1440v-111h-288v-1427zM2146 843v556h-765q63 -58 113 -136q65 -104 91 -189q23 3 64 3
q122 0 250 -57t247 -177zM739 968q37 0 61 23.5t24 59.5q0 29 -25 62q-28 23 -60 23q-33 0 -60 -25q-22 -31 -22 -60q0 -35 23 -59t59 -24zM1564 623l-5 10z" />
    <glyph glyph-name="Charu_Chandan.126" horiz-adv-x="2156" 
d="M1234 -16q-100 0 -163 21l1 -2q-5 0 -32 18v252q-120 -144 -273 -203q-195 -86 -415 -86q-97 0 -161 20q-4 2 -33 9v1386h-266v111h2362v-111h-1102v-585q247 121 446 121q110 0 204 -43q50 -25 113 -88q68 -68 89 -161q14 -47 14 -110q0 -57 -19 -116
q-101 -245 -350 -348q-222 -85 -415 -85zM1240 95q78 0 179 19q97 17 184 58q202 81 289 284q14 33 14 78q0 37 -12 80q-28 91 -81 133l-18 18q-38 40 -137 57q-26 4 -56 4q-200 0 -450 -138v-587q35 -6 88 -6zM358 95q78 0 179 19q97 17 185 58q208 83 287 283q14 30 14 79
q0 43 -12 80q-25 88 -81 133l-18 18q-38 40 -136 57q-28 4 -56 4q-78 0 -198.5 -37.5t-251.5 -102.5v-585q34 -6 88 -6zM1040 801v598h-770v-585q127 63 242.5 92t202.5 29q46 0 96 -10q149 -24 229 -124z" />
    <glyph glyph-name="Charu_Chandan.127" horiz-adv-x="2285" 
d="M1040 810v589h-771v-585q250 121 446 121q157 0 274 -83q34 -23 51 -42zM357 94q44 0 89 5q159 18 275 72q208 83 287 283q15 32 15 79q0 136 -103 223v1l-3 2q-44 46 -142 63q-28 4 -56 4q-199 0 -450 -139v-587q35 -6 88 -6zM1152 366q209 6 392 70q209 66 297 274
q21 51 21 104q0 109 -102 193q-33 41 -142 53q-4 0 -6.5 0.5t-34.5 0.5q-89 0 -202.5 -30t-222.5 -90v-575zM2222 -229q-178 48 -357 125q-176 78 -238 119q-79 50 -85 56l-24 88q189 33 334 85q111 53 124 115q-2 41 -40 79l3 -2q-56 42 -116 51q-118 -112 -254 -159
q-208 -70 -420 -70h-109v23q-110 -141 -273 -212q-199 -86 -415 -86q-92 0 -155 18h2l-10 3v-2q-5 0 -32 18v1379h-265v111h2467v-111h-1207v-334q110 49 212 74q120 31 210 31q42 0 83 -6q114 -17 173 -73q145 -121 145 -271q0 -69 -31 -154q-31 -58 -47 -84
q191 -73 191 -222v-12q-28 -130 -202 -209q-65 -24 -166 -48q277 -144 539 -217q-6 -10 -19.5 -51t-15.5 -46t-2 -6z" />
    <glyph glyph-name="Charu_Chandan.128" horiz-adv-x="2285" 
d="M1040 809v590h-770v-587q277 123 446 123q207 0 324 -126zM2058 -737q-222 37 -463 175q-101 57 -242 191l374 330q-84 45 -179 108q-9 13 -29 92q187 33 333 85q110 54 125 115q-2 40 -41 79l3 -2q-52 42 -116 51q-61 -58 -124 -97q-135 -83 -322 -114
q-105 -17 -283 -17l-60 6q-105 -130 -267 -195q-196 -87 -415 -87q-100 0 -163 21v-2q-6 0 -32 18v1379h-265v111h2476v-111h-1215v-334q109 49 211 74q121 31 210 31q42 0 83 -6q113 -17 173 -73q146 -121 146 -271q0 -37 -8.5 -75t-22.5 -77q-4 -8 -7 -14.5t-7.5 -15
t-12.5 -21.5t-21 -35q74 -29 110 -57q43 -37 64 -83q17 -40 17 -94q-32 -147 -251 -227q-21 -6 -117 -29q271 -143 533 -215l-40 -105q-49 12 -79 22q-60 20 -76 24v-555zM357 95q201 0 364 76q208 82 287 284q15 32 15 78q0 36 -12 83q-22 80 -81 131l-19 18
q-36 40 -136 57q-26 4 -56 4q-77 0 -197.5 -37.5t-251.5 -103.5v-584q34 -6 87 -6zM1153 366q232 6 382 65l5 4q217 68 301 275q21 50 21 104q0 108 -103 196q-45 40 -141 50q-3 0 -6 0.5t-20 0.5q-102 0 -217.5 -30.5t-221.5 -89.5v-575zM1939 -595v458l-103 45
q-42 -37 -80 -71.5t-75.5 -68.5t-76.5 -68.5t-81 -72.5q81 -64 130 -92q124 -76 286 -130z" />
    <glyph glyph-name="Charu_Chandan.129" horiz-adv-x="2288" 
d="M357 96q201 0 364 76q209 83 288 283q14 34 14 79q0 36 -12 82q-22 81 -81 132l-19 18q-37 39 -136 56q-26 4 -56 4q-77 0 -197.5 -37.5t-251.5 -102.5v-584q34 -6 87 -6zM1044 807v592h-774v-587q272 123 446 123q209 0 328 -128zM1156 367q209 8 383 65l3 2
q105 34 181.5 106.5t121.5 171.5q21 46 21 102q0 110 -102 193q-34 43 -142 54q-3 0 -6 0.5t-35 0.5q-89 0 -204.5 -31.5t-220.5 -89.5v-574zM2010 -464l-107 1q-18 47 -37 83q-62 121 -222 121q-107 0 -263 -71q-66 -39 -172 -61q-57 -10 -103 -10q-140 1 -304 124v160
q170 -172 322 -174q60 2 150 35l139 61q101 50 229 50q139 0 251 -84v113q-38 17 -165 82q-175 89 -187 130q-10 31 -19 64q189 33 334 85q110 54 125 115q-2 41 -38 77q-52 41 -116 51q-240 -228 -673 -228q-63 0 -96 3h-14v23q-131 -158 -277 -215q-196 -87 -415 -87
q-100 0 -163 21v-2q-6 0 -32 18v1378h-265v111h2500v-111h-1236v-333q108 47 212 73q120 31 210 31q170 0 256 -78q146 -122 146 -272q0 -64 -31 -148q-25 -53 -47 -89q36 -14 63 -28q127 -68 127 -206q-28 -130 -203 -210q-24 -10 -162 -46q276 -146 530 -215l-29 -107
q-105 27 -218 67v-302z" />
    <glyph glyph-name="Charu_Chandan.130" horiz-adv-x="2711" 
d="M2165 -28h-117v26q-82 91 -167 143q-91 59 -161 72q-26 6 -82 6q-96 0 -192 -14q-113 -16 -172 -16q-126 0 -241 78q-110 -135 -266 -197q-194 -86 -416 -86q-92 0 -162 21v-2q-5 0 -32 18v1378h-266v111h1264v-111h-885v-587q272 123 445 123q46 0 95 -9
q237 -42 312 -282q12 -50 12 -111t-22 -125q-7 -14 -7 -16t-4 -9l-7 -14q87 -62 180 -62q47 0 155 11q139 17 214 17q51 0 98 -9q131 -27 307 -160v966q-199 235 -425 235q-51 0 -104 -14q-175 -65 -228 -222q-20 -65 -20 -117q0 -21 4 -42q52 -189 216 -189q52 0 97 18
q-38 10 -68 40q-44 44 -44 106t44 106t106 44t106 -44q13 -13 33 -46v-4q8 -19 10 -39q6 -26 6 -47q0 -39 -15 -84q-31 -100 -147 -148l-5 -1q-50 -16 -116 -16q-98 0 -173 43q-118 71 -165 233q-6 36 -6 75q0 97 42 192q78 176 286 253q73 20 129 20q44 0 101 -10
q258 -46 453 -303v-34q82 43 146 43q104 0 179 -72q72 -73 72 -174q0 -104 -100 -195q100 -98 100 -192q0 -103 -72.5 -175t-175.5 -72q-74 2 -149 42v-370zM356 95q79 0 180 19q97 17 184 58q208 81 288 283q15 32 15 79q0 17 -3 37q-21 115 -90 183q-82 72 -211 72
q-77 0 -200 -38.5t-249 -101.5v-585q34 -6 86 -6zM2315 401q60 0 101 42q42 40 42 104q0 111 -139 143v96q64 13 97 46q42 40 42 102q0 59 -42 103q-40 40 -101 40q-57 0 -105 -33l-4 -4q-21 -13 -41 -44v-514q56 -81 150 -81z" />
    <glyph glyph-name="Charu_Chandan.131" horiz-adv-x="1285" 
d="M534 -508q-72 0 -148 26q-74 38 -122 107q-72 111 -72 236q0 100 43 171v-2q44 80 111 130q119 90 285 90q209 -12 385 -176v456q-12 -18 -37 -45q-108 -108 -251 -158q-180 -69 -421 -69q-65 0 -67 1q-8 1 -42 1v1139h-266v111h1482v-111h-1105v-336q261 107 423 107
q257 0 365 -217q36 -73 36 -147v-1307h-117v405q-69 93 -169 164q-105 67 -217 67q-47 0 -96 -11q-14 -3 -78 -33q-150 -90 -150 -231q0 -50 23 -117q13 -44 50 -79q43 -41 100 -59l47 -8q108 0 162 54q-20 -6 -42 -6q-62 0 -106 44t-44 106q0 63 43.5 106.5t106.5 43.5
q51 0 86 -23q41 -26 62 -59q41 -63 41 -134q0 -103 -81 -171q-105 -66 -220 -66zM309 365q234 6 384 65l3 3q214 69 303 278q21 50 21 102q0 110 -102 193q-34 43 -142 54q-4 0 -6.5 0.5t-19.5 0.5q-97 0 -219 -31q-117 -32 -222 -89v-576z" />
    <glyph glyph-name="Charu_Chandan.132" horiz-adv-x="2554" 
d="M2223 -36q-145 159 -145 495q0 303 166 577q-255 70 -380 162t-196 201h-34q-165 -134 -269 -297q-66 -118 -66 -169q0 -20 13 -41q7 -13 44 -13q38 0 70 8q185 26 455 148q59 29 75 38l8 -84q7 -65 7 -146q0 -221 -70 -463q-58 -194 -250 -272q-75 -25 -144 -25
q-166 0 -363 119q-162 87 -316 306q-91 -59 -178 -59q-116 0 -258 87q-186 101 -368 421l99 55q155 -287 325 -379q116 -70 202 -70q41 0 63 10q91 39 119 126q35 121 43 307q-228 -85 -323 -85q-77 0 -115 50q-24 37 -24 81q0 61 60 169q43 68 153 178h-723v111h2715v-111
h-788q18 -53 139 -137.5t367 -136.5l49 -95h-2q-198 -281 -198 -556q0 -24 10.5 -185.5t116.5 -245.5zM1312 1221q56 77 151 178h-588q15 -9 20 -13q9 -6 19 -11.5t23 -13.5q69 -40 189 -81t186 -59zM1506 196q126 0 215 98q47 51 70 119q32 103 48.5 215.5t16.5 273.5
q-282 -109 -414 -126q-43 -10 -85 -10q-95 0 -140 63q-30 43 -30 100q0 74 61 191l-19 6q-33 9 -119 36q-21 6 -29 11q-2 1 -5 2t-6 3q-8 3 -20.5 7t-27.5 10q-57 22 -65 27l-12 6q-70 33 -130 73q-29 14 -71 46q-214 -169 -214 -309q16 -3 27 -3q101 0 348 105l-5 -3l26 13
q8 5 19 10q24 12 32 17q13 -130 13 -188q0 -78 -13 -159q-27 -166 -73 -238q19 -27 38 -50q141 -180 258 -242q175 -104 306 -104z" />
    <glyph glyph-name="Charu_Chandan.133" horiz-adv-x="2572" 
d="M2070 -355v583l-405 -366q65 -50 126 -90q117 -72 279 -127zM1320 1218q56 77 153 181h-598q15 -9 20 -13q9 -6 19 -11.5t23 -13.5q69 -40 189 -82q128 -43 194 -61zM1516 196q126 0 215 98q47 51 70 119q32 103 48.5 215.5t16.5 273.5q-282 -109 -414 -126
q-43 -10 -85 -10q-95 0 -140 63q-30 43 -30 100q0 72 60 189q-56 15 -147 44q-21 6 -29 11q-2 1 -5 2t-6 3q-8 3 -20.5 7t-27.5 10q-57 22 -65 27l-12 6q-70 33 -130 73q-29 14 -71 46q-214 -169 -214 -309q16 -3 27 -3q101 0 348 105l-5 -3l26 13q8 5 19 10q24 12 32 17
q13 -130 13 -188q0 -78 -13 -159q-25 -157 -68 -231q21 -31 43 -57q141 -180 258 -242q175 -104 306 -104zM2194 -502q-107 17 -220.5 58.5t-257 135.5t-226.5 171l271 243l327 302v51q0 303 166 577q-200 34 -359 141.5t-213 221.5h-38q-165 -134 -269 -297
q-66 -118 -66 -169q0 -20 13 -41q7 -13 44 -13q38 0 70 8q185 26 455 148q59 29 75 38l8 -84q7 -65 7 -146q0 -221 -70 -463q-58 -194 -250 -272q-75 -25 -144 -25q-166 0 -363 119q-71 38 -141 103q-98 91 -179 208q-92 -64 -184 -64q-116 0 -258 87q-186 101 -368 421
l99 55q155 -287 325 -379q116 -70 202 -70q41 0 63 10q91 39 119 126q35 121 43 307q-228 -85 -323 -85q-77 0 -115 50q-24 37 -24 81q0 61 60 169q43 68 153 178h-723v111h2745v-111h-804q88 -186 502 -274l49 -95h-2q-196 -279 -198 -552l-1 -1v-979z" />
    <glyph glyph-name="Charu_Chandan.134" horiz-adv-x="2464" 
d="M1750 108v1291h-230l-576 -858q110 -97 260 -191q267 -169 546 -242zM1267 1238l109 161h-492q15 -9 22 -14t17.5 -10.5t22.5 -13.5q104 -60 309 -119zM2280 -28h-115v511q-142 91 -300 125v-636h-115v14q-287 64 -609 262q-192 114 -325 252q-77 -46 -156 -46
q-117 0 -259 87q-185 98 -368 418q16 8 25.5 13t15.5 8t9 5t8 3.5t41 25.5q154 -284 325 -377q118 -69 203 -69q78 0 136 60q78 81 88 380q-226 -84 -322 -84q-78 0 -116 49q-24 37 -24 81q0 60 60 168q60 87 146 177h-716v111h1953v-783q142 -23 300 -104v951h115v-64h245
v-111h-245v-1427zM984 819l216 319l-27 9q-69 19 -94 32q-93 33 -113 44l-12 6q-44 19 -130 73q-25 12 -71 45q-57 -44 -101 -90q-112 -117 -112 -217q15 -3 27 -3q104 0 347 104l-5 -3q70 35 77 40q14 -138 14 -187q0 -92 -16 -172z" />
    <glyph glyph-name="Charu_Chandan.135" horiz-adv-x="2020" 
d="M1591 390q57 0 97.5 39.5t40.5 99.5q0 114 -139 143v103q70 15 100 45q39 39 39 101q0 39 -26 78q-39 54 -113 60q-50 0 -107 -41q-27 -20 -47 -66q10 -135 10 -176q0 -142 -29 -292q23 -34 49 -51q64 -43 125 -43zM820 814q38 0 75 9q156 23 377 114q-50 34 -85 80
q-95 124 -95 304q-166 -132 -263 -283q-67 -122 -67 -170q0 -54 58 -54zM972 7q-169 0 -369 120q-325 174 -564 790q4 3 101 54q119 -320 260 -499.5t259 -241.5q179 -107 312 -107q129 0 219 98q47 52 71 121q32 104 49 218t17 275q-268 -106 -420 -127q-45 -10 -86 -10
q-96 0 -145 64q-29 44 -29 102q0 98 85 236q94 147 261 299h-1088v111h2219v-111h-899q-16 -54 -16 -96l1 -24q13 -166 127 -247l37 46q89 91 217 91q104 0 178 -72q74 -76 74 -176q0 -109 -98 -197q98 -90 98 -195q0 -102 -74 -177q-76 -74 -178 -74q-97 0 -203 81l-14 -50
q-58 -195 -249 -274q-86 -28 -153 -28z" />
    <glyph glyph-name="Charu_Chandan.136" horiz-adv-x="2093" 
d="M1205 -13q-110 0 -262 19v430q-152 164 -296 164q-61 0 -149 -13q-72 -11 -146 -11q-168 12 -251 151q-61 99 -76 247h108q15 -93 34 -136q59 -139 193 -151q23 0 122.5 11.5t161.5 11.5q44 0 77 -7q92 -22 222 -113v600q-140 166 -302 166q-34 0 -58 -9
q-121 -41 -159 -155q-15 -39 -15 -78q0 -16 2 -26q35 -98 96 -118q-29 38 -29 89q0 63 44 106q42 44 106 44q62 0 107 -45t45 -126q0 -14 -2 -30q-17 -108 -124 -149q-40 -12 -92 -12q-77 0 -131 33q-97 50 -127 174q-6 33 -6 65q0 75 33 141q61 133 211 188q53 16 128 16
q153 -15 273 -115v161h1250v-111h-1128v-99q66 29 110 29q87 0 150.5 -62t63.5 -147q0 -77 -69 -155q33 -36 53 -78q81 11 144 11q181 0 301 -95q164 -137 164 -293q0 -67 -40 -166q-81 -171 -267 -264t-470 -93zM1195 107q141 0 266 25q283 65 370 258q25 65 25 115
q0 57 -29 110q-90 163 -307 163q-42 0 -140 -13q-21 -75 -70 -117q-59 -47 -135 -47q-44 0 -110 29v-518q80 -5 130 -5zM1175 722q41 0 64 27q27 29 27 66t-25 63q-15 17 -62 31v112q23 8 39 15q48 22 48 84q0 37 -25 63q-31 28 -66 28q-39 0 -78 -29q-32 -30 -32 -62v-305
q0 -33 33 -66q37 -27 77 -27z" />
    <glyph glyph-name="Charu_Chandan.137" horiz-adv-x="2215" 
d="M2232 -486q-380 109 -670 294l-30 99q180 29 322 83q129 62 129 127q0 14 -9 31q-25 48 -102 75q-210 -238 -668 -238q-99 0 -261 18v431q-132 137 -245 162q-15 3 -50 3q-46 0 -151 -13q-70 -12 -146 -12q-169 14 -251 152q-59 95 -75 246l109 2q32 -270 226 -289
q33 0 120 12q99 12 165 12q47 0 77 -7q92 -18 221 -112v599q-137 166 -303 166q-40 0 -62 -11q-117 -38 -155 -153q-13 -35 -13 -77q0 -16 1 -21q22 -86 59 -105q18 -12 38 -20q-30 39 -30 91q0 63 44 106.5t106 43.5t107 -44.5t45 -127.5q0 -32 -9 -62q-35 -86 -122 -118
q-42 -11 -87 -11q-73 0 -133 33q-98 54 -126 174q-6 34 -6 65q0 61 32 140q59 131 212 190q59 16 129 16q90 -10 156 -38q59 -25 117 -72v156h1376v-111h-1254v-99q66 29 109 29q86 0 150.5 -62.5t64.5 -146.5q0 -77 -69 -155q35 -37 52 -79q97 11 142 11q185 0 304 -95
q163 -129 163 -293q0 -38 -10 -79q-15 -63 -38 -109q163 -76 163 -213q-8 -133 -202 -220q-39 -17 -165 -49q264 -139 533 -218zM1196 105q322 0 497 120q95 65 137 162q26 58 26 117q0 111 -115 207q-89 66 -222 66q-43 0 -141 -13q-21 -81 -69 -117q-62 -47 -135 -47
q-43 0 -109 29v-519q80 -5 131 -5zM1174 721q42 0 68 25q24 27 24 68q0 36 -26 65l1 -2q-25 23 -62 31v113q47 14 63 30q24 26 24 69q0 35 -28 65q-30 25 -64 25q-36 0 -75 -29q-34 -29 -34 -61v-306q0 -39 32 -64q34 -29 77 -29z" />
    </font>
</defs>
</svg>
